<?xml version="1.0" encoding="UTF-8"?>
<svg width="51px" height="42px" viewBox="0 0 51 42" version="1.1" xmlns="http://www.w3.org/2000/svg" xmlns:xlink="http://www.w3.org/1999/xlink">
    <g id="控件-h5" stroke="none" stroke-width="1">
        <g id="服务类型iconfont" transform="translate(-268.000000, -883.000000)">
            <path d="M304,892.5 C307.037566,892.5 309.5,894.962434 309.5,898 L309.5,898 L309.5,919 C309.5,922.037566 307.037566,924.5 304,924.5 L304,924.5 L274,924.5 C270.962434,924.5 268.5,922.037566 268.5,919 L268.5,919 L268.5,898 C268.5,894.962434 270.962434,892.5 274,892.5 L274,892.5 Z M304,895.5 L274,895.5 C272.619288,895.5 271.5,896.619288 271.5,898 L271.5,898 L271.5,919 C271.5,920.380712 272.619288,921.5 274,921.5 L274,921.5 L304,921.5 C305.380712,921.5 306.5,920.380712 306.5,919 L306.5,919 L306.5,898 C306.5,896.619288 305.380712,895.5 304,895.5 L304,895.5 Z M283.436681,900.32753 C283.995827,899.845078 284.840444,899.902177 285.329169,900.455468 L285.329169,900.455468 L289.017917,904.629463 L292.674589,900.455468 C293.162259,899.908899 294.001494,899.858831 294.551039,900.343522 C295.0956,900.829323 295.152522,901.659432 294.679343,902.214623 L294.679343,902.214623 L290.782101,906.708464 L293.011388,906.708464 C293.746565,906.708464 294.342545,907.302744 294.342545,908.035826 C294.342545,908.768908 293.746565,909.363189 293.011388,909.363189 L293.011388,909.363189 L290.349074,909.363189 L290.349074,910.690551 L293.011388,910.690551 C293.746565,910.690551 294.342545,911.284831 294.342545,912.017913 C294.342545,912.750995 293.746565,913.345275 293.011388,913.345275 L293.011388,913.345275 L290.349074,913.345275 L290.349074,914.672638 C290.349074,915.40572 289.753095,916 289.017917,916 C288.28274,916 287.68676,915.40572 287.68676,914.672638 L287.68676,914.672638 L287.68676,913.345275 L285.024447,913.345275 C284.289269,913.345275 283.69329,912.750995 283.69329,912.017913 C283.69329,911.284831 284.289269,910.690551 285.024447,910.690551 L285.024447,910.690551 L287.68676,910.690551 L287.68676,909.299219 L285.024447,909.299219 C284.289269,909.299219 283.69329,908.704939 283.69329,907.971857 C283.69329,907.238775 284.289269,906.644495 285.024447,906.644495 L285.024447,906.644495 L287.237695,906.644495 L283.356491,902.214623 C283.114084,901.954772 282.986127,901.608946 283.001195,901.25437 C283.016262,900.899795 283.173098,900.566002 283.436681,900.32753 Z M313,883.5 C315.963479,883.5 318.379539,885.84378 318.495633,888.778793 L318.5,889 L318.5,910 C318.5,913.037566 316.037566,915.5 313,915.5 C312.171573,915.5 311.5,914.828427 311.5,914 C311.5,913.220304 312.094888,912.579551 312.85554,912.506867 L313,912.5 C314.325483,912.5 315.410039,911.468464 315.494682,910.164376 L315.5,910 L315.5,889 C315.5,887.674517 314.468464,886.589961 313.164376,886.505318 L313,886.5 L283,886.5 C281.674517,886.5 280.589961,887.531536 280.505318,888.835624 L280.5,889 C280.5,889.828427 279.828427,890.5 279,890.5 C278.171573,890.5 277.5,889.828427 277.5,889 C277.5,886.036521 279.84378,883.620461 282.778793,883.504367 L283,883.5 L313,883.5 Z" id="形状结合"></path>
        </g>
    </g>
</svg>