<?xml version="1.0" encoding="UTF-8"?>
<svg width="43px" height="43px" viewBox="0 0 43 43" version="1.1" xmlns="http://www.w3.org/2000/svg" xmlns:xlink="http://www.w3.org/1999/xlink">
    <g id="控件-h5" stroke="none" stroke-width="1">
        <g id="服务类型iconfont" transform="translate(-271.000000, -651.000000)">
            <path d="M287,674.5 C288.932997,674.5 290.5,676.067003 290.5,678 L290.5,678 L290.5,690 C290.5,691.932997 288.932997,693.5 287,693.5 L287,693.5 L275,693.5 C273.067003,693.5 271.5,691.932997 271.5,690 L271.5,690 L271.5,678 C271.5,676.067003 273.067003,674.5 275,674.5 L275,674.5 Z M309,674.5 C310.932997,674.5 312.5,676.067003 312.5,678 L312.5,678 L312.5,690 C312.5,691.932997 310.932997,693.5 309,693.5 L309,693.5 L297,693.5 C295.067003,693.5 293.5,691.932997 293.5,690 L293.5,690 L293.5,678 C293.5,676.067003 295.067003,674.5 297,674.5 L297,674.5 Z M287,677.5 L275,677.5 C274.723858,677.5 274.5,677.723858 274.5,678 L274.5,678 L274.5,690 C274.5,690.276142 274.723858,690.5 275,690.5 L275,690.5 L287,690.5 C287.276142,690.5 287.5,690.276142 287.5,690 L287.5,690 L287.5,678 C287.5,677.723858 287.276142,677.5 287,677.5 L287,677.5 Z M309,677.5 L297,677.5 C296.723858,677.5 296.5,677.723858 296.5,678 L296.5,678 L296.5,690 C296.5,690.276142 296.723858,690.5 297,690.5 L297,690.5 L309,690.5 C309.276142,690.5 309.5,690.276142 309.5,690 L309.5,690 L309.5,678 C309.5,677.723858 309.276142,677.5 309,677.5 L309,677.5 Z M300.525126,652.454058 C301.891961,651.087223 304.108039,651.087223 305.474874,652.454058 L305.474874,652.454058 L312.545942,659.525126 C313.912777,660.891961 313.912777,663.108039 312.545942,664.474874 L312.545942,664.474874 L305.474874,671.545942 C304.108039,672.912777 301.891961,672.912777 300.525126,671.545942 L300.525126,671.545942 L293.454058,664.474874 C292.087223,663.108039 292.087223,660.891961 293.454058,659.525126 L293.454058,659.525126 Z M287,652.5 C288.932997,652.5 290.5,654.067003 290.5,656 L290.5,656 L290.5,668 C290.5,669.932997 288.932997,671.5 287,671.5 L287,671.5 L275,671.5 C273.067003,671.5 271.5,669.932997 271.5,668 L271.5,668 L271.5,656 C271.5,654.067003 273.067003,652.5 275,652.5 L275,652.5 Z M303.353553,654.575379 C303.158291,654.380117 302.841709,654.380117 302.646447,654.575379 L302.646447,654.575379 L295.575379,661.646447 C295.380117,661.841709 295.380117,662.158291 295.575379,662.353553 L295.575379,662.353553 L302.646447,669.424621 C302.841709,669.619883 303.158291,669.619883 303.353553,669.424621 L303.353553,669.424621 L310.424621,662.353553 C310.619883,662.158291 310.619883,661.841709 310.424621,661.646447 L310.424621,661.646447 Z M287,655.5 L275,655.5 C274.723858,655.5 274.5,655.723858 274.5,656 L274.5,656 L274.5,668 C274.5,668.276142 274.723858,668.5 275,668.5 L275,668.5 L287,668.5 C287.276142,668.5 287.5,668.276142 287.5,668 L287.5,668 L287.5,656 C287.5,655.723858 287.276142,655.5 287,655.5 L287,655.5 Z" id="形状结合"></path>
        </g>
    </g>
</svg>