<?xml version="1.0" encoding="UTF-8"?>
<svg width="43px" height="44px" viewBox="0 0 43 44" version="1.1" xmlns="http://www.w3.org/2000/svg" xmlns:xlink="http://www.w3.org/1999/xlink">
    <g id="控件-h5" stroke="none" stroke-width="1">
        <g id="服务类型iconfont" transform="translate(-110.000000, -881.000000)">
            <path d="M142,881.5 C144.963479,881.5 147.379539,883.84378 147.495633,886.778793 L147.5,887 L147.5,890.204714 C147.5,891.033141 146.828427,891.704714 146,891.704714 C145.220304,891.704714 144.579551,891.109826 144.506867,890.349174 L144.5,890.204714 L144.5,887 C144.5,885.674517 143.468464,884.589961 142.164376,884.505318 L142,884.5 L116,884.5 C114.674517,884.5 113.589961,885.531536 113.505318,886.835624 L113.5,887 L113.5,920.326345 C113.5,920.541915 113.546464,920.754953 113.636228,920.950945 C113.960893,921.65983 114.768564,921.994679 115.449484,921.763673 L115.575523,921.713681 L125.876999,916.53658 C127.769825,915.669675 129.933374,915.63027 131.893496,916.43886 L132.172079,916.560143 L142.3754,921.690117 C142.571392,921.77988 142.78443,921.826345 143,921.826345 C143.779696,921.826345 144.420449,921.231457 144.493133,920.470805 L144.5,920.326345 L144.5,913.189133 C144.5,912.360706 145.171573,911.689133 146,911.689133 C146.779696,911.689133 147.420449,912.284021 147.493133,913.044673 L147.5,913.189133 L147.5,920.326345 C147.5,922.811626 145.485281,924.826345 143,924.826345 C142.445677,924.826345 141.896935,924.723934 141.350287,924.510252 L141.077122,924.394097 L130.873801,919.264124 C129.763342,918.75554 128.49759,918.721634 127.406328,919.143249 L127.175277,919.24056 L116.873801,924.417661 C114.614229,925.452533 111.943555,924.459717 110.908684,922.200146 C110.677863,921.696165 110.542478,921.154616 110.508507,920.602914 L110.5,920.326345 L110.5,887 C110.5,884.036521 112.84378,881.620461 115.778793,881.504367 L116,881.5 L142,881.5 Z M146,894.5 C146.779696,894.5 147.420449,895.094888 147.493133,895.85554 L147.5,896 L147.5,900 L151.5,900 C152.328427,900 153,900.671573 153,901.5 C153,902.279696 152.405112,902.920449 151.64446,902.993133 L151.5,903 L147.5,903 L147.5,907 C147.5,907.828427 146.828427,908.5 146,908.5 C145.220304,908.5 144.579551,907.905112 144.506867,907.14446 L144.5,907 L144.5,903 L140.5,903 C139.671573,903 139,902.328427 139,901.5 C139,900.720304 139.594888,900.079551 140.35554,900.006867 L140.5,900 L144.5,900 L144.5,896 C144.5,895.171573 145.171573,894.5 146,894.5 Z" id="形状结合"></path>
        </g>
    </g>
</svg>