<?xml version="1.0" encoding="UTF-8"?>
<svg width="48px" height="45px" viewBox="0 0 48 45" version="1.1" xmlns="http://www.w3.org/2000/svg" xmlns:xlink="http://www.w3.org/1999/xlink">
    <g id="控件-h5" stroke="none" stroke-width="1">
        <g id="服务类型iconfont" transform="translate(-597.000000, -650.000000)">
            <path d="M599.855085,680.128839 L599.984248,680.193899 L619.809292,691.390531 C620.494971,691.761941 621.310982,691.790511 621.998459,691.486338 L622.167501,691.403368 L642.015752,680.193899 C642.737091,679.786516 643.652102,680.041029 644.059484,680.762368 C644.442903,681.441276 644.240007,682.29174 643.613425,682.729083 L643.491015,682.806101 L623.619557,694.028407 C622.063175,694.871447 620.201568,694.911592 618.596069,694.137752 L618.357236,694.01557 L598.508985,682.806101 C597.787645,682.398718 597.533133,681.483708 597.940516,680.762368 C598.323935,680.08346 599.157017,679.818074 599.855085,680.128839 Z M599.855085,671.887423 L599.984248,671.952483 L619.809292,683.149115 C620.494971,683.520525 621.310982,683.549095 621.998459,683.244922 L622.167501,683.161952 L642.015752,671.952483 C642.737091,671.5451 643.652102,671.799613 644.059484,672.520952 C644.442903,673.19986 644.240007,674.050324 643.613425,674.487667 L643.491015,674.564685 L623.619557,685.786991 C622.063175,686.630031 620.201568,686.670176 618.596069,685.896336 L618.357236,685.774154 L598.508985,674.564685 C597.787645,674.157302 597.533133,673.242292 597.940516,672.520952 C598.323935,671.842044 599.157017,671.576658 599.855085,671.887423 Z M618.380443,650.713009 C620.014644,649.827817 621.985356,649.827817 623.619557,650.713009 L623.619557,650.713009 L642.467808,660.922478 C644.167477,661.843132 644.798993,663.967323 643.878339,665.666991 C643.554939,666.264037 643.064854,666.754122 642.467808,667.077522 L642.467808,667.077522 L623.619557,677.286991 C621.985356,678.172183 620.014644,678.172183 618.380443,677.286991 L618.380443,677.286991 L599.532192,667.077522 C597.832523,666.156868 597.201007,664.032677 598.121661,662.333009 C598.445061,661.735963 598.935146,661.245878 599.532192,660.922478 L599.532192,660.922478 Z M622.190708,653.350885 C621.447889,652.948525 620.552111,652.948525 619.809292,653.350885 L619.809292,653.350885 L600.961041,663.560354 C600.875749,663.606554 600.805737,663.676566 600.759537,663.761858 C600.628015,664.004668 600.718231,664.308124 600.961041,664.439646 L600.961041,664.439646 L619.809292,674.649115 C620.552111,675.051475 621.447889,675.051475 622.190708,674.649115 L622.190708,674.649115 L641.038959,664.439646 C641.124251,664.393446 641.194263,664.323434 641.240463,664.238142 C641.371985,663.995332 641.281769,663.691876 641.038959,663.560354 L641.038959,663.560354 Z" id="形状结合"></path>
        </g>
    </g>
</svg>