<?xml version="1.0" encoding="UTF-8"?>
<svg width="42px" height="41px" viewBox="0 0 42 41" version="1.1" xmlns="http://www.w3.org/2000/svg" xmlns:xlink="http://www.w3.org/1999/xlink">
    <g id="控件-h5" stroke="none" stroke-width="1">
        <g id="服务类型iconfont" transform="translate(-601.000000, -884.000000)">
            <path d="M626.829614,884.018504 L637.626108,884.099043 C640.085143,884.117386 642.074072,886.106315 642.092416,888.56535 L642.092416,888.56535 L642.172954,899.361844 C642.187937,901.370306 641.3967,903.300855 639.976464,904.721091 L639.976464,904.721091 L621.539187,923.158368 C619.391304,925.306251 615.908896,925.306251 613.761013,923.158368 L613.761013,923.158368 L603.033091,912.430445 C600.885207,910.282562 600.885207,906.800154 603.033091,904.652271 L603.033091,904.652271 L621.470367,886.214995 C622.890603,884.794758 624.821152,884.003522 626.829614,884.018504 L626.829614,884.018504 Z M626.807235,887.018421 C625.602158,887.009431 624.443829,887.484173 623.591687,888.336315 L623.591687,888.336315 L605.154411,906.773591 C604.1781,907.749902 604.1781,909.332814 605.154411,910.309125 L605.154411,910.309125 L615.882333,921.037047 C616.858644,922.013358 618.441556,922.013358 619.417867,921.037047 L619.417867,921.037047 L637.855143,902.599771 C638.707285,901.747629 639.182027,900.5893 639.173037,899.384223 L639.173037,899.384223 L639.092499,888.587728 C639.086384,887.76805 638.423408,887.105074 637.60373,887.098959 L637.60373,887.098959 Z M629.585786,891.5 C632.071068,891.5 634.085786,893.514719 634.085786,896 C634.085786,898.485281 632.071068,900.5 629.585786,900.5 C627.100505,900.5 625.085786,898.485281 625.085786,896 C625.085786,893.514719 627.100505,891.5 629.585786,891.5 Z M629.585786,894.5 C628.757359,894.5 628.085786,895.171573 628.085786,896 C628.085786,896.828427 628.757359,897.5 629.585786,897.5 C630.414214,897.5 631.085786,896.828427 631.085786,896 C631.085786,895.171573 630.414214,894.5 629.585786,894.5 Z" id="形状结合"></path>
        </g>
    </g>
</svg>