<?xml version="1.0" encoding="UTF-8"?>
<svg width="49px" height="45px" viewBox="0 0 49 45" version="1.1" xmlns="http://www.w3.org/2000/svg" xmlns:xlink="http://www.w3.org/1999/xlink">
    <g id="控件-h5" stroke="none" stroke-width="1">
        <g id="服务类型iconfont" transform="translate(-433.000000, -649.000000)">
            <path d="M476,659.5 C479.037566,659.5 481.5,661.962434 481.5,665 L481.5,665 L481.5,688 C481.5,691.037566 479.037566,693.5 476,693.5 L476,693.5 L439,693.5 C435.962434,693.5 433.5,691.037566 433.5,688 L433.5,688 L433.5,665 C433.5,661.962434 435.962434,659.5 439,659.5 L439,659.5 Z M476,662.5 L439,662.5 C437.619288,662.5 436.5,663.619288 436.5,665 L436.5,665 L436.5,688 C436.5,689.380712 437.619288,690.5 439,690.5 L439,690.5 L476,690.5 C477.380712,690.5 478.5,689.380712 478.5,688 L478.5,688 L478.5,665 C478.5,663.619288 477.380712,662.5 476,662.5 L476,662.5 Z M468,667.5 C468.779696,667.5 469.420449,668.094888 469.493133,668.85554 L469.5,669 L469.5,671 L475,671 C475.828427,671 476.5,671.671573 476.5,672.5 C476.5,673.279696 475.905112,673.920449 475.14446,673.993133 L475,674 L469.5,674 L469.5,677 C469.5,677.828427 468.828427,678.5 468,678.5 C467.220304,678.5 466.579551,677.905112 466.506867,677.14446 L466.5,677 L466.5,674 L448.5,674 L448.5,677 C448.5,677.828427 447.828427,678.5 447,678.5 C446.220304,678.5 445.579551,677.905112 445.506867,677.14446 L445.5,677 L445.5,674 L440,674 C439.171573,674 438.5,673.328427 438.5,672.5 C438.5,671.720304 439.094888,671.079551 439.85554,671.006867 L440,671 L445.5,671 L445.5,669 C445.5,668.171573 446.171573,667.5 447,667.5 C447.779696,667.5 448.420449,668.094888 448.493133,668.85554 L448.5,669 L448.5,671 L466.5,671 L466.5,669 C466.5,668.171573 467.171573,667.5 468,667.5 Z M464,649.5 C466.963479,649.5 469.379539,651.84378 469.495633,654.778793 L469.5,655 L469.5,656.5 C469.5,657.328427 468.828427,658 468,658 C467.220304,658 466.579551,657.405112 466.506867,656.64446 L466.5,656.5 L466.5,655 C466.5,653.674517 465.468464,652.589961 464.164376,652.505318 L464,652.5 L451,652.5 C449.674517,652.5 448.589961,653.531536 448.505318,654.835624 L448.5,655 L448.5,656.5 C448.5,657.328427 447.828427,658 447,658 C446.220304,658 445.579551,657.405112 445.506867,656.64446 L445.5,656.5 L445.5,655 C445.5,652.036521 447.84378,649.620461 450.778793,649.504367 L451,649.5 L464,649.5 Z" id="形状结合"></path>
        </g>
    </g>
</svg>