<?xml version="1.0" encoding="UTF-8"?>
<svg width="48px" height="43px" viewBox="0 0 48 43" version="1.1" xmlns="http://www.w3.org/2000/svg" xmlns:xlink="http://www.w3.org/1999/xlink">
    <g id="控件-h5" stroke="none" stroke-width="1">
        <g id="服务类型iconfont" transform="translate(-433.000000, -882.000000)">
            <path d="M443,911.5 C444.932997,911.5 446.5,913.067003 446.5,915 L446.5,915 L446.5,921 C446.5,922.932997 444.932997,924.5 443,924.5 L443,924.5 L437,924.5 C435.067003,924.5 433.5,922.932997 433.5,921 L433.5,921 L433.5,915 C433.5,913.067003 435.067003,911.5 437,911.5 L437,911.5 Z M460,911.5 C461.932997,911.5 463.5,913.067003 463.5,915 L463.5,915 L463.5,921 C463.5,922.932997 461.932997,924.5 460,924.5 L460,924.5 L454,924.5 C452.067003,924.5 450.5,922.932997 450.5,921 L450.5,921 L450.5,915 C450.5,913.067003 452.067003,911.5 454,911.5 L454,911.5 Z M477,911.5 C478.932997,911.5 480.5,913.067003 480.5,915 L480.5,915 L480.5,921 C480.5,922.932997 478.932997,924.5 477,924.5 L477,924.5 L471,924.5 C469.067003,924.5 467.5,922.932997 467.5,921 L467.5,921 L467.5,915 C467.5,913.067003 469.067003,911.5 471,911.5 L471,911.5 Z M443,914.5 L437,914.5 C436.723858,914.5 436.5,914.723858 436.5,915 L436.5,915 L436.5,921 C436.5,921.276142 436.723858,921.5 437,921.5 L437,921.5 L443,921.5 C443.276142,921.5 443.5,921.276142 443.5,921 L443.5,921 L443.5,915 C443.5,914.723858 443.276142,914.5 443,914.5 L443,914.5 Z M460,914.5 L454,914.5 C453.723858,914.5 453.5,914.723858 453.5,915 L453.5,915 L453.5,921 C453.5,921.276142 453.723858,921.5 454,921.5 L454,921.5 L460,921.5 C460.276142,921.5 460.5,921.276142 460.5,921 L460.5,921 L460.5,915 C460.5,914.723858 460.276142,914.5 460,914.5 L460,914.5 Z M477,914.5 L471,914.5 C470.723858,914.5 470.5,914.723858 470.5,915 L470.5,915 L470.5,921 C470.5,921.276142 470.723858,921.5 471,921.5 L471,921.5 L477,921.5 C477.276142,921.5 477.5,921.276142 477.5,921 L477.5,921 L477.5,915 C477.5,914.723858 477.276142,914.5 477,914.5 L477,914.5 Z M474,901.736348 C475.868563,901.736348 477.395126,903.200626 477.494821,905.044313 L477.5,905.236348 L477.5,908.236348 C477.5,909.064775 476.828427,909.736348 476,909.736348 C475.220304,909.736348 474.579551,909.14146 474.506867,908.380808 L474.5,908.236348 L474.5,905.236348 C474.5,904.990888 474.323125,904.78674 474.089876,904.744404 L474,904.736348 L458.5,904.736 L458.5,908.236348 C458.5,909.064775 457.828427,909.736348 457,909.736348 C456.220304,909.736348 455.579551,909.14146 455.506867,908.380808 L455.5,908.236348 L455.5,904.736 L440,904.736348 C439.75454,904.736348 439.550392,904.913223 439.508056,905.146473 L439.5,905.236348 L439.5,908.236348 C439.5,909.064775 438.828427,909.736348 438,909.736348 C437.220304,909.736348 436.579551,909.14146 436.506867,908.380808 L436.5,908.236348 L436.5,905.236348 C436.5,903.367785 437.964278,901.841222 439.807965,901.741527 L440,901.736348 L474,901.736348 Z M462,882.5 C463.932997,882.5 465.5,884.067003 465.5,886 L465.5,886 L465.5,896 C465.5,897.932997 463.932997,899.5 462,899.5 L462,899.5 L452,899.5 C450.067003,899.5 448.5,897.932997 448.5,896 L448.5,896 L448.5,886 C448.5,884.067003 450.067003,882.5 452,882.5 L452,882.5 Z M462,885.5 L452,885.5 C451.723858,885.5 451.5,885.723858 451.5,886 L451.5,886 L451.5,896 C451.5,896.276142 451.723858,896.5 452,896.5 L452,896.5 L462,896.5 C462.276142,896.5 462.5,896.276142 462.5,896 L462.5,896 L462.5,886 C462.5,885.723858 462.276142,885.5 462,885.5 L462,885.5 Z" id="形状结合"></path>
        </g>
    </g>
</svg>