<?xml version="1.0" encoding="UTF-8"?>
<svg width="48px" height="47px" viewBox="0 0 48 47" version="1.1" xmlns="http://www.w3.org/2000/svg" xmlns:xlink="http://www.w3.org/1999/xlink">
    <g id="控件-h5" stroke="none" stroke-width="1">
        <g id="服务类型iconfont" transform="translate(-269.000000, -415.000000)">
            <path d="M294.151475,416.321908 C295.604114,415.165065 297.315328,415.226866 298.899863,416.520521 C302.421333,419.395541 302.343879,424.851755 299.134693,432.716992 C299.030371,432.972672 299.15307,433.26451 299.408747,433.368832 C299.468717,433.393301 299.532869,433.405885 299.597638,433.405885 L299.597638,433.405885 L310.73149,433.405885 C313.769056,433.405885 316.23149,435.868319 316.23149,438.905885 C316.23149,439.405386 316.163445,439.902558 316.029234,440.38369 L316.029234,440.38369 L311.260833,457.477805 C310.597588,459.855454 308.431511,461.5 305.963088,461.5 L305.963088,461.5 L275,461.5 C271.962434,461.5 269.5,459.037566 269.5,456 L269.5,456 L269.5,439.305693 C269.5,436.268123 271.96243,433.805685 275,433.805685 L275,433.805685 L275.640647,433.819179 C279.798843,433.877587 283.051671,432.910298 285.455954,430.950158 C286.724203,429.916193 287.82986,428.186313 289.163012,425.338381 L289.163012,425.338381 L289.516208,424.569803 C289.51823,424.565326 290.702041,421.876573 291.247689,420.691976 L291.247689,420.691976 L291.574582,420.005513 C292.454189,418.216528 293.222308,417.061873 294.151475,416.321908 Z M296.889249,418.754 C296.460376,418.421554 296.313717,418.435043 296.020367,418.66866 C295.494853,419.087165 294.878273,420.047414 294.114305,421.643596 C294.060085,421.756879 293.985738,421.917237 293.897796,422.109644 L293.897796,422.109644 L292.057773,426.227303 C290.464718,429.694698 289.13245,431.823478 287.351609,433.275345 C284.251288,435.802943 280.13946,436.967934 275.079498,436.806949 L275.079498,436.806949 L275.029448,436.805872 L274.835624,436.811003 C273.531533,436.895646 272.5,437.980203 272.5,439.30569 L272.5,439.30569 L272.5,456 C272.5,457.380712 273.619288,458.5 275,458.5 L275,458.5 L305.963088,458.5 C307.085099,458.5 308.069679,457.752479 308.371154,456.67173 L308.371154,456.67173 L313.139555,439.577615 C313.20056,439.358918 313.23149,439.132931 313.23149,438.905885 C313.23149,437.525173 312.112201,436.405885 310.73149,436.405885 L310.73149,436.405885 L299.597638,436.405885 C299.144251,436.405885 298.695182,436.317795 298.275394,436.146513 C296.485648,435.416258 295.62676,433.373395 296.357011,431.583643 C299.120396,424.810997 299.179861,420.621969 297.002595,418.844392 L297.002595,418.844392 Z M279,439.5 C279.779696,439.5 280.420449,440.094888 280.493133,440.85554 L280.5,441 L280.5,454 C280.5,454.828427 279.828427,455.5 279,455.5 C278.220304,455.5 277.579551,454.905112 277.506867,454.14446 L277.5,454 L277.5,441 C277.5,440.171573 278.171573,439.5 279,439.5 Z" id="形状结合"></path>
        </g>
    </g>
</svg>