<?xml version="1.0" encoding="UTF-8"?>
<svg width="48px" height="42px" viewBox="0 0 48 42" version="1.1" xmlns="http://www.w3.org/2000/svg" xmlns:xlink="http://www.w3.org/1999/xlink">
    <g id="控件-h5" stroke="none" stroke-width="1">
        <g id="服务类型iconfont" transform="translate(-597.000000, -1115.000000)">
            <path d="M628.61833,1115.5 C633.101975,1115.5 637.305997,1119.00509 638.236597,1123.49422 L638.236597,1123.49422 L639.956,1131.832 L640.072038,1131.90544 C642.25192,1133.34742 643.730479,1135.72815 644.012676,1138.35446 L644.012676,1138.35446 L644.039082,1138.64724 L644.471821,1144.63111 C644.72342,1147.67299 643.274655,1150.57669 640.773762,1152.1531 L640.773762,1152.1531 L640.591,1152.263 L640.529009,1152.41048 C639.459723,1154.79545 637.164815,1156.3925 634.569099,1156.49478 L634.569099,1156.49478 L634.308559,1156.5 C631.992438,1156.5 629.890001,1155.31292 628.63945,1153.41781 L628.63945,1153.41781 L628.605,1153.364 L613.392,1153.364 L613.355895,1153.42253 C612.147024,1155.25477 610.147935,1156.41184 607.957107,1156.49518 L607.957107,1156.49518 L607.693326,1156.5 C604.990473,1156.49899 602.575132,1154.87439 601.470485,1152.40775 L601.470485,1152.40775 L601.407,1152.26 L601.226896,1152.15131 C598.804484,1150.62607 597.368687,1147.85594 597.508472,1144.93139 L597.508472,1144.93139 L597.526938,1144.64793 L597.965889,1138.65069 C598.162841,1135.90785 599.66865,1133.40284 601.928175,1131.90794 L601.928175,1131.90794 L602.043,1131.834 L603.768533,1123.49373 C604.677274,1119.09562 608.732997,1115.64063 613.115419,1115.50419 L613.115419,1115.50419 L613.384115,1115.5 Z M628.61833,1118.5 L613.384115,1118.5 C610.337436,1118.5 607.348736,1120.99237 606.706428,1124.10099 L606.706428,1124.10099 L604.703183,1133.78869 L604.075841,1134.11853 C602.313922,1135.0449 601.101374,1136.87143 600.958036,1138.86762 L600.958036,1138.86762 L600.517858,1144.88075 C600.344243,1146.98528 601.450096,1148.97144 603.274265,1149.86265 L603.274265,1149.86265 L603.848753,1150.14332 L604.044095,1150.75213 C604.572635,1152.39941 606.046607,1153.49939 607.696058,1153.5 C609.162022,1153.50212 610.507206,1152.62648 611.149147,1151.23564 L611.149147,1151.23564 L611.551342,1150.36424 L630.444563,1150.36424 L630.847314,1151.23387 C631.486943,1152.61497 632.82418,1153.5 634.3075,1153.5 C635.954169,1153.49884 637.427024,1152.39991 637.955994,1150.75409 L637.955994,1150.75409 L638.151367,1150.14622 L638.724918,1149.86565 C640.550195,1148.97276 641.656239,1146.98461 641.480834,1144.86297 L641.480834,1144.86297 L641.046968,1138.86462 C640.901501,1136.87108 639.687894,1135.04322 637.924044,1134.11587 L637.924044,1134.11587 L637.296283,1133.78582 L635.298751,1124.10172 C634.654175,1120.99235 631.664842,1118.5 628.61833,1118.5 L628.61833,1118.5 Z M608.498463,1139 C610.432148,1139 612,1140.5679 612,1142.5 C612,1144.43209 610.432148,1146 608.498463,1146 C607.572243,1146.00163 606.683311,1145.6338 606.027221,1144.97743 C605.371132,1144.32105 605.001629,1143.42989 605,1142.5 C605,1140.5679 606.567852,1139 608.498463,1139 Z M633.5,1139 C635.434534,1139 637,1140.5679 637,1142.5 C637,1144.43209 635.431459,1146 633.5,1146 C632.573373,1146.00163 631.68405,1145.6338 631.027673,1144.97743 C630.371295,1144.32105 630.00163,1143.42989 630,1142.5 C630,1140.5679 631.568541,1139 633.5,1139 Z M634,1132.06553 C634.828427,1132.06553 635.5,1132.7371 635.5,1133.56553 C635.5,1134.34522 634.905112,1134.98598 634.14446,1135.05866 L634,1135.06553 L608,1135.06553 C607.171573,1135.06553 606.5,1134.39396 606.5,1133.56553 C606.5,1132.78583 607.094888,1132.14508 607.85554,1132.07239 L608,1132.06553 L634,1132.06553 Z" id="形状结合"></path>
        </g>
    </g>
</svg>