<?xml version="1.0" encoding="UTF-8"?>
<svg width="48px" height="48px" viewBox="0 0 48 48" version="1.1" xmlns="http://www.w3.org/2000/svg" xmlns:xlink="http://www.w3.org/1999/xlink">
    <title>形状结合</title>
    <g id="控件-h5" stroke="none" stroke-width="1">
        <g id="服务类型iconfont" transform="translate(-433.000000, -1112.000000)">
            <path d="M457,1112.5 C469.978692,1112.5 480.5,1123.02131 480.5,1136 C480.5,1136.82843 479.828427,1137.5 479,1137.5 C478.171573,1137.5 477.5,1136.82843 477.5,1136 C477.5,1124.67816 468.321837,1115.5 457,1115.5 C445.678163,1115.5 436.5,1124.67816 436.5,1136 C436.5,1147.32184 445.678163,1156.5 457,1156.5 C458.353352,1156.5 459.689037,1156.36906 460.994531,1156.11134 C461.807272,1155.95089 462.596199,1156.47967 462.756648,1157.29241 C462.917098,1158.10515 462.388312,1158.89408 461.575571,1159.05453 C460.07896,1159.34999 458.548681,1159.5 457,1159.5 C444.021308,1159.5 433.5,1148.97869 433.5,1136 C433.5,1123.02131 444.021308,1112.5 457,1112.5 Z M466.009461,1141.36847 C466.661798,1140.82571 467.647184,1140.88995 468.217364,1141.5124 L468.217364,1141.5124 L472.520903,1146.20815 L476.787021,1141.5124 C477.355968,1140.89751 478.335076,1140.84119 478.976212,1141.38646 C479.611533,1141.93299 479.677942,1142.86686 479.125901,1143.49145 L479.125901,1143.49145 L474.579118,1148.54702 L477.179952,1148.54702 C478.03766,1148.54702 478.732969,1149.21559 478.732969,1150.0403 C478.732969,1150.86502 478.03766,1151.53359 477.179952,1151.53359 L477.179952,1151.53359 L474.07392,1151.53359 L474.07392,1153.02687 L477.179952,1153.02687 C478.03766,1153.02687 478.732969,1153.69544 478.732969,1154.52015 C478.732969,1155.34487 478.03766,1156.01343 477.179952,1156.01343 L477.179952,1156.01343 L474.07392,1156.01343 L474.07392,1157.50672 C474.07392,1158.33143 473.378611,1159 472.520903,1159 C471.663196,1159 470.967887,1158.33143 470.967887,1157.50672 L470.967887,1157.50672 L470.967887,1156.01343 L467.861854,1156.01343 C467.004147,1156.01343 466.308838,1155.34487 466.308838,1154.52015 C466.308838,1153.69544 467.004147,1153.02687 467.861854,1153.02687 L467.861854,1153.02687 L470.967887,1153.02687 L470.967887,1151.46162 L467.861854,1151.46162 C467.004147,1151.46162 466.308838,1150.79306 466.308838,1149.96834 C466.308838,1149.14362 467.004147,1148.47506 467.861854,1148.47506 L467.861854,1148.47506 L470.443978,1148.47506 L465.915906,1143.49145 C465.633098,1143.19912 465.483815,1142.81006 465.501394,1142.41117 C465.518972,1142.01227 465.701948,1141.63675 466.009461,1141.36847 Z M458.578,1126.008 L458.883313,1126.01078 C463.514438,1126.0959 465.83,1128.13898 465.83,1132.14 C465.83,1136.26533 463.394,1138.328 458.522,1138.328 L458.522,1138.328 L453.566,1138.328 L453.566,1146 L450.29,1146 L450.29,1126.008 L458.578,1126.008 Z M458.326,1128.808 L453.566,1128.808 L453.566,1135.528 L458.326,1135.528 C459.763333,1135.528 460.827333,1135.26667 461.518,1134.744 C462.19,1134.20267 462.526,1133.33467 462.526,1132.14 C462.526,1130.964 462.180667,1130.11467 461.49,1129.592 C460.836667,1129.06933 459.782,1128.808 458.326,1128.808 L458.326,1128.808 Z" id="形状结合"></path>
        </g>
    </g>
</svg>