<?xml version="1.0" encoding="UTF-8"?>
<svg width="49px" height="50px" viewBox="0 0 49 50" version="1.1" xmlns="http://www.w3.org/2000/svg" xmlns:xlink="http://www.w3.org/1999/xlink">
    <g id="控件-h5" stroke="none" stroke-width="1">
        <g id="服务类型iconfont" transform="translate(-269.000000, -1111.000000)">
            <path d="M290.173164,1112.64338 C292.13957,1111.14971 294.86043,1111.14971 296.826836,1112.64338 L296.826836,1112.64338 L315.326836,1126.6959 C316.695974,1127.7359 317.5,1129.35631 317.5,1131.07565 L317.5,1131.07565 L317.5,1155 C317.5,1158.03757 315.037566,1160.5 312,1160.5 L312,1160.5 L275,1160.5 C271.962434,1160.5 269.5,1158.03757 269.5,1155 L269.5,1155 L269.5,1131.07565 C269.5,1129.35631 270.304026,1127.7359 271.673164,1126.6959 L271.673164,1126.6959 Z M295.012198,1115.03233 C294.118377,1114.35339 292.881623,1114.35339 291.987802,1115.03233 L291.987802,1115.03233 L273.487802,1129.08486 C272.865466,1129.55758 272.5,1130.29413 272.5,1131.07565 L272.5,1131.07565 L272.5,1155 C272.5,1156.38071 273.619288,1157.5 275,1157.5 L275,1157.5 L312,1157.5 C313.380712,1157.5 314.5,1156.38071 314.5,1155 L314.5,1155 L314.5,1131.07565 C314.5,1130.29413 314.134534,1129.55758 313.512198,1129.08486 L313.512198,1129.08486 Z M285.618632,1129.45035 C286.410755,1128.78698 287.607295,1128.86549 288.299656,1129.62627 L288.299656,1129.62627 L293.525383,1135.36551 L298.705668,1129.62627 C299.396533,1128.87474 300.58545,1128.80589 301.363972,1129.47234 C302.135434,1130.14032 302.216073,1131.28172 301.545737,1132.04511 L301.545737,1132.04511 L296.024643,1138.22414 L299.182799,1138.22414 C300.224301,1138.22414 301.068605,1139.04127 301.068605,1140.04926 C301.068605,1141.05725 300.224301,1141.87438 299.182799,1141.87438 L299.182799,1141.87438 L295.411188,1141.87438 L295.411188,1143.69951 L299.182799,1143.69951 C300.224301,1143.69951 301.068605,1144.51664 301.068605,1145.52463 C301.068605,1146.53262 300.224301,1147.34975 299.182799,1147.34975 L299.182799,1147.34975 L295.411188,1147.34975 L295.411188,1149.17488 C295.411188,1150.18286 294.566884,1151 293.525383,1151 C292.483881,1151 291.639577,1150.18286 291.639577,1149.17488 L291.639577,1149.17488 L291.639577,1147.34975 L287.867966,1147.34975 C286.826464,1147.34975 285.98216,1146.53262 285.98216,1145.52463 C285.98216,1144.51664 286.826464,1143.69951 287.867966,1143.69951 L287.867966,1143.69951 L291.639577,1143.69951 L291.639577,1141.78643 L287.867966,1141.78643 C286.826464,1141.78643 285.98216,1140.96929 285.98216,1139.9613 C285.98216,1138.95332 286.826464,1138.13618 287.867966,1138.13618 L287.867966,1138.13618 L291.003402,1138.13618 L285.505029,1132.04511 C285.161619,1131.68781 284.980347,1131.2123 285.001692,1130.72476 C285.023038,1130.23722 285.245223,1129.77825 285.618632,1129.45035 Z" id="形状结合"></path>
        </g>
    </g>
</svg>