<?xml version="1.0" encoding="UTF-8"?>
<svg width="50px" height="41px" viewBox="0 0 50 41" version="1.1" xmlns="http://www.w3.org/2000/svg" xmlns:xlink="http://www.w3.org/1999/xlink">
    <g id="控件-h5" stroke="none" stroke-width="1">
        <g id="服务类型iconfont" transform="translate(-432.000000, -420.000000)">
            <path d="M455.159853,420.5 L460.659,426.5 L476,426.5 C478.963479,426.5 481.379539,428.84378 481.495633,431.778793 L481.495633,431.778793 L481.5,432 L481.5,455 C481.5,458.037566 479.037566,460.5 476,460.5 L476,460.5 L438,460.5 C434.962434,460.5 432.5,458.037566 432.5,455 L432.5,455 L432.5,426 C432.5,422.962434 434.962434,420.5 438,420.5 L438,420.5 L455.159853,420.5 Z M453.84,423.5 L438,423.5 C436.619288,423.5 435.5,424.619288 435.5,426 L435.5,426 L435.5,455 C435.5,456.380712 436.619288,457.5 438,457.5 L438,457.5 L476,457.5 C477.380712,457.5 478.5,456.380712 478.5,455 L478.5,455 L478.5,432 C478.5,430.619288 477.380712,429.5 476,429.5 L476,429.5 L459.340147,429.5 L453.84,423.5 Z M468.762944,443.973685 C469.290111,443.972243 469.776107,444.252833 470.038432,444.710088 L471.779336,447.744682 C472.042349,448.20314 472.040541,448.769527 471.774605,449.230142 L470.019624,452.269858 C469.753688,452.730473 469.264093,453.015222 468.735543,453.016685 L465.237056,453.026315 C464.709899,453.027763 464.223903,452.747173 463.961578,452.289918 L462.220674,449.255323 C461.957641,448.796854 461.959459,448.230473 462.225395,447.769858 L463.980376,444.730142 C464.246312,444.269527 464.735907,443.984778 465.264457,443.983315 L468.762944,443.973685 Z M452.972806,432.897248 L459.022734,436.412416 C459.936746,436.943475 460.5,437.926294 460.5,438.990038 L460.5,446.009962 C460.5,447.073706 459.936746,448.056502 459.022734,448.587584 L452.972806,452.102752 C452.061191,452.632416 450.938832,452.632416 450.027217,452.102752 L443.977289,448.587584 C443.063231,448.056525 442.5,447.073706 442.5,446.009962 L442.5,438.990038 C442.5,437.926294 443.063254,436.943498 443.977266,436.412416 L450.027194,432.897248 C450.938832,432.367584 452.061191,432.367584 452.972806,432.897248 Z M467,446.5 C465.895423,446.5 465,447.395424 465,448.5 C465,449.604576 465.895423,450.5 467,450.5 C468.104562,450.5 469,449.604576 469,448.5 C469,447.395424 468.104562,446.5 467,446.5 Z M451.5,438 C449.014701,438 447,440.014705 447,442.5 C447,444.985295 449.014701,447 451.5,447 C453.985265,447 456,444.985295 456,442.5 C456,440.014705 453.985265,438 451.5,438 Z" id="形状结合"></path>
        </g>
    </g>
</svg>