<?xml version="1.0" encoding="UTF-8"?>
<svg width="50px" height="45px" viewBox="0 0 50 45" version="1.1" xmlns="http://www.w3.org/2000/svg" xmlns:xlink="http://www.w3.org/1999/xlink">
    <g id="控件-h5" stroke="none" stroke-width="1">
        <g id="服务类型iconfont" transform="translate(-596.000000, -187.000000)">
            <path d="M618.957338,208.453414 C620.268606,207.928902 621.731394,207.928902 623.042662,208.453414 L623.042662,208.453414 L643.784805,216.750335 C645.579545,217.468237 646.452496,219.505136 645.734594,221.299876 C645.37885,222.189228 644.674157,222.893921 643.784805,223.249665 L643.784805,223.249665 L623.042662,231.546586 C621.731394,232.071098 620.268606,232.071098 618.957338,231.546586 L618.957338,231.546586 L598.215195,223.249665 C596.420455,222.531763 595.547504,220.494864 596.265406,218.700124 C596.62115,217.810772 597.325843,217.106079 598.215195,216.750335 L598.215195,216.750335 Z M621.928483,211.238841 C621.332452,211.000426 620.667548,211.000426 620.071517,211.238841 L620.071517,211.238841 L599.329375,219.535762 C599.202324,219.586583 599.101654,219.687253 599.050833,219.814303 C598.948276,220.070695 599.072983,220.36168 599.329375,220.464238 L599.329375,220.464238 L620.071517,228.761159 C620.667548,228.999574 621.332452,228.999574 621.928483,228.761159 L621.928483,228.761159 L642.670625,220.464238 C642.797676,220.413417 642.898346,220.312747 642.949167,220.185697 L642.949167,220.185697 L642.975066,220.099257 C643.022386,219.866968 642.898529,219.626924 642.670625,219.535762 L642.670625,219.535762 Z M634.262944,198.473685 C634.790111,198.472243 635.276107,198.752833 635.538432,199.210088 L637.279336,202.244682 C637.542349,202.70314 637.540541,203.269527 637.274605,203.730142 L635.519624,206.769858 C635.253688,207.230473 634.764093,207.515222 634.235543,207.516685 L630.737056,207.526315 C630.209899,207.527763 629.723903,207.247173 629.461578,206.789918 L627.720674,203.755323 C627.457641,203.296854 627.459459,202.730473 627.725395,202.269858 L629.480376,199.230142 C629.746312,198.769527 630.235907,198.484778 630.764457,198.483315 L634.262944,198.473685 Z M615.472806,187.397248 L621.522734,190.912416 C622.436746,191.443475 623,192.426294 623,193.490038 L623,200.509962 C623,201.573706 622.436746,202.556502 621.522734,203.087584 L615.472806,206.602752 C614.561191,207.132416 613.438832,207.132416 612.527217,206.602752 L606.477289,203.087584 C605.563231,202.556525 605,201.573706 605,200.509962 L605,193.490038 C605,192.426294 605.563254,191.443498 606.477266,190.912416 L612.527194,187.397248 C613.438832,186.867584 614.561191,186.867584 615.472806,187.397248 Z M632.5,201 C631.395423,201 630.5,201.895424 630.5,203 C630.5,204.104576 631.395423,205 632.5,205 C633.604562,205 634.5,204.104576 634.5,203 C634.5,201.895424 633.604562,201 632.5,201 Z M614,192.5 C611.514701,192.5 609.5,194.514705 609.5,197 C609.5,199.485295 611.514701,201.5 614,201.5 C616.485265,201.5 618.5,199.485295 618.5,197 C618.5,194.514705 616.485265,192.5 614,192.5 Z" id="形状结合"></path>
        </g>
    </g>
</svg>