<?xml version="1.0" encoding="UTF-8"?>
<svg width="52px" height="43px" viewBox="0 0 52 43" version="1.1" xmlns="http://www.w3.org/2000/svg" xmlns:xlink="http://www.w3.org/1999/xlink">
    <g id="控件-h5" stroke="none" stroke-width="1">
        <g id="服务类型iconfont" transform="translate(-594.000000, -419.000000)">
            <path d="M624.903531,419.928585 C630.743325,420.299392 636.629157,421.765638 641.902319,423.701842 L642.630293,423.974367 C642.97754,424.106977 643.299345,424.233807 643.59423,424.35351 L644.218802,424.614537 L645.115377,425.008498 L645.111183,426.322246 L645.092505,426.975745 L645.082826,427.223148 C645.042684,428.187023 644.970598,429.268199 644.858595,430.443324 C644.635799,432.780877 644.283718,435.194874 643.776185,437.611613 C643.605923,438.422355 642.810663,438.941567 641.999921,438.771305 C641.189179,438.601043 640.669967,437.805783 640.840229,436.995041 C641.323343,434.694578 641.659445,432.390135 641.872129,430.158679 C641.943302,429.411937 641.997492,428.706086 642.036967,428.048226 L642.090927,426.984178 L641.221274,426.648877 L640.868278,426.518002 C635.843387,424.672958 630.220607,423.272243 624.713424,422.922555 C617.603543,422.471102 611.745232,423.884349 607.64049,427.564569 C603.094793,431.64014 600.717505,438.474416 600.982065,448.537408 C604.409545,444.54611 608.078625,441.210026 611.989038,438.532147 C611.902081,438.30745 611.869992,438.056379 611.905423,437.799036 C612.379186,434.358016 613.211059,431.844251 614.476964,430.23169 C614.988508,429.580066 615.931442,429.466508 616.583067,429.978051 C617.234691,430.489595 617.348249,431.432529 616.836706,432.084154 C616.138524,432.973525 615.564843,434.462562 615.154481,436.537945 C618.373978,434.682688 621.745807,433.245942 625.270415,432.229693 C626.066415,432.000182 626.897756,432.459413 627.127266,433.255413 C627.356777,434.051413 626.897546,434.882754 626.101546,435.112265 C620.759055,436.652664 615.776753,439.234897 611.153017,442.866601 C615.876312,444.539359 620.107632,445.369705 623.84299,445.369705 C624.671417,445.369705 625.34299,446.041278 625.34299,446.869705 C625.34299,447.698132 624.671417,448.369705 623.84299,448.369705 C619.298967,448.369705 614.190974,447.271844 608.512203,445.090484 C606.317203,447.06604 604.20808,449.293648 602.184562,451.773836 C610.332782,456.454767 617.925055,458.515047 623.76767,458.054349 L624.140566,458.021288 C624.964995,457.940003 625.699222,458.542441 625.780507,459.366871 C625.861792,460.1913 625.259354,460.925527 624.434925,461.006812 C617.781867,461.662773 609.291021,459.387196 600.321204,454.16257 C599.276514,455.55992 598.255984,457.029258 597.25947,458.569802 C596.809525,459.265389 595.880887,459.46452 595.185301,459.014574 C594.489715,458.564628 594.290584,457.635991 594.74053,456.940405 C595.850386,455.224641 596.990959,453.591485 598.162214,452.041099 L598.169427,452.138529 C597.172547,439.358821 599.821422,430.545746 605.637823,425.33089 C610.435023,421.029827 617.063556,419.430773 624.903531,419.928585 Z M638.472806,441.397248 L644.522734,444.912416 C645.436746,445.443475 646,446.426294 646,447.490038 L646,454.509962 C646,455.573706 645.436746,456.556502 644.522734,457.087584 L638.472806,460.602752 C637.561191,461.132416 636.438832,461.132416 635.527217,460.602752 L629.477289,457.087584 C628.563231,456.556525 628,455.573706 628,454.509962 L628,447.490038 C628,446.426294 628.563254,445.443498 629.477266,444.912416 L635.527194,441.397248 C636.438832,440.867584 637.561191,440.867584 638.472806,441.397248 Z M637,446.5 C634.514701,446.5 632.5,448.514705 632.5,451 C632.5,453.485295 634.514701,455.5 637,455.5 C639.485265,455.5 641.5,453.485295 641.5,451 C641.5,448.514705 639.485265,446.5 637,446.5 Z" id="形状结合"></path>
        </g>
    </g>
</svg>