<?xml version="1.0" encoding="UTF-8"?>
<svg width="52px" height="43px" viewBox="0 0 52 43" version="1.1" xmlns="http://www.w3.org/2000/svg" xmlns:xlink="http://www.w3.org/1999/xlink">
    <g id="控件-h5" stroke="none" stroke-width="1">
        <g id="服务类型iconfont" transform="translate(-266.000000, -185.000000)">
            <path d="M277.632637,191.33126 C282.429837,187.030197 289.058371,185.431143 296.898346,185.928955 C302.738139,186.299763 308.623972,187.766008 313.897133,189.702212 C314.277642,189.841928 314.633698,189.976764 314.963819,190.105371 L314.963819,190.105371 L315.589045,190.35388 C315.738621,190.414598 315.86603,190.467229 315.970412,190.510994 L315.970412,190.510994 L317.110191,191.008869 L317.109975,192.04436 L317.087319,192.976115 L317.058458,193.643721 C317.016088,194.498218 316.949412,195.436444 316.853409,196.443695 C316.347248,201.754282 315.24168,207.073347 313.328407,211.841011 C310.434019,219.053504 306.013206,224.129447 299.770766,226.193372 C292.584884,228.569224 283.494416,226.738266 272.318536,220.168474 C271.412118,221.378632 270.525216,222.643575 269.656344,223.961954 L269.25947,224.569802 L266.74053,222.940405 C267.848907,221.226927 268.987919,219.595837 270.157533,218.047296 C269.180028,205.317129 271.830123,196.533666 277.632637,191.33126 Z M296.708239,188.922926 C289.598358,188.471472 283.740046,189.884719 279.635305,193.56494 C275.088708,197.641317 272.711378,204.477492 272.977037,214.543754 C276.659653,210.253854 280.621429,206.72078 284.861801,203.948023 L283.846556,203.809293 C284.29972,200.517883 285.080532,198.074849 286.255434,196.457394 L286.418097,196.241947 L288.777838,198.094411 C288.076621,198.987649 287.500989,200.485779 287.09027,202.575306 C290.152224,200.803988 293.354031,199.411363 296.69439,198.399933 L297.270415,198.229693 L298.101546,201.112265 C292.759372,202.652572 287.777345,205.23459 283.153842,208.865954 C287.666417,210.465035 291.730136,211.294129 295.341292,211.364769 L295.84299,211.369705 L295.84299,214.369705 C291.460613,214.369705 286.553678,213.348564 281.116075,211.319165 L280.512984,211.089342 C278.315904,213.067124 276.204787,215.297081 274.179442,217.780112 C284.505576,223.785707 292.641334,225.39084 298.829021,223.345018 C304.109049,221.599294 307.94933,217.189913 310.544229,210.723714 C312.335646,206.259701 313.385784,201.207317 313.866944,196.159049 C313.973703,195.038936 314.042251,194.010828 314.080239,193.098687 L314.080239,193.098687 L314.08564,192.983755 L313.661178,192.81807 L312.863093,192.518373 C307.838201,190.673328 302.215422,189.272613 296.708239,188.922926 Z" id="形状结合"></path>
        </g>
    </g>
</svg>