<?xml version="1.0" encoding="UTF-8"?>
<svg width="48px" height="47px" viewBox="0 0 48 47" version="1.1" xmlns="http://www.w3.org/2000/svg" xmlns:xlink="http://www.w3.org/1999/xlink">
    <g id="控件-h5" stroke="none" stroke-width="1">
        <g id="服务类型iconfont" transform="translate(-105.000000, -1113.000000)">
            <path d="M143,1113.5859 C143.779696,1113.5859 144.420449,1114.18078 144.493133,1114.94144 L144.5,1115.0859 L144.500593,1127.48511 C144.84349,1127.6478 145.165562,1127.86948 145.451659,1128.15028 L145.451659,1128.15028 L150.638906,1133.43444 C151.831734,1134.64975 152.5,1136.28463 152.5,1137.98752 L152.5,1137.98752 L152.5,1149.79295 C152.5,1155.03965 148.246705,1159.29295 143,1159.29295 C137.753295,1159.29295 133.5,1155.03965 133.5,1149.79295 L133.5,1149.79295 L133.5,1137.98752 C133.5,1136.28463 134.168266,1134.64975 135.361094,1133.43444 L135.361094,1133.43444 L140.502128,1128.1965 C140.799337,1127.89369 141.138077,1127.65635 141.500386,1127.48464 L141.5,1115.0859 C141.5,1114.25747 142.171573,1113.5859 143,1113.5859 Z M119.500171,1113.01689 L121.408396,1113.55663 C126.746849,1115.06661 130.5,1119.95666 130.5,1125.5859 C130.5,1130.00692 128.183624,1134.01605 124.511063,1136.2584 L124.511063,1136.2584 L124.5,1136.265 L124.5,1152.5859 C124.5,1156.09771 121.715004,1158.95905 118.233134,1159.08179 L118.233134,1159.08179 L118,1159.0859 C114.410149,1159.0859 111.5,1156.17575 111.5,1152.58587 L111.5,1152.58587 L111.5,1136.265 L111.202234,1136.07798 C107.784081,1133.86201 105.610858,1130.08585 105.504121,1125.90866 L105.504121,1125.90866 L105.5,1125.5859 C105.5,1119.95709 109.252582,1115.06732 114.59047,1113.55695 L114.59047,1113.55695 L116.498587,1113.01689 L116.5,1123.0859 C116.5,1123.34788 116.702958,1123.56543 116.905829,1123.58142 L116.905829,1123.58142 L117,1123.5859 L119,1123.5859 C119.261986,1123.5859 119.479535,1123.38294 119.495526,1123.18007 L119.495526,1123.18007 L119.5,1123.08587 L119.500171,1113.01689 Z M143.332087,1130.27435 L143.285035,1130.28754 C143.192753,1130.30529 143.097462,1130.31459 143,1130.31459 C142.886055,1130.31459 142.775078,1130.30188 142.668408,1130.27781 L142.643161,1130.29792 L137.502128,1135.53586 C136.859835,1136.19026 136.5,1137.07058 136.5,1137.98752 L136.5,1137.98752 L136.5,1149.79295 C136.5,1153.3828 139.410149,1156.29295 143,1156.29295 C146.589851,1156.29295 149.5,1153.3828 149.5,1149.79295 L149.5,1149.79295 L149.5,1137.98752 C149.5,1137.07058 149.140165,1136.19026 148.497872,1135.53586 L148.497872,1135.53586 L143.350237,1130.29132 C143.344293,1130.28548 143.338241,1130.27983 143.332087,1130.27435 Z M122.499,1117.216 L122.498988,1123.14099 L122.490449,1123.34552 C122.356003,1125.16785 120.83601,1126.5859 119,1126.5859 L119,1126.5859 L116.944909,1126.58488 L116.740372,1126.57634 C114.91805,1126.4419 113.5,1124.92191 113.5,1123.08611 L113.5,1123.08611 L113.499,1117.216 L113.368069,1117.28786 C110.508031,1118.88587 108.604986,1121.90003 108.504208,1125.30156 L108.504208,1125.30156 L108.5,1125.5859 C108.5,1129.19316 110.527468,1132.43805 113.683062,1134.05103 L113.683062,1134.05103 L114.500374,1134.4688 L114.5,1152.5859 C114.5,1154.51889 116.067003,1156.0859 118,1156.0859 C119.932997,1156.0859 121.5,1154.51889 121.5,1152.58584 L121.5,1152.58584 L121.500675,1134.46836 L122.317798,1134.05059 C125.472923,1132.43744 127.5,1129.19281 127.5,1125.5859 C127.5,1122.06831 125.571122,1118.9298 122.631297,1117.28751 L122.631297,1117.28751 L122.499,1117.216 Z M143,1140.5 C143.779696,1140.5 144.420449,1141.09489 144.493133,1141.85554 L144.5,1142 L144.5,1149 C144.5,1149.82843 143.828427,1150.5 143,1150.5 C142.220304,1150.5 141.579551,1149.90511 141.506867,1149.14446 L141.5,1149 L141.5,1142 C141.5,1141.17157 142.171573,1140.5 143,1140.5 Z" id="形状结合"></path>
        </g>
    </g>
</svg>