<?xml version="1.0" encoding="UTF-8"?>
<svg width="49px" height="50px" viewBox="0 0 49 50" version="1.1" xmlns="http://www.w3.org/2000/svg" xmlns:xlink="http://www.w3.org/1999/xlink">
    <g id="控件-h5" stroke="none" stroke-width="1">
        <g id="服务类型iconfont" transform="translate(-433.000000, -183.000000)">
            <path d="M454.173164,184.64338 C456.13957,183.149706 458.86043,183.149706 460.826836,184.64338 L460.826836,184.64338 L479.326836,198.695905 C480.695974,199.735897 481.5,201.356312 481.5,203.075649 L481.5,203.075649 L481.5,227 C481.5,230.037566 479.037566,232.5 476,232.5 L476,232.5 L439,232.5 C435.962434,232.5 433.5,230.037566 433.5,227 L433.5,227 L433.5,203.075649 C433.5,201.356312 434.304026,199.735897 435.673164,198.695905 L435.673164,198.695905 Z M459.012198,187.032331 C458.118377,186.353388 456.881623,186.353388 455.987802,187.032331 L455.987802,187.032331 L437.487802,201.084856 C436.865466,201.55758 436.5,202.294132 436.5,203.075649 L436.5,203.075649 L436.5,227 C436.5,228.380712 437.619288,229.5 439,229.5 L439,229.5 L476,229.5 C477.380712,229.5 478.5,228.380712 478.5,227 L478.5,227 L478.5,203.075649 C478.5,202.294132 478.134534,201.55758 477.512198,201.084856 L477.512198,201.084856 Z M469.771685,215.000005 C470.301465,214.998572 470.789871,215.27753 471.053496,215.732126 L472.80303,218.749075 C473.067348,219.204867 473.06553,219.76796 472.79829,220.225904 L471.034595,223.247936 C470.76734,223.705873 470.275318,223.988966 469.744149,223.99042 L466.228317,223.999994 C465.698547,224.001434 465.210142,223.722475 464.946517,223.267879 L463.196983,220.250931 C462.932645,219.795128 462.934472,219.23204 463.201713,218.774096 L464.965408,215.752064 C465.232662,215.294127 465.724685,215.011034 466.255854,215.00958 L469.771685,215.000005 Z M454.472806,204.397248 L460.522734,207.912416 C461.436746,208.443475 462,209.426294 462,210.490038 L462,217.509962 C462,218.573706 461.436746,219.556502 460.522734,220.087584 L454.472806,223.602752 C453.561191,224.132416 452.438832,224.132416 451.527217,223.602752 L445.477289,220.087584 C444.563231,219.556525 444,218.573706 444,217.509962 L444,210.490038 C444,209.426294 444.563254,208.443498 445.477266,207.912416 L451.527194,204.397248 C452.438832,203.867584 453.561191,203.867584 454.472806,204.397248 Z M468.000001,217.51163 C466.889948,217.51163 465.990086,218.401847 465.990086,219.5 C465.990086,220.598153 466.889948,221.48837 468.000001,221.48837 C469.110039,221.48837 470.009916,220.598153 470.009916,219.5 C470.009916,218.401847 469.110039,217.51163 468.000001,217.51163 Z M453,209.5 C450.514701,209.5 448.5,211.514705 448.5,214 C448.5,216.485295 450.514701,218.5 453,218.5 C455.485265,218.5 457.5,216.485295 457.5,214 C457.5,211.514705 455.485265,209.5 453,209.5 Z" id="形状结合"></path>
        </g>
    </g>
</svg>