<?xml version="1.0" encoding="UTF-8"?>
<svg width="50px" height="44px" viewBox="0 0 50 44" version="1.1" xmlns="http://www.w3.org/2000/svg" xmlns:xlink="http://www.w3.org/1999/xlink">
    <g id="控件-h5" stroke="none" stroke-width="1">
        <g id="服务类型iconfont" transform="translate(-104.000000, -421.000000)">
            <path d="M137,421.5 C137.828427,421.5 138.5,422.171573 138.5,423 C138.5,423.779696 137.905112,424.420449 137.14446,424.493133 L137,424.5 L110,424.5 C108.678599,424.5 107.590288,425.548562 107.505337,426.882464 L107.5,427.050633 L107.5,453.379747 C107.5,454.736102 108.535455,455.838919 109.836095,455.924974 L110,455.93038 L121.505045,455.93038 L128.707241,461.400402 C128.857113,461.514228 129.051777,461.530489 129.214446,461.449185 L129.292759,461.400402 L136.494955,455.93038 L148,455.93038 C149.321401,455.93038 150.409712,454.881817 150.494663,453.547915 L150.5,453.379747 L150.5,436.004999 C150.5,435.176571 151.171573,434.504999 152,434.504999 C152.779696,434.504999 153.420449,435.099887 153.493133,435.860539 L153.5,436.004999 L153.5,453.379747 C153.5,456.368194 151.157482,458.811518 148.216255,458.926172 L148,458.93038 L137.504,458.93 L131.107241,463.789471 C129.916568,464.693781 128.295495,464.734886 127.065694,463.912786 L126.892759,463.789471 L120.495,458.93 L110,458.93038 C107.030605,458.93038 104.617387,456.558209 104.504155,453.597415 L104.5,453.379747 L104.5,427.050633 C104.5,424.062186 106.842518,421.618862 109.783745,421.504208 L110,421.5 L137,421.5 Z M141.673351,444.5 C142.501779,444.5 143.173351,445.171573 143.173351,446 C143.173351,446.779696 142.578463,447.420449 141.817811,447.493133 L141.673351,447.5 L116.673351,447.5 C115.844924,447.5 115.173351,446.828427 115.173351,446 C115.173351,445.220304 115.768239,444.579551 116.528891,444.506867 L116.673351,444.5 L141.673351,444.5 Z M129,437 C129.828427,437 130.5,437.671573 130.5,438.5 C130.5,439.279696 129.905112,439.920449 129.14446,439.993133 L129,440 L117,440 C116.171573,440 115.5,439.328427 115.5,438.5 C115.5,437.720304 116.094888,437.079551 116.85554,437.006867 L117,437 L129,437 Z M150.146667,421 L154,424.853333 L140.853333,437.835152 L137,438 L137.164848,433.981818 L150.146667,421 Z" id="形状结合"></path>
        </g>
    </g>
</svg>