<?xml version="1.0" encoding="UTF-8"?>
<svg width="48px" height="40px" viewBox="0 0 48 40" version="1.1" xmlns="http://www.w3.org/2000/svg" xmlns:xlink="http://www.w3.org/1999/xlink">
    <g id="控件-h5" stroke="none" stroke-width="1">
        <g id="服务类型iconfont" transform="translate(-105.000000, -1348.000000)">
            <path d="M148.742083,1351.75578 L148.960861,1351.96948 C153.875997,1356.88462 153.94723,1364.80937 149.174563,1369.81174 L148.960861,1370.03052 L148.294654,1370.69672 C147.708868,1371.28251 146.75912,1371.28251 146.173334,1370.69672 C145.622006,1370.1454 145.589575,1369.27167 146.076041,1368.68241 L146.173334,1368.5754 L146.839541,1367.9092 C150.655385,1364.09335 150.655385,1357.90665 146.839541,1354.0908 C143.088372,1350.33964 137.04603,1350.27606 133.217194,1353.90007 L133.021148,1354.0908 L129,1358.11195 L124.978852,1354.0908 C121.163008,1350.27496 114.976303,1350.27496 111.160459,1354.0908 C107.409291,1357.84197 107.345711,1363.88431 110.969722,1367.71315 L111.160459,1367.9092 L126.525126,1383.27386 C127.8464,1384.59514 129.961244,1384.63918 131.335422,1383.40599 L131.474874,1383.27386 C132.06066,1382.68808 133.010408,1382.68808 133.596194,1383.27386 C134.181981,1383.85965 134.181981,1384.8094 133.596194,1385.39518 C131.112969,1387.87841 127.120406,1387.93239 124.571558,1385.55713 L124.403806,1385.39518 L109.039139,1370.03052 C104.051722,1365.0431 104.051722,1356.9569 109.039139,1351.96948 C113.954274,1347.05435 121.879024,1346.98311 126.881394,1351.75578 L127.100172,1351.96948 L128.999293,1353.86883 L130.899828,1351.96948 C135.814963,1347.05435 143.739713,1346.98311 148.742083,1351.75578 Z M141,1369.41421 C141.779696,1369.41421 142.420449,1370.0091 142.493133,1370.76975 L142.5,1370.91421 L142.499576,1376.41392 L147.5,1376.41421 C148.328427,1376.41421 149,1377.08579 149,1377.91421 C149,1378.69391 148.405112,1379.33466 147.64446,1379.40735 L147.5,1379.41421 L142.499576,1379.41392 L142.5,1384.91421 C142.5,1385.74264 141.828427,1386.41421 141,1386.41421 C140.220304,1386.41421 139.579551,1385.81933 139.506867,1385.05867 L139.5,1384.91421 L139.499576,1379.41392 L134.5,1379.41421 C133.671573,1379.41421 133,1378.74264 133,1377.91421 C133,1377.13452 133.594888,1376.49376 134.35554,1376.42108 L134.5,1376.41421 L139.499576,1376.41392 L139.5,1370.91421 C139.5,1370.08579 140.171573,1369.41421 141,1369.41421 Z" id="形状结合"></path>
        </g>
    </g>
</svg>