<?xml version="1.0" encoding="UTF-8"?>
<svg width="48px" height="53px" viewBox="0 0 48 53" version="1.1" xmlns="http://www.w3.org/2000/svg" xmlns:xlink="http://www.w3.org/1999/xlink">
    <g id="控件-h5" stroke="none" stroke-width="1">
        <g id="服务类型iconfont" transform="translate(-105.000000, -181.000000)">
            <path d="M126.85698,182.27794 C128.226881,181.698366 129.773119,181.698366 131.14302,182.27794 L131.14302,182.27794 L149.14302,189.893324 C151.177853,190.754216 152.5,192.749192 152.5,194.958644 L152.5,194.958644 L152.5,209.769231 C152.5,219.318574 145.410183,226.92287 131.577424,232.59615 L131.577424,232.59615 L131.049871,232.810253 C129.734362,233.338617 128.26564,233.338617 126.950131,232.810253 C112.769951,227.114902 105.5,219.440883 105.5,209.769231 L105.5,209.769231 L105.5,194.958644 C105.5,192.749192 106.822147,190.754216 108.85698,189.893324 L108.85698,189.893324 Z M129.9741,185.040842 C129.351418,184.777399 128.648582,184.777399 128.0259,185.040842 L128.0259,185.040842 L110.0259,192.656226 C109.100976,193.04754 108.5,193.954348 108.5,194.958644 L108.5,194.958644 L108.5,209.769231 C108.5,217.979915 114.90284,224.738627 128.068242,230.026402 C128.666201,230.266567 129.333801,230.266567 129.926713,230.02844 L129.926713,230.02844 L130.444131,229.81845 C143.265364,224.560021 149.5,217.872963 149.5,209.769231 L149.5,209.769231 L149.5,194.958644 C149.5,193.954348 148.899024,193.04754 147.9741,192.656226 L147.9741,192.656226 Z M134.803301,208.974874 C135.354629,209.526202 135.38706,210.399932 134.900594,210.98919 L134.803301,211.096194 L128.43934,217.460155 C127.853553,218.045942 126.903806,218.045942 126.318019,217.460155 C125.766691,216.908827 125.73426,216.035097 126.220726,215.445839 L126.318019,215.338835 L132.681981,208.974874 C133.267767,208.389087 134.217514,208.389087 134.803301,208.974874 Z M120.554161,203.220726 L120.661165,203.318019 L127.025126,209.681981 C127.610913,210.267767 127.610913,211.217514 127.025126,211.803301 C126.473798,212.354629 125.600068,212.38706 125.01081,211.900594 L124.903806,211.803301 L118.539845,205.43934 C117.954058,204.853553 117.954058,203.903806 118.539845,203.318019 C119.091173,202.766691 119.964903,202.73426 120.554161,203.220726 Z M134.221843,200.866753 L134.328847,200.964046 L140.692808,207.328007 C141.278595,207.913793 141.278595,208.863541 140.692808,209.449327 C140.14148,210.000656 139.26775,210.033087 138.678492,209.546621 L138.571488,209.449327 L132.207527,203.085366 C131.62174,202.49958 131.62174,201.549832 132.207527,200.964046 C132.758855,200.412718 133.632585,200.380286 134.221843,200.866753 Z M132.681981,195.539845 C133.233309,196.091173 133.26574,196.964903 132.779274,197.554161 L132.681981,197.661165 L126.318019,204.025126 C125.732233,204.610913 124.782486,204.610913 124.196699,204.025126 C123.645371,203.473798 123.61294,202.600068 124.099406,202.01081 L124.196699,201.903806 L130.56066,195.539845 C131.146447,194.954058 132.096194,194.954058 132.681981,195.539845 Z" id="形状结合"></path>
        </g>
    </g>
</svg>