<?xml version="1.0" encoding="UTF-8"?>
<svg width="52px" height="42px" viewBox="0 0 52 42" version="1.1" xmlns="http://www.w3.org/2000/svg" xmlns:xlink="http://www.w3.org/1999/xlink">
    <g id="控件-h5" stroke="none" stroke-width="1">
        <g id="服务类型iconfont" transform="translate(-103.000000, -651.000000)">
            <path d="M150,680.5 C150.828427,680.5 151.5,681.171573 151.5,682 C151.5,688.146498 141.341828,692.5 129,692.5 C116.658172,692.5 106.5,688.146498 106.5,682 C106.5,681.171573 107.171573,680.5 108,680.5 C108.828427,680.5 109.5,681.171573 109.5,682 C109.5,685.794628 118.145869,689.5 129,689.5 C139.714975,689.5 148.277948,685.889028 148.49575,682.145896 L148.5,682 C148.5,681.171573 149.171573,680.5 150,680.5 Z M126.769631,652.348488 C128.189803,651.718448 129.810197,651.718448 131.230369,652.348488 L131.230369,652.348488 L152.877368,661.951884 C154.576406,662.705639 155.389922,664.656005 154.730079,666.393672 L154.730079,666.393672 L151.480047,674.952482 C150.669123,677.088015 148.622592,678.5 146.338276,678.5 L146.338276,678.5 L111.661724,678.5 C109.377408,678.5 107.330877,677.088015 106.519953,674.952482 L106.519953,674.952482 L103.269921,666.393672 C102.610078,664.656005 103.423594,662.705639 105.122632,661.951884 L105.122632,661.951884 Z M130.013804,655.090745 C129.368271,654.804363 128.631729,654.804363 127.986196,655.090745 L127.986196,655.090745 L106.339197,664.694141 C106.096477,664.80182 105.980261,665.080444 106.074524,665.328682 L106.074524,665.328682 L109.324555,673.887492 C109.693157,674.858189 110.623399,675.5 111.661724,675.5 L111.661724,675.5 L146.338276,675.5 C147.376601,675.5 148.306843,674.858189 148.675445,673.887492 L148.675445,673.887492 L151.925476,665.328682 C152.019739,665.080444 151.903523,664.80182 151.660803,664.694141 L151.660803,664.694141 Z M129,659.5 C132.313708,659.5 135,662.186292 135,665.5 C135,668.813708 132.313708,671.5 129,671.5 C125.686292,671.5 123,668.813708 123,665.5 C123,662.186292 125.686292,659.5 129,659.5 Z M129,662.5 C127.343146,662.5 126,663.843146 126,665.5 C126,667.156854 127.343146,668.5 129,668.5 C130.656854,668.5 132,667.156854 132,665.5 C132,663.843146 130.656854,662.5 129,662.5 Z" id="形状结合"></path>
        </g>
    </g>
</svg>