<?xml version="1.0" encoding="UTF-8"?>
<svg width="500px" height="371px" viewBox="0 0 500 371" version="1.1" xmlns="http://www.w3.org/2000/svg" xmlns:xlink="http://www.w3.org/1999/xlink">
    <!-- Generator: Sketch 64 (93537) - https://sketch.com -->
    <title>编组 5@3x</title>
    <desc>Created with Sketch.</desc>
    <g id="员工端h5" stroke="none" stroke-width="1" fill="none" fill-rule="evenodd">
        <g id="控页面" transform="translate(-125.000000, -530.000000)" fill-rule="nonzero">
            <g id="编组-5" transform="translate(125.000000, 530.000000)">
                <g id="编组-2" transform="translate(311.000000, 349.000000) scale(-1, 1) translate(-311.000000, -349.000000) translate(283.000000, 327.000000)" fill="#E1AA6C" opacity="0.300000012">
                    <path d="M50.0692085,30.5708929 C40.9246308,42.7211552 21.9422905,44 21.9422905,44 C21.9422905,44 17.7862137,25.5793757 26.9307915,13.4291134 C36.0753692,1.27885112 55.0577095,0 55.0577095,0 C55.0577095,0 59.2137863,18.4206306 50.0692085,30.5708929 Z" id="路径"></path>
                    <path d="M3.89737278,35.1489777 C9.90666024,43.1570979 22.3807809,44 22.3807809,44 C22.3807809,44 25.1119147,31.8591425 19.1026272,23.8510223 C13.0933398,15.8429021 0.619219059,15 0.619219059,15 C0.619219059,15 -2.11191468,27.1408575 3.89737278,35.1489777 Z" id="路径"></path>
                </g>
                <g id="编组-6" transform="translate(73.000000, 0.000000)">
                    <g id="编组" transform="translate(0.000000, 75.000000)">
                        <rect id="矩形" fill="#E1AA6C" opacity="0.300000012" x="0" y="8" width="102" height="144"></rect>
                        <polygon id="路径" fill="#FFFFFF" opacity="0.600000024" points="13 139 90 139 90 22 13 22"></polygon>
                        <rect id="矩形" fill="#E1AA6C" x="0" y="0" width="102" height="8"></rect>
                    </g>
                    <g id="编组-4" transform="translate(279.000000, 146.000000)">
                        <rect id="矩形备份-3" fill="#E1AA6C" opacity="0.300000012" x="0" y="5" width="76" height="98"></rect>
                        <polygon id="路径备份-2" fill="#FFFFFF" opacity="0.600000024" points="12 90 65 90 65 18 12 18"></polygon>
                        <rect id="矩形备份-4" fill="#E1AA6C" x="0" y="0" width="76" height="5"></rect>
                    </g>
                    <g id="编组-3" transform="translate(132.000000, 0.000000)">
                        <rect id="矩形备份" fill="#E1AA6C" opacity="0.300000012" x="0" y="9" width="122" height="195"></rect>
                        <polygon id="路径备份" fill="#FFFFFF" opacity="0.600000024" points="15 189 107 189 107 23 15 23"></polygon>
                        <rect id="矩形备份-2" fill="#E1AA6C" x="0" y="0" width="122" height="9"></rect>
                    </g>
                </g>
                <g id="编组-44" transform="translate(168.000000, 215.430244) rotate(-4.000000) translate(-168.000000, -215.430244) translate(120.000000, 53.930244)">
                    <path d="M81.3047896,163 L82.1018444,171.125004 C82.1018444,171.125004 77.3195351,189 87.6812021,189 C98.0428691,189 90.0723535,171.125004 90.0723535,171.125004 L90.8694083,164.625001 L81.3047896,163 Z" id="路径" fill="#FEDEC4" transform="translate(87.000000, 176.000000) scale(-1, 1) translate(-87.000000, -176.000000) "></path>
                    <path d="M24.6686675,136 L20.9278609,143.148493 C20.9278609,143.148493 7.08353664,155.316436 15.9846539,160.958223 C24.8857711,166.60001 27.7748927,147.488325 27.7748927,147.488325 L32,142.550724 L24.6686675,136 Z" id="路径" fill="#FEDEC4" transform="translate(22.500000, 149.000000) scale(-1, 1) translate(-22.500000, -149.000000) "></path>
                    <path d="M42,150.464824 L54.7142767,246.607385 L60.3738503,301.144305 C60.3738503,301.144305 65.2249163,313.174504 81.3951295,302.748333 L77.7808163,278.027458 L76.0574909,245.678206 C76.0574909,245.678206 75.2383883,223.356635 73.6213663,218.544551 C72.0043443,213.732468 77.4380811,176.414904 77.4380811,176.414904 L77.8357427,148.325676 L42,150.464824 Z" id="路径" fill="#BC8D58" transform="translate(61.697565, 227.662838) scale(-1, 1) translate(-61.697565, -227.662838) "></path>
                    <path d="M58.8658928,299.973332 L51.7257734,307.403187 C51.7257734,307.403187 42.1718035,304.22179 39.7833307,310.584578 C37.3948578,316.947365 57.8753148,317.60384 57.8753148,317.60384 C57.8753148,317.60384 79.5914642,320.128769 79.5914642,318.53807 C79.5914642,316.947372 78.781079,304.67013 75.8844214,303.992481 C72.9877639,303.314833 58.8658928,299.973332 58.8658928,299.973332 Z" id="路径" fill="#7D5B34" transform="translate(59.590510, 309.518663) scale(-1, 1) rotate(-10.000000) translate(-59.590510, -309.518663) "></path>
                    <path d="M12,146.654824 L24.7142787,246.693324 L30.3738533,301.152638 C30.3738533,301.152638 35.2249135,313.165718 51.3951295,302.754383 L46.9744713,271.659879 L46.3550131,243.559596 C46.3550131,243.559596 44.7379908,216.32994 43.1209685,211.524704 C41.5039463,206.719468 43.2850626,164.866238 43.2850626,164.866238 L39.9924335,139.688233 L12,146.654824 Z" id="路径" fill="#BC8D58" transform="translate(31.697565, 223.344117) scale(-1, 1) translate(-31.697565, -223.344117) "></path>
                    <path d="M16.4308728,299.002769 C14.2864435,301.407668 12.4180733,304.731046 10.8257621,308.972905 C8.43729542,315.335692 16.4021766,314.41232 16.4021766,314.41232 C16.4021766,314.41232 37.0020585,316.887833 37.0020585,315.297135 C37.0020585,313.706436 36.5409915,299.894778 33.6443399,299.21713 C30.7476884,298.539482 16.4308728,299.002769 16.4308728,299.002769 Z" id="路径" fill="#7D5B34" transform="translate(23.690492, 307.339259) scale(-1, 1) rotate(-10.000000) translate(-23.690492, -307.339259) "></path>
                    <path d="M72.7745794,40 C72.9638345,39.9239365 74.0806946,40.6418872 74.2821237,40.558887 C80.0911777,38.165226 89.7745794,32.074193 89.7745794,23 C89.7745794,13.6111593 82.1634202,6 72.7745794,6 C68.0771663,6 61.6831755,6.40670488 58.606317,9.48655802 C55.533379,12.5624868 57.268409,30.0554299 60.4582533,35.9704808 C64.8208794,44.0602662 67.1273579,42.2696748 72.7745794,40 Z" id="椭圆形" fill="#FEDEC4" transform="translate(73.387290, 23.958503) scale(-1, 1) translate(-73.387290, -23.958503) "></path>
                    <polygon id="路径" fill="#FEDEC4" transform="translate(64.500000, 40.000000) scale(-1, 1) translate(-64.500000, -40.000000) " points="67.7306414 30 75 42.0002633 56.422898 50 54 35.5999473"></polygon>
                    <path d="M62.8767286,41.0886558 C62.8767286,41.0886558 46.1175577,39.4873133 39.733121,49.8960294 L23.9811405,61.9067598 C21.3846731,63.8865399 20.0458874,67.1112614 20.4737878,70.3548898 L32.7516209,154.048719 L52.7030167,153.248051 L85.4233121,146.842681 L95,144.440671 L91.6067921,121.956374 C91.6067921,121.956374 86.0204018,105.142288 92.4048451,93.9328973 L87.1541508,52.3875096 L66.8670458,45.8926765 L62.8767286,41.0886558 Z" id="路径" fill="#FFFFFF" transform="translate(57.697565, 97.524359) scale(-1, 1) translate(-57.697565, -97.524359) "></path>
                    <path d="M81.4615359,65.0077247 L80.2499983,63 C80.2499983,63 78.6346127,63 78.6346127,66.2123569 C78.6346127,69.4247138 75.8076895,138.891894 75.8076895,138.891894 L75,165.393828 L90.3461536,167 L96,117.208501 L93.5769249,84.2818529 L81.4615359,65.0077247 Z" id="路径" fill="#FFFFFF" transform="translate(85.500000, 115.000000) scale(-1, 1) translate(-85.500000, -115.000000) "></path>
                    <path d="M-0.00487189948,53.1395129 L10.7492775,52.3875096 C15.1292227,56.9976862 19.392925,64.516378 22.4762257,70.0868812 C27.2935999,78.964076 41.745736,95.9114442 38.5341487,108.823726 C35.3225615,121.736007 25.6878063,145.139513 25.6878063,145.139513 L10.4327702,138.683376 C10.4327702,138.683376 22.4762191,110.437762 21.6733189,108.016711 C20.8704188,105.59566 11.2356703,91.0693362 11.2356703,91.0693362 L-0.00487189948,53.1395129 Z" id="路径" fill="#FFFFFF" transform="translate(19.495128, 98.763511) scale(-1, 1) translate(-19.495128, -98.763511) "></path>
                    <path d="M62.7371498,13.6376035 C62.7371498,13.6376035 49.1837612,12.8255258 57.9535882,3.89261813 C57.9535882,3.89261813 65.1289274,0.644294142 68.3179685,2.26845614 C68.3179685,2.26845614 73.1015301,-0.979867854 73.1015301,0.644294142 C73.1015301,0.644294142 89.8439861,-4.22818516 92.2357637,12.8255058 C94.6275412,29.8791967 90.6412431,38 90.6412431,38 L79.4796058,37.1879223 C79.4796058,37.1879223 81.8713834,23.3825487 73.1015301,25.0067107 C73.1015301,25.0067107 65.9261909,27.442957 65.1289274,25.0067107 C64.3316638,22.5704644 62.7371498,13.6376035 62.7371498,13.6376035 Z" id="路径" fill="#7D5B34" transform="translate(74.000000, 19.000000) scale(-1, 1) translate(-74.000000, -19.000000) "></path>
                    <polygon id="路径" fill="#E1AA6C" opacity="0.2" transform="translate(76.000000, 127.000000) scale(-1, 1) translate(-76.000000, -127.000000) " points="72.7997367 166 80 117.753068 75.1996051 88 76.7997367 120.36178 72 166"></polygon>
                </g>
                <polygon id="路径" fill="#BC8D58" points="499.260034 371 0 371 0 370 500 370"></polygon>
            </g>
        </g>
    </g>
</svg>