<?xml version="1.0" encoding="UTF-8"?>
<svg width="40px" height="40px" viewBox="0 0 40 40" version="1.1" xmlns="http://www.w3.org/2000/svg" xmlns:xlink="http://www.w3.org/1999/xlink">
    <title>手机号</title>
    <g id="H5-员工" stroke="none" stroke-width="1" fill="none" fill-rule="evenodd">
        <g id="账号密码登录" transform="translate(-96.000000, -587.000000)">
            <g id="手机号" transform="translate(96.000000, 587.000000)">
                <g id="编组-2" transform="translate(7.000000, 1.000000)" fill="#E1AA6C" fill-rule="nonzero">
                    <path d="M22.4549,3.80921678e-06 L3.5451,3.80921678e-06 C2.60625984,-0.00137249952 1.70532398,0.370257213 1.04048854,1.03314227 C0.375653108,1.69602733 0.00137811326,2.59586748 0,3.53470764 L0,34.1640076 C0.00103357958,35.1030732 0.375156553,36.0032473 1.04002937,36.6664134 C1.70490219,37.3295796 2.60603489,37.7013877 3.5451,37.7000115 L22.4549,37.7000115 C23.3937402,37.7013878 24.294676,37.3297581 24.9595115,36.666873 C25.6243469,36.003988 25.9986219,35.1041478 26,34.1653076 L26,3.53600764 C25.9989664,2.59694208 25.6248434,1.69676799 24.9599706,1.03360185 C24.2950978,0.370435707 23.3939651,-0.00137238731 22.4549,3.80921678e-06 L22.4549,3.80921678e-06 Z M23.4,33.9391076 C23.3985874,34.577643 22.8828225,35.0957285 22.2443,35.1000009 L3.757,35.1000009 C3.44937224,35.1007083 3.15421802,34.9784572 2.9371806,34.7604432 C2.72014318,34.5424292 2.59921829,34.2467292 2.60127356,33.9391076 L2.60127356,3.76090764 C2.60026412,3.45382702 2.72134773,3.15893098 2.9378773,2.94118221 C3.15440687,2.72343344 3.4486184,2.60069597 3.7557,2.60000094 L7.2228,2.60000094 C7.254,3.77780764 8.2108,4.71900764 9.3834,4.72420764 L16.6049,4.72420764 C17.780923,4.71613389 18.7380408,3.77570665 18.7668,2.60000094 L22.2326,2.60000094 C22.5404528,2.59895936 22.8359425,2.72105717 23.053262,2.93910918 C23.2705815,3.15716118 23.3916842,3.45306014 23.3896,3.76090764 L23.4,33.9391076 Z" id="形状"></path>
                    <polygon id="路径" points="7.8 29.9000076 18.2 29.9000076 18.2 32.5000076 7.8 32.5000076"></polygon>
                </g>
                <rect id="矩形" x="0" y="0" width="40" height="40"></rect>
            </g>
        </g>
    </g>
</svg>