<?xml version="1.0" encoding="UTF-8"?>
<svg width="29px" height="29px" viewBox="0 0 29 29" version="1.1" xmlns="http://www.w3.org/2000/svg" xmlns:xlink="http://www.w3.org/1999/xlink">
    <title>附件</title>
    <g id="员工端-审批" stroke="none" stroke-width="1" fill="none" fill-rule="evenodd">
        <g id="审批记录备份" transform="translate(-88.000000, -2364.000000)" fill-rule="nonzero">
            <g id="编组-2备份" transform="translate(88.000000, 2356.000000)">
                <g id="附件" transform="translate(0.000000, 8.000000)">
                    <rect id="矩形" fill="#000000" opacity="0" x="0" y="0" width="28.8" height="28.8"></rect>
                    <path d="M16.7341989,9.58617708 L10.1159589,16.2044171 C9.38825176,16.9323814 9.10418699,17.9932754 9.37076905,18.9874705 C9.63735112,19.9816655 10.4140799,20.7581198 11.4083691,21.0243505 C12.4026583,21.2905812 13.4634518,21.0061415 14.1911589,20.2781771 L23.8636389,10.6042571 C25.8319817,8.63591423 25.8319817,5.44459996 23.8636389,3.47625714 C21.895296,1.50791431 18.7039818,1.50791428 16.7356389,3.47625708 L6.04507891,14.1682571 C3.29380467,16.9897634 3.32205753,21.4988644 6.10847202,24.285673 C8.89488651,27.0724817 13.4039835,27.1013722 16.2258789,24.3504971 L24.8817189,15.6960971 C25.1545789,15.4135843 25.1506766,14.964516 24.8729483,14.6867877 C24.59522,14.4090594 24.1461517,14.4051571 23.8636389,14.6780171 L15.2092389,23.3324171 C12.959761,25.581895 9.31263679,25.581895 7.06315891,23.3324171 C4.81368104,21.0829392 4.81368104,17.435815 7.06315891,15.1863371 L17.7551589,4.49577708 C18.659027,3.55993338 19.9975193,3.18461173 21.2561853,3.51406732 C22.5148512,3.84352291 23.4978131,4.82648476 23.8272687,6.08515072 C24.1567243,7.34381667 23.7814026,8.68230899 22.8455589,9.58617708 L13.1730789,19.2600971 C12.6104112,19.8227648 11.6981466,19.8227648 11.1354789,19.2600971 C10.5728112,18.6974294 10.5728112,17.7851648 11.1354789,17.2224971 L17.7551589,10.6042571 C17.9370214,10.4221374 18.0079095,10.1568294 17.9411205,9.90827197 C17.8743314,9.6597146 17.680012,9.46566964 17.4313605,9.39923197 C17.182709,9.3327943 16.9175014,9.40405738 16.7356389,9.58617708 L16.7341989,9.58617708 Z" id="路径" fill="#6A98FF"></path>
                </g>
            </g>
        </g>
    </g>
</svg>