<?xml version="1.0" encoding="UTF-8"?>
<svg width="15px" height="28px" viewBox="0 0 15 28" version="1.1" xmlns="http://www.w3.org/2000/svg" xmlns:xlink="http://www.w3.org/1999/xlink">
    <title>路径</title>
    <g id="打卡" stroke="none" stroke-width="1" fill="none" fill-rule="evenodd">
        <g id="矩形" transform="translate(-703.000000, -40.000000)" fill="#C7C7C7" fill-rule="nonzero">
            <path d="M715.909705,67.9308136 L703.047991,54.6377745 C702.984003,54.5716399 702.984003,54.4393709 703.047991,54.3732364 L715.888375,40.0661345 C715.952364,39.9779552 716.080341,39.9779552 716.14433,40.0661345 L717.936011,41.7856321 C718.02133,41.8517666 718.02133,41.9840357 717.936011,42.0501702 L706.929968,54.3071018 C706.865979,54.3732364 706.865979,54.5055054 706.929968,54.5716399 L717.893352,65.9026882 C717.957341,65.9688228 717.957341,66.1010918 717.893352,66.1672263 L716.165659,67.9528585 C716.101671,68.018993 715.995023,68.018993 715.909705,67.9308136 L715.909705,67.9308136 Z" id="路径" transform="translate(710.500000, 54.000000) scale(-1, 1) translate(-710.500000, -54.000000) "></path>
        </g>
    </g>
</svg>