<?xml version="1.0" encoding="UTF-8"?>
<svg width="15px" height="28px" viewBox="0 0 15 28" version="1.1" xmlns="http://www.w3.org/2000/svg" xmlns:xlink="http://www.w3.org/1999/xlink">
    <title>路径</title>
    <g id="员工端-我的待办" stroke="none" stroke-width="1" fill="none" fill-rule="evenodd">
        <g id="智能门禁巡检计划" transform="translate(-32.000000, -148.000000)" fill="#333333" fill-rule="nonzero">
            <path d="M44.9097049,175.930814 L32.0479915,162.637774 C31.9840028,162.57164 31.9840028,162.439371 32.0479915,162.373236 L44.8883754,148.066135 C44.952364,147.977955 45.0803413,147.977955 45.1443299,148.066135 L46.9360114,149.785632 C47.0213295,149.851767 47.0213295,149.984036 46.9360114,150.05017 L35.929968,162.307102 C35.8659794,162.373236 35.8659794,162.505505 35.929968,162.57164 L46.8933523,173.902688 C46.9573409,173.968823 46.9573409,174.101092 46.8933523,174.167226 L45.1656594,175.952858 C45.1016708,176.018993 44.9950231,176.018993 44.9097049,175.930814 L44.9097049,175.930814 Z" id="路径" transform="translate(39.500000, 162.000000) scale(-1, 1) rotate(-180.000000) translate(-39.500000, -162.000000) "></path>
        </g>
    </g>
</svg>