<?xml version="1.0" standalone="no"?><!DOCTYPE svg PUBLIC "-//W3C//DTD SVG 1.1//EN" "http://www.w3.org/Graphics/SVG/1.1/DTD/svg11.dtd"><svg t="1576831247373" class="icon" viewBox="0 0 1024 1024" version="1.1" xmlns="http://www.w3.org/2000/svg" p-id="18378" xmlns:xlink="http://www.w3.org/1999/xlink" width="200" height="200"><defs><style type="text/css"></style></defs><path d="M512 511.001949m-511.001949 0a511.001949 511.001949 0 1 0 1022.003898 0 511.001949 511.001949 0 1 0-1022.003898 0Z" fill="#2F82F8" p-id="18379"></path><path d="M382.253411 412.693957h69.863548c9.381676 0 16.966862-7.585185 16.966862-16.966861s-7.585185-16.966862-16.966862-16.966862h-69.863548c-9.381676 0-16.966862 7.585185-16.966861 16.966862s7.585185 16.966862 16.966861 16.966861zM382.253411 527.469786h69.863548c9.381676 0 16.966862-7.585185 16.966862-16.966862s-7.585185-16.966862-16.966862-16.966862h-69.863548c-9.381676 0-16.966862 7.585185-16.966861 16.966862s7.585185 16.966862 16.966861 16.966862zM382.253411 642.245614h69.863548c9.381676 0 16.966862-7.585185 16.966862-16.966862s-7.585185-16.966862-16.966862-16.966861h-69.863548c-9.381676 0-16.966862 7.585185-16.966861 16.966861s7.585185 16.966862 16.966861 16.966862zM601.824561 527.469786h69.863548c9.381676 0 16.966862-7.585185 16.966862-16.966862s-7.585185-16.966862-16.966862-16.966862h-69.863548c-9.381676 0-16.966862 7.585185-16.966861 16.966862s7.585185 16.966862 16.966861 16.966862zM601.824561 642.245614h69.863548c9.381676 0 16.966862-7.585185 16.966862-16.966862s-7.585185-16.966862-16.966862-16.966861h-69.863548c-9.381676 0-16.966862 7.585185-16.966861 16.966861s7.585185 16.966862 16.966861 16.966862z" fill="#FFFFFF" p-id="18380"></path><path d="M801.434698 724.08577h-34.931774V435.150097c0-22.05692-17.865107-39.922027-39.922027-39.922027H546.931774V289.434698c0-22.05692-17.865107-39.922027-39.922027-39.922027H327.360624c-22.05692 0-39.922027 17.865107-39.922028 39.922027v434.651072h-64.873294c-10.978558 0-19.961014 8.982456-19.961014 19.961014s8.982456 19.961014 19.961014 19.961013h578.869396c10.978558 0 19.961014-8.982456 19.961014-19.961013s-8.982456-19.961014-19.961014-19.961014zM507.009747 435.150097v288.436648H327.360624V289.434698h179.649123v145.715399z m219.57115 288.436648H546.931774V435.150097h179.649123v288.436648z" fill="#FFFFFF" p-id="18381"></path></svg>