<?xml version="1.0" encoding="UTF-8"?>
<svg width="16px" height="29px" viewBox="0 0 16 29" version="1.1" xmlns="http://www.w3.org/2000/svg" xmlns:xlink="http://www.w3.org/1999/xlink">
    <title>left</title>
    <defs>
        <filter id="filter-1">
            <feColorMatrix in="SourceGraphic" type="matrix" values="0 0 0 0 0.882353 0 0 0 0 0.666667 0 0 0 0 0.423529 0 0 0 1.000000 0"></feColorMatrix>
        </filter>
    </defs>
    <g id="考勤统计-查看日/周/月" stroke="none" stroke-width="1" fill="none" fill-rule="evenodd">
        <g id="情展开样式-只展开一个" transform="translate(-694.000000, -148.000000)">
            <g id="箭头" transform="translate(438.000000, 142.000000)" filter="url(#filter-1)">
                <g transform="translate(264.000000, 20.000000) scale(-1, 1) translate(-264.000000, -20.000000) translate(248.000000, 4.000000)">
                    <g id="left" transform="translate(8.000000, 2.181818)" fill="#1677FF" fill-rule="nonzero">
                        <path d="M15.0519018,2.49071851 L3.2136693,13.1287621 C2.83288761,13.47095 2.80160632,14.056982 3.14376297,14.4377637 L3.14376292,14.4377636 C3.16580632,14.4622814 3.18914141,14.4856062 3.21366925,14.5076387 L15.0519018,25.1457136 C15.5269023,25.5725266 15.5659024,26.3035899 15.1390894,26.7785592 C14.7122764,27.2535598 13.981213,27.2925598 13.5062125,26.8657468 L1.66797995,16.2277032 L1.66797968,16.2277029 C1.5822652,16.1506791 1.50072198,16.0691359 1.42369814,15.9834214 C0.22788425,14.6527011 0.337259377,12.6045425 1.66797968,11.4087286 L13.5062122,0.770684952 C13.9812128,0.343840705 14.7122761,0.382872 15.1390891,0.857872553 C15.5659021,1.33284186 15.5269021,2.06390521 15.0519015,2.4907182 L15.0519018,2.49071851 Z" id="路径"></path>
                    </g>
                </g>
            </g>
        </g>
    </g>
</svg>