<?xml version="1.0" encoding="UTF-8"?>
<svg width="16px" height="28px" viewBox="0 0 16 28" version="1.1" xmlns="http://www.w3.org/2000/svg" xmlns:xlink="http://www.w3.org/1999/xlink">
    <title>left</title>
    <defs>
        <filter id="filter-1">
            <feColorMatrix in="SourceGraphic" type="matrix" values="0 0 0 0 0.882353 0 0 0 0 0.666667 0 0 0 0 0.423529 0 0 0 1.000000 0"></feColorMatrix>
        </filter>
    </defs>
    <g id="考勤统计-查看日/周/月" stroke="none" stroke-width="1" fill="none" fill-rule="evenodd">
        <g id="情展开样式-只展开一个" transform="translate(-446.000000, -148.000000)">
            <g id="箭头" transform="translate(438.000000, 142.000000)" filter="url(#filter-1)">
                <g transform="translate(0.000000, 4.000000)">
                    <g id="left" transform="translate(8.727273, 2.909091)" fill="#1677FF" fill-rule="nonzero">
                        <path d="M14.1696769,1.97807717 L2.56764465,12.4145268 C2.19446044,12.7502301 2.16380328,13.3251566 2.49913311,13.6987224 L2.49913306,13.6987223 C2.52073665,13.7227755 2.54360615,13.7456582 2.5676446,13.7672733 L14.1696769,24.2037535 C14.6352001,24.6224783 14.673422,25.3396878 14.2551249,25.8056563 C13.8368278,26.2716555 13.1203509,26.3099164 12.6548277,25.8911917 L1.0527954,15.454742 L1.05279513,15.4547418 C0.968790856,15.3791776 0.888874613,15.2991796 0.813387578,15.2150895 C-0.358567047,13.9095867 -0.251374208,11.9002413 1.05279513,10.7270884 L12.6548274,0.29063875 C13.1203506,-0.128116675 13.8368275,-0.0898250339 14.2551246,0.376174121 C14.6734217,0.842142619 14.6351998,1.55935211 14.1696766,1.97807688 L14.1696769,1.97807717 Z" id="路径"></path>
                    </g>
                </g>
            </g>
        </g>
    </g>
</svg>