<?xml version="1.0" encoding="UTF-8"?>
<svg width="54px" height="54px" viewBox="0 0 54 54" version="1.1" xmlns="http://www.w3.org/2000/svg" xmlns:xlink="http://www.w3.org/1999/xlink">
    <title>呼叫中心0@2x</title>
    <g id="员工端-管家管理" stroke="none" stroke-width="1" fill="none" fill-rule="evenodd">
        <g id="客户详情" transform="translate(-370.000000, -221.000000)" fill-rule="nonzero">
            <g id="呼叫中心0" transform="translate(370.000000, 221.000000)">
                <rect id="矩形" fill="#000000" opacity="0" x="0" y="0" width="54" height="54"></rect>
                <path d="M0,27 C0,41.9116882 12.0883118,54 27,54 C41.9116882,54 54,41.9116882 54,27 C54,12.0883118 41.9116882,0 27,0 C12.0883118,0 0,12.0883118 0,27 Z" id="路径" fill="#FAF7F4"></path>
                <path d="M11.7148069,20.636515 C11.8707414,31.9567083 20.9759607,41.1051781 32.2656189,41.2726527 L35.1537972,38.3738445 L30.1598251,33.3496067 L26.5746874,36.9646071 L16.0050398,26.3510749 L16.9677659,25.3884364 L19.605093,22.751052 L14.6016292,17.7377068 L11.713451,20.636515 L11.7148069,20.636515 Z M14.233717,17.3696286 C14.2452242,17.3813112 14.2567951,17.3929302 14.2684294,17.4044851 L14.233717,17.3696286 L14.233717,17.3696286 Z M32.1663209,41.6595718 L32.2617799,41.5637164 C32.2293505,41.59505 32.1975249,41.6270078 32.1663209,41.6595718 Z M11.8500886,20.4521143 L11.8587667,20.5131131 L11.8587667,20.4521143 L11.8500886,20.4521143 Z M9.59545358,18.9154753 L13.1710996,15.3236218 C13.5484992,14.9414314 14.0620734,14.7261069 14.5980715,14.7253382 C15.1340696,14.7245735 15.6482526,14.9384279 16.026735,15.3195371 L22.0308915,21.3363682 C22.7929366,22.1260858 22.7929366,23.3801029 22.0146201,24.187521 L19.8450965,26.3565213 L26.5706196,33.1099683 L28.7672622,30.8973974 C29.1440461,30.5422363 29.6416872,30.3449835 30.1584692,30.3459567 C30.6832227,30.3432335 31.1889929,30.5461093 31.5862869,30.931437 L37.5579005,36.9400986 C37.9383309,37.3192465 38.1525208,37.8350549 38.1530308,38.3732783 C38.1535389,38.9115017 37.940325,39.4277176 37.5606124,39.8075904 L33.9985259,43.3844665 C33.6197329,43.7811852 33.0949742,44.0037793 32.547657,43.9999514 C19.5494989,43.9903705 9.01239412,33.4136011 9.00009358,20.362837 C8.99476674,19.8100347 9.21714291,19.2803793 9.59545358,18.9141137 L9.59545358,18.9154753 Z M9.14326183,20.4454425 L9.14326183,20.5674403 C9.14307002,20.5267746 9.14307002,20.4861082 9.14326183,20.4454425 L9.14326183,20.4454425 Z M34.7632829,25.1338206 L32.9246117,26.9787643 L26.6275696,20.6555772 L28.4648848,18.8092719 L34.7632829,25.1338206 Z M42,22.868148 L40.1613288,24.7144533 L29.339474,13.8463053 L31.1767893,12 L42,22.868148 Z" id="形状" fill="#E1AA6C"></path>
            </g>
        </g>
    </g>
</svg>