<?xml version="1.0" encoding="UTF-8"?>
<svg width="53px" height="42px" viewBox="0 0 53 42" version="1.1" xmlns="http://www.w3.org/2000/svg" xmlns:xlink="http://www.w3.org/1999/xlink">
    <title>形状结合</title>
    <g id="移动端" stroke="none" stroke-width="1" fill="none" fill-rule="evenodd" opacity="0.400000006">
        <g id="拍照" transform="translate(-261.000000, -556.000000)" fill="#E1AA6C" fill-rule="nonzero">
            <g id="编组" transform="translate(207.000000, 516.000000)">
                <path d="M87.4130708,40 C88.0491667,40 89.7174897,40.4700407 89.7174897,41.049961 L92.5979576,45.2499406 L102.391459,45.2499406 C104.936808,45.2499406 107,47.1303069 107,49.4499203 L107,77.8000204 C107,80.1196338 104.936808,82 102.391459,82 L58.6088377,82 C56.0634893,82 54,80.1196338 54,77.8000204 L54,49.4499203 C54,47.1303068 56.0634892,45.2499406 58.6088376,45.2499406 L68.402265,45.2499406 L71.2825102,41.049961 C71.2825102,40.4700407 72.9507589,40 73.587226,40 L87.4130708,40 Z M80.5,52 C74.7010101,52 70,56.7010101 70,62.5 C70,68.2989899 74.7010101,73 80.5,73 C86.2989899,73 91,68.2989899 91,62.5 C91,56.7010101 86.2989899,52 80.5,52 Z" id="形状结合"></path>
            </g>
        </g>
    </g>
</svg>