<?xml version="1.0" standalone="no"?><!DOCTYPE svg PUBLIC "-//W3C//DTD SVG 1.1//EN" "http://www.w3.org/Graphics/SVG/1.1/DTD/svg11.dtd"><svg t="1576831138766" class="icon" viewBox="0 0 1024 1024" version="1.1" xmlns="http://www.w3.org/2000/svg" p-id="11163" xmlns:xlink="http://www.w3.org/1999/xlink" width="200" height="200"><defs><style type="text/css"></style></defs><path d="M512 978.285714C254.482286 978.285714 45.714286 769.517714 45.714286 512S254.482286 45.714286 512 45.714286 978.285714 254.482286 978.285714 512 769.517714 978.285714 512 978.285714z m0-54.857143c227.218286 0 411.428571-184.210286 411.428571-411.428571S739.218286 100.571429 512 100.571429 100.571429 284.781714 100.571429 512 284.781714 923.428571 512 923.428571z" fill="#FD913A" p-id="11164"></path><path d="M395.337143 609.645714A191.689143 191.689143 0 0 1 320 457.142857v-73.142857c0-106.038857 85.961143-192 192-192S704 277.961143 704 384v73.142857c0 62.171429-29.531429 117.412571-75.337143 152.502857a447.798857 447.798857 0 0 1 243.346286 165.961143l12.836571 17.28-13.750857 16.566857A465.298286 465.298286 0 0 1 512 978.285714a465.298286 465.298286 0 0 1-359.094857-168.832l-13.750857-16.566857 12.836571-17.28A447.798857 447.798857 0 0 1 395.337143 609.645714z m39.314286-139.428571a80.475429 80.475429 0 0 0 154.989714-1.078857 25.6 25.6 0 0 0-49.408-13.421715 29.275429 29.275429 0 0 1-56.356572 0.365715 25.6 25.6 0 1 0-49.225142 14.134857z" fill="#FD913A" p-id="11165"></path></svg>