<?xml version="1.0" encoding="UTF-8"?>
<svg width="42px" height="42px" viewBox="0 0 42 42" version="1.1" xmlns="http://www.w3.org/2000/svg" xmlns:xlink="http://www.w3.org/1999/xlink">
    <title>icon/消息/选中</title>
    <g id="首页" stroke="none" stroke-width="1" fill="none" fill-rule="evenodd">
        <g id="画板" transform="translate(-358.000000, -22.000000)">
            <g id="编组-23备份-9" transform="translate(4.000000, 6.000000)">
                <g id="编组-18" transform="translate(261.000000, 16.000000)">
                    <g id="icon/消息/选中" transform="translate(93.000000, 0.000000)">
                        <polygon id="矩形备份-16" points="0 0 42 0 42 42 0 42"></polygon>
                        <path d="M6.3,2.1 L35.7,2.1 C39.1793939,2.1 42,4.92060608 42,8.4 L42,27.3 C42,30.7793939 39.1793939,33.6 35.7,33.6 L6.3,33.6 C2.82060608,33.6 0,30.7793939 0,27.3 L0,8.4 C0,4.92060608 2.82060608,2.1 6.3,2.1 Z" id="矩形" fill="#EAA454"></path>
                        <polygon id="矩形" fill="#EAA454" points="21 33.6 31.5 33.6 31.5 39.9"></polygon>
                        <circle id="椭圆形" fill="#FFFFFF" cx="12.39" cy="17.85" r="2.73"></circle>
                        <circle id="椭圆形备份" fill="#FFFFFF" cx="21" cy="17.85" r="2.73"></circle>
                        <circle id="椭圆形备份-2" fill="#FFFFFF" cx="29.61" cy="17.85" r="2.73"></circle>
                    </g>
                </g>
            </g>
        </g>
    </g>
</svg>