<?xml version="1.0" encoding="UTF-8"?>
<svg width="42px" height="42px" viewBox="0 0 42 42" version="1.1" xmlns="http://www.w3.org/2000/svg" xmlns:xlink="http://www.w3.org/1999/xlink">
    <title>icon/消息/未选中</title>
    <g id="首页" stroke="none" stroke-width="1" fill="none" fill-rule="evenodd">
        <g id="a" transform="translate(-358.000000, -22.000000)">
            <g id="编组-23备份-8" transform="translate(4.000000, 6.000000)">
                <g id="icon/消息/未选中" transform="translate(354.000000, 16.000000)">
                    <rect id="矩形备份-16" x="0" y="0" width="42" height="42"></rect>
                    <g id="icon/消息" transform="translate(0.000000, 2.100000)">
                        <path d="M35.7,1.5 C37.0254834,1.5 38.2254834,2.0372583 39.0941125,2.90588745 C39.9627417,3.7745166 40.5,4.9745166 40.5,6.3 L40.5,6.3 L40.5,25.2 C40.5,26.5254834 39.9627417,27.7254834 39.0941125,28.5941125 C38.2254834,29.4627417 37.0254834,30 35.7,30 L35.7,30 L30,30 L30,35.1507144 L21.4154759,30 L6.3,30 C4.9745166,30 3.7745166,29.4627417 2.90588745,28.5941125 C2.0372583,27.7254834 1.5,26.5254834 1.5,25.2 L1.5,25.2 L1.5,6.3 C1.5,4.9745166 2.0372583,3.7745166 2.90588745,2.90588745 C3.7745166,2.0372583 4.9745166,1.5 6.3,1.5 L6.3,1.5 L35.7,1.5 Z" id="形状结合" stroke="#999999" stroke-width="3"></path>
                        <circle id="椭圆形" fill="#999999" cx="11.39" cy="15.75" r="2.73"></circle>
                        <circle id="椭圆形备份" fill="#999999" cx="21" cy="15.75" r="2.73"></circle>
                        <circle id="椭圆形备份-2" fill="#999999" cx="30.61" cy="15.75" r="2.73"></circle>
                    </g>
                </g>
            </g>
        </g>
    </g>
</svg>