<?xml version="1.0" encoding="UTF-8"?>
<svg width="40px" height="47px" viewBox="0 0 40 47" version="1.1" xmlns="http://www.w3.org/2000/svg" xmlns:xlink="http://www.w3.org/1999/xlink">
    <title>编组@2x</title>
    <g id="员工端-管家管理" stroke="none" stroke-width="1" fill="none" fill-rule="evenodd">
        <g id="工作台tab" transform="translate(-134.000000, -235.000000)" fill-rule="nonzero">
            <g id="编组" transform="translate(134.000000, 235.000000)">
                <path d="M16.2576117,1.81174931 C16.3712459,1.79289939 21.1758918,0.81308961 26.2253455,2.4185841 C26.480749,2.50503265 31.1573956,4.12994187 34.6184503,8.34373451 C36.3798575,10.4882267 37.8213204,13.3133372 38.1852707,16.9624256 C38.2236362,17.1812779 39.1589852,20.9965013 37.5895731,25.6094305 C36.7915234,27.9551158 35.3446421,30.5017982 32.8153799,32.8740422 C32.7907989,32.8976275 24.0776777,41.8440847 20.8911637,45.5 L20.8911637,45.5 L20.2586398,45.5 C18.0388223,43.3448167 8.04226975,33.643071 6.28397901,32.0026471 C5.67749167,31.2597702 0.259337918,24.3492001 1.75605455,16.3176018 C1.86196572,15.8734744 3.2497681,10.3259998 7.43497476,6.16489305 C9.56361876,4.04850652 12.4331592,2.2961205 16.2576117,1.81174931 Z" id="路径" stroke="#999999" stroke-width="3"></path>
                <path d="M17.6607221,10.4304658 L17.6607221,20.8029909 C17.6607221,20.8029909 18.3236158,22.5320111 19.650199,22.5320111 L26.8123159,22.5320111 C26.8123159,22.5320111 30.459425,20.7367663 26.8123159,18.875297 L21.9715207,18.8090724 C21.9715207,18.8090724 20.8438852,19.4737119 20.8438852,17.6122426 L20.9099358,10.4312637 C20.9099358,10.4304658 19.3852007,8.16925531 17.6607221,10.4304658 L17.6607221,10.4304658 Z" id="路径" fill="#999999"></path>
            </g>
        </g>
    </g>
</svg>