<?xml version="1.0" encoding="UTF-8"?>
<svg width="32px" height="32px" viewBox="0 0 32 32" version="1.1" xmlns="http://www.w3.org/2000/svg" xmlns:xlink="http://www.w3.org/1999/xlink">
    <title>编组 8</title>
    <g id="全部" stroke="none" stroke-width="1" fill="none" fill-rule="evenodd">
        <g id="填写问卷" transform="translate(-67.000000, -1019.000000)">
            <g id="编组-8" transform="translate(67.000000, 1019.000000)">
                <rect id="矩形" fill="#E1AA6C" x="0" y="0" width="32" height="32" rx="8"></rect>
                <path d="M23.7052242,10.4107868 L23.6915866,10.3971493 C23.2123236,9.92567917 22.4427753,9.93152385 21.9713052,10.4107868 L13.9777439,18.5329309 L13.969951,18.5407238 C13.6757693,18.8290609 13.2042992,18.8251644 12.9159621,18.5329309 L10.0286948,15.6008544 L10.0150572,15.5872169 C9.53579421,15.1157468 8.7662459,15.1215914 8.2947758,15.6008544 C7.81356458,16.0898585 7.81356458,16.8730444 8.2947758,17.3620485 L12.3821488,21.5078683 L12.3977346,21.5234541 C12.9841499,22.1020765 13.9290384,22.0942836 14.5076607,21.5078683 L23.7052242,12.1739292 C24.1864354,11.6829768 24.1864354,10.899791 23.7052242,10.4107868 Z" id="Path" fill="#FFFFFF" fill-rule="nonzero"></path>
            </g>
        </g>
    </g>
</svg>