<?xml version="1.0" encoding="UTF-8"?>
<svg width="25px" height="25px" viewBox="0 0 25 25" version="1.1" xmlns="http://www.w3.org/2000/svg" xmlns:xlink="http://www.w3.org/1999/xlink">
    <!-- Generator: Sketch 63.1 (92452) - https://sketch.com -->
    <title>对好</title>
    <desc>Created with Sketch.</desc>
    <g id="打卡" stroke="none" stroke-width="1" fill="none" fill-rule="evenodd">
        <g id="考勤打卡-下班打卡" transform="translate(-60.000000, -414.000000)" fill="#64CCA8" fill-rule="nonzero">
            <g id="对好" transform="translate(60.500000, 414.522795)">
                <path d="M12.000014,0 C5.38800627,0 0,5.38800627 0,12.000014 C0,18.6120217 5.38800627,24.0000279 12.000014,24.0000279 C18.6120217,24.0000279 24.0000279,18.6120217 24.0000279,12.000014 C24.0000279,5.38800627 18.6120217,0 12.000014,0 Z M19.1640223,8.80801025 L10.9680128,17.0040198 L10.9680128,17.0040198 C10.4809974,17.5010758 9.68325193,17.509218 9.18619354,17.0222035 C9.1800706,17.0162043 9.17400905,17.0101428 9.16800981,17.0040198 L4.82400476,12.6600148 L4.82400475,12.6600148 C4.32694871,12.1729994 4.31880651,11.3752539 4.80582105,10.8781955 C4.81182029,10.8720726 4.81788184,10.866011 4.82400478,10.8600118 L4.8240047,10.8600119 C5.30584042,10.3694808 6.09410071,10.3624308 6.58463175,10.8442672 C6.5939008,10.853372 6.60302679,10.8626213 6.61200631,10.8720117 L10.0440103,14.3040156 L17.3520188,6.99600715 L17.3520188,6.99600715 C17.8390342,6.49895111 18.6367797,6.49080891 19.1338381,6.97782343 C19.139961,6.98382266 19.1460226,6.98988422 19.1520218,6.99600715 L19.1520218,6.99600718 C19.6534091,7.4940312 19.6587693,8.30338761 19.1640218,8.80800929 L19.1640223,8.80801025 Z" id="形状"></path>
            </g>
        </g>
    </g>
</svg>
