<?xml version="1.0" encoding="UTF-8"?>
<svg width="32px" height="32px" viewBox="0 0 32 32" version="1.1" xmlns="http://www.w3.org/2000/svg" xmlns:xlink="http://www.w3.org/1999/xlink">
    <title>编组 9</title>
    <g id="全部" stroke="none" stroke-width="1" fill="none" fill-rule="evenodd">
        <g id="填写问卷" transform="translate(-67.000000, -1115.000000)">
            <g id="编组-10" transform="translate(67.000000, 1111.000000)">
                <g id="编组-9" transform="translate(0.000000, 4.000000)">
                    <rect id="矩形备份-3" fill="#EDEDED" x="0" y="0" width="32" height="32" rx="8"></rect>
                    <path d="M24.6683772,9.7121352 L24.653035,9.69679294 C24.1138641,9.16638907 23.2481222,9.17296433 22.7177184,9.7121352 L13.7249619,18.8495472 L13.7161949,18.8583143 C13.3852404,19.1826935 12.8548366,19.17831 12.5304574,18.8495472 L9.28228162,15.5509612 L9.26693936,15.535619 C8.72776849,15.0052151 7.86202664,15.0117904 7.33162277,15.5509612 C6.79026015,16.1010909 6.79026015,16.982175 7.33162277,17.5323046 L11.9299174,22.1963518 L11.9474515,22.2138858 C12.6071687,22.864836 13.6701681,22.856069 14.3211183,22.1963518 L24.6683772,11.6956703 C25.2097398,11.1433489 25.2097398,10.2622648 24.6683772,9.7121352 Z" id="Path" fill="#FFFFFF" fill-rule="nonzero"></path>
                </g>
            </g>
        </g>
    </g>
</svg>