<?xml version="1.0" encoding="UTF-8"?>
<svg width="40px" height="47px" viewBox="0 0 40 47" version="1.1" xmlns="http://www.w3.org/2000/svg" xmlns:xlink="http://www.w3.org/1999/xlink">
    <title>形状@2x</title>
    <g id="员工端-管家管理" stroke="none" stroke-width="1" fill="none" fill-rule="evenodd">
        <g id="工作台tab" transform="translate(-134.000000, -69.000000)" fill="#E1AA6C" fill-rule="nonzero">
            <path d="M173.677865,85.8135582 C172.484179,73.8452599 160.680215,69.9890743 160.680215,69.9890743 C155.241781,68.2600541 150.069141,69.3236369 150.069141,69.3236369 C137.469385,70.91941 134.286222,85.0156716 134.286222,85.0156716 C132.561744,94.191367 139.193068,102.036985 139.193068,102.036985 C140.917547,103.632758 153.650199,116 153.650199,116 L155.241781,116 C155.241781,115.335361 167.841536,102.968119 167.841536,102.968119 C176.065238,95.2549497 173.677865,85.8135582 173.677865,85.8135582 Z M154.192928,102.956151 C146.211943,102.956151 139.742164,96.469333 139.742164,88.4673288 C139.742164,80.4653246 146.211943,73.978507 154.192928,73.978507 C162.173914,73.978507 168.643693,80.4653246 168.643693,88.4673288 C168.643693,96.4685352 162.173914,102.956151 154.192928,102.956151 Z M151.660722,79.4304658 L151.660722,89.8029909 C151.660722,89.8029909 152.323616,91.5320111 153.650199,91.5320111 L160.812316,91.5320111 C160.812316,91.5320111 164.459425,89.7367663 160.812316,87.875297 L155.971521,87.8090724 C155.971521,87.8090724 154.843885,88.4737119 154.843885,86.6122426 L154.909936,79.4312637 C154.909936,79.4304658 153.385201,77.1692553 151.660722,79.4304658 L151.660722,79.4304658 Z" id="形状"></path>
        </g>
    </g>
</svg>