<?xml version="1.0" encoding="UTF-8"?>
<svg width="32px" height="32px" viewBox="0 0 32 32" version="1.1" xmlns="http://www.w3.org/2000/svg" xmlns:xlink="http://www.w3.org/1999/xlink">
    <!-- Generator: Sketch 60 (88103) - https://sketch.com -->
    <title>形状</title>
    <desc>Created with Sketch.</desc>
    <g id="社区端" stroke="none" stroke-width="1" fill="none" fill-rule="evenodd">
        <g id="选择小区" transform="translate(-686.000000, -563.000000)" fill="#e1aa6c" fill-rule="nonzero">
            <g id="选择小区备份-6" transform="translate(0.000000, 504.000000)">
                <g id="选择" transform="translate(686.000000, 59.000000)">
                    <g id="已选" transform="translate(0.000000, 0.000000)">
                        <path d="M16,0 C7.16444444,0 1.77635684e-15,7.16444444 1.77635684e-15,16 C1.77635684e-15,24.8355556 7.16444444,32 16,32 C24.8355556,32 32,24.8355556 32,16 C32,7.16444444 24.8355556,0 16,0 M25.9876866,12.2477735 L14.6455519,23.0792921 C14.5015248,23.2220469 14.3214909,23.3469573 14.141457,23.436179 C13.4213215,23.9358207 12.4311351,23.8822877 11.8010165,23.2398912 L6.94010165,18.4040732 C6.21996612,17.6902993 6.21996612,16.5661055 6.94010165,15.8523316 C7.66023719,15.1385577 8.79445066,15.1385577 9.5145862,15.8523316 L13.169274,19.474734 L23.4132021,9.67818755 C24.1333376,8.96441367 25.2675511,8.96441367 25.9876866,9.67818755 C26.6898188,10.3919614 26.6898188,11.551844 25.9876866,12.2477735" id="形状"></path>
                    </g>
                </g>
            </g>
        </g>
    </g>
</svg>