<?xml version="1.0" encoding="UTF-8"?>
<svg width="32px" height="32px" viewBox="0 0 32 32" version="1.1" xmlns="http://www.w3.org/2000/svg" xmlns:xlink="http://www.w3.org/1999/xlink">
    <title>编组 2备份 3</title>
    <g id="全部" stroke="none" stroke-width="1" fill="none" fill-rule="evenodd">
        <g id="邀请入住备份" transform="translate(-586.000000, -776.000000)">
            <g id="编组-2备份-3" transform="translate(586.000000, 776.000000)">
                <circle id="椭圆形" fill="#DCDCDC" opacity="0.5" cx="16" cy="16" r="16"></circle>
                <path d="M25.2427764,8.90880376 L25.2274342,8.8934615 C24.6882633,8.36305764 23.8225214,8.36963289 23.2921176,8.90880376 L14.2993611,18.0462158 L14.2905941,18.0549828 C13.9596396,18.379362 13.4292358,18.3749785 13.1048566,18.0462158 L9.85668081,14.7476298 L9.84133855,14.7322875 C9.30216768,14.2018837 8.43642583,14.2084589 7.90602197,14.7476298 C7.36465934,15.2977594 7.36465934,16.1788435 7.90602197,16.7289732 L12.5043166,21.3930204 L12.5218506,21.4105544 C13.1815679,22.0615046 14.2445673,22.0527376 14.8955175,21.3930204 L25.2427764,10.8923389 C25.784139,10.3400175 25.784139,9.45893339 25.2427764,8.90880376 Z" id="Path" fill="#FFFFFF" fill-rule="nonzero"></path>
            </g>
        </g>
    </g>
</svg>