<?xml version="1.0" encoding="UTF-8"?>
<svg width="30px" height="30px" viewBox="0 0 30 30" version="1.1" xmlns="http://www.w3.org/2000/svg" xmlns:xlink="http://www.w3.org/1999/xlink">
    <title>编组</title>
    <g id="员工端-门禁相关功能" stroke="none" stroke-width="1" fill="none" fill-rule="evenodd">
        <g id="外来人员登记-搜索家庭未输入" transform="translate(-580.000000, -159.000000)">
            <g id="编组" transform="translate(580.000000, 159.000000)">
                <path d="M2.7533531e-13,15.0000175 C2.7533531e-13,23.2800271 6.72000782,30.0000349 15.0000175,30.0000349 C23.2800271,30.0000349 30.0000349,23.2800271 30.0000349,15.0000175 C30.0000349,6.72000782 23.2800271,4.79616347e-14 15.0000175,4.79616347e-14 C6.72000782,4.79616347e-14 2.7533531e-13,6.72000782 2.7533531e-13,15.0000175 Z" id="路径" fill="#CCCCCC" fill-rule="nonzero"></path>
                <path d="M21.2211835,8.66931216 C21.4719046,8.92209294 21.5146142,9.35084342 21.2933944,9.62098792 L21.2491425,9.67004892 L9.67373602,21.3405664 C9.40735471,21.6091161 8.91955582,21.5527388 8.65319429,21.2841692 C8.40247317,21.0314084 8.35976358,20.602638 8.58098345,20.3324935 L8.62521556,20.2834524 L13.9423224,14.9225663 L8.76259807,9.70035072 C8.51187696,9.44758988 8.56704351,8.97653649 8.78826337,8.70637206 L8.83249548,8.65733099 C9.0832166,8.40455022 9.49449414,8.37560403 9.76243751,8.59862126 L9.81107899,8.64323667 L14.9908428,13.8654323 L20.200622,8.61293488 C20.4670033,8.34436527 20.9548022,8.4007625 21.2211835,8.66931216 Z M17.6105226,16.5349209 L21.3725257,20.3278286 C21.638907,20.5963982 21.6232469,21.0476159 21.3375276,21.3356823 C21.0686154,21.6068036 20.6563492,21.6367266 20.3867053,21.4154238 L20.3378859,21.3709679 L18.6476934,19.6668906 L16.5758827,17.5780602 C16.3095212,17.3095105 16.3251814,16.8582729 16.6108809,16.5702264 C16.8797931,16.2991051 17.2920593,16.2691621 17.5617032,16.4904849 L17.6105226,16.5349408 L17.6105226,16.5349209 Z" id="形状" fill="#FFFFFF"></path>
            </g>
        </g>
    </g>
</svg>