<?xml version="1.0" encoding="UTF-8"?>
<svg width="40px" height="40px" viewBox="0 0 40 40" version="1.1" xmlns="http://www.w3.org/2000/svg" xmlns:xlink="http://www.w3.org/1999/xlink">
    <title>编组</title>
    <g id="H5-员工" stroke="none" stroke-width="1" fill="none" fill-rule="evenodd">
        <g id="账号密码登录" transform="translate(-96.000000, -707.000000)">
            <g id="编组" transform="translate(96.000000, 707.000000)">
                <path d="M20.4167161,1 C26.9983761,1 32.3333823,6.33500621 32.3333823,12.9166662 L32.3333823,18.4166726 L32.333382,18.4166726 C35.3709496,18.4166725 37.8333884,20.8791071 37.8333884,23.916679 C37.8333884,23.916679 37.8333884,23.916679 37.8333884,23.916679 L37.8333884,34.0000384 L37.8333884,34.0000384 C37.8333884,37.037606 35.3709496,39.5000448 32.333382,39.5000448 L8.5,39.5000448 L8.5,39.5000448 C5.4624388,39.5000448 3,37.037606 3,34.0000384 C3,34.0000384 3,34.0000384 3,34.0000384 L3,23.916679 L3,23.9166798 C3,20.8791122 5.46243451,18.4166734 8.5,18.4166734 L8.5,12.916667 C8.5,6.33500704 13.8350126,1 20.4166726,1 L20.4167161,1 Z M32.3333823,21.1666754 L8.50000688,21.1666754 L8.50000697,21.1666754 C7.04382871,21.1666754 5.84001481,22.3016752 5.75458854,23.7553441 L5.75000522,23.9166777 L5.75000522,34.0000371 L5.75000522,34.0001899 C5.75000522,35.4563681 6.88515068,36.6601176 8.33882816,36.7454665 L8.50000928,36.7500409 L32.3333847,36.7500409 L32.3333847,36.7500409 C33.7895629,36.7500409 34.9933768,35.6150416 35.0788031,34.1613727 L35.0833864,34.000039 L35.0833864,23.9166796 L35.0833864,23.9165264 C35.0833864,22.4603482 33.948241,21.2565987 32.4945635,21.1712498 L32.3333828,21.1666754 L32.3333823,21.1666754 Z M21.8833701,25.7500288 C22.0850369,25.7500288 22.2500371,25.915029 22.2500371,26.1166958 L22.2500371,30.8833536 L22.2500371,30.8833536 C22.2500371,31.0858583 22.0858748,31.2500288 21.8833701,31.2500288 C21.8833701,31.2500288 21.8833701,31.2500288 21.8833701,31.2500288 L19.8667025,31.2500288 L19.8667025,31.2500288 C19.6641978,31.2500288 19.5000355,31.0858583 19.5000355,30.8833536 L19.5000355,26.1166958 C19.5000355,25.915029 19.6650357,25.7500288 19.8667025,25.7500288 L21.8833701,25.7500288 L21.8833701,25.7500288 Z M20.4167032,3.75000307 C15.4391974,3.75000307 11.389345,7.71642305 11.2536925,12.6600136 L11.2500259,12.9166804 L11.2500259,18.4166868 L29.5833948,18.4166868 L29.5833948,12.9166804 C29.5833948,7.9391746 25.616975,3.88932223 20.6733845,3.75366973 L20.4167176,3.75000307 L20.4167032,3.75000307 Z" id="形状" fill="#E1AA6C" fill-rule="nonzero"></path>
                <rect id="矩形" x="0" y="0" width="40" height="40"></rect>
            </g>
        </g>
    </g>
</svg>