<?xml version="1.0" encoding="UTF-8"?>
<svg width="78px" height="78px" viewBox="0 0 78 78" version="1.1" xmlns="http://www.w3.org/2000/svg" xmlns:xlink="http://www.w3.org/1999/xlink">
    <!-- Generator: Sketch 60 (88103) - https://sketch.com -->
    <title>矩形</title>
    <desc>Created with Sketch.</desc>
    <defs>
        <linearGradient x1="50%" y1="0%" x2="50%" y2="100%" id="linearGradient-1">
            <stop stop-color="#FFE878" offset="0%"></stop>
            <stop stop-color="#FFCD43" offset="100%"></stop>
        </linearGradient>
    </defs>
    <g id="社区端" stroke="none" stroke-width="1" fill="none" fill-rule="evenodd">
        <g id="首页" transform="translate(-243.000000, -464.000000)">
            <g id="背景色" fill="#F6F8FA">
                <rect id="矩形" x="0" y="0" width="750" height="1624"></rect>
            </g>
            <g id="编组" transform="translate(0.000000, 242.000000)">
                <rect id="矩形" fill="#FFFFFF" x="0" y="0" width="750" height="372"></rect>
                <g id="矩形" transform="translate(189.000000, 186.000000)">
                    <rect fill="#FFFFFF" fill-rule="evenodd" x="0" y="0" width="186" height="186"></rect>
                    <g id="icon" transform="translate(54.000000, 36.000000)" fill-rule="evenodd">
                        <g id="我的投诉">
                            <rect id="矩形" fill="url(#linearGradient-1)" x="0" y="0" width="78" height="78" rx="10"></rect>
                            <g id="编组" stroke-width="1" transform="translate(17.000000, 25.000000)" stroke="#FFFFFF">
                                <path d="M3,0 L41,0 C42.6568542,-3.04359188e-16 44,1.34314575 44,3 L44,25 C44,26.6568542 42.6568542,28 41,28 L3,28 C1.34314575,28 2.02906125e-16,26.6568542 0,25 L0,3 C-2.02906125e-16,1.34314575 1.34314575,3.04359188e-16 3,0 Z" id="矩形" stroke-width="3"></path>
                                <path d="M1,1 L19.3163467,17.5719327 C20.8399253,18.9504086 23.1600747,18.9504086 24.6836533,17.5719327 L43,1 L43,1" id="路径-6" stroke-width="2"></path>
                                <line x1="14.5" y1="13.5" x2="5.5" y2="22.5" id="路径-7" stroke-width="2" stroke-linecap="round"></line>
                                <line x1="38.5869257" y1="13.5" x2="29.5869257" y2="22.5" id="路径-7" stroke-width="2" stroke-linecap="round" transform="translate(34.000000, 18.038960) scale(-1, 1) translate(-34.000000, -18.038960) "></line>
                            </g>
                        </g>
                    </g>
                    <g id="文字" transform="translate(49.000000, 130.000000)" fill="#333333" font-family="PingFangSC-Regular, PingFang SC" font-size="24" font-weight="normal">
                        <g id="我的投诉">
                            <text>
                                <tspan x="-4" y="23">我的投诉</tspan>
                            </text>
                        </g>
                    </g>
                </g>
                <g id="矩形备份-5" transform="translate(189.000000, 186.000000)">
                    <rect id="矩形" fill="#FFFFFF" x="0" y="0" width="186" height="186"></rect>
                    <g id="icon" transform="translate(54.000000, 36.000000)">
                        <g id="我的投诉">
                            <rect id="矩形" fill="url(#linearGradient-1)" x="0" y="0" width="78" height="78" rx="10"></rect>
                            <g id="编组" stroke-width="1" transform="translate(17.000000, 25.000000)" stroke="#FFFFFF">
                                <path d="M3,0 L41,0 C42.6568542,-3.04359188e-16 44,1.34314575 44,3 L44,25 C44,26.6568542 42.6568542,28 41,28 L3,28 C1.34314575,28 2.02906125e-16,26.6568542 0,25 L0,3 C-2.02906125e-16,1.34314575 1.34314575,3.04359188e-16 3,0 Z" id="矩形" stroke-width="3"></path>
                                <path d="M1,1 L19.3163467,17.5719327 C20.8399253,18.9504086 23.1600747,18.9504086 24.6836533,17.5719327 L43,1 L43,1" id="路径-6" stroke-width="2"></path>
                                <line x1="14.5" y1="13.5" x2="5.5" y2="22.5" id="路径-7" stroke-width="2" stroke-linecap="round"></line>
                                <line x1="38.5869257" y1="13.5" x2="29.5869257" y2="22.5" id="路径-7" stroke-width="2" stroke-linecap="round" transform="translate(34.000000, 18.038960) scale(-1, 1) translate(-34.000000, -18.038960) "></line>
                            </g>
                        </g>
                    </g>
                </g>
            </g>
        </g>
    </g>
</svg>