<?xml version="1.0" encoding="UTF-8"?>
<svg width="36px" height="36px" viewBox="0 0 36 36" version="1.1" xmlns="http://www.w3.org/2000/svg" xmlns:xlink="http://www.w3.org/1999/xlink">
    <title>公司</title>
    <g id="H5-员工" stroke="none" stroke-width="1" fill="none" fill-rule="evenodd">
        <g id="选择公司页面" transform="translate(-94.000000, -457.000000)" fill="#333333" fill-rule="nonzero">
            <g id="公司" transform="translate(94.000000, 457.000000)">
                <path d="M33.9944396,32.7514381 L32.9098383,32.7514381 L32.9098383,20.4974239 C32.9098383,19.8330231 32.5754379,18.939822 31.823037,18.6076217 L21.9868256,12.042814 L21.9868256,1.78640208 L21.8812255,1.55760181 C21.443425,0.435600507 20.4600238,-0.105600123 19.2544224,0.105600123 L3.83240446,4.77840556 L3.83240445,4.77840556 C2.91959245,5.1396838 2.31731425,6.01872919 2.31000268,7.00040815 L2.31000268,32.7514381 L1.22540142,32.7514381 L1.22540148,32.7514381 C0.613484521,32.7622383 0.1232002,33.2614262 0.1232002,33.8734394 C0.1232002,34.5378402 0.561000709,34.9932407 1.22540148,34.9932407 L3.76420444,34.9932407 C3.9908047,35.0614408 4.23720499,35.0966408 4.51660531,35.0966408 L19.8330231,35.0966408 C20.0970234,35.0966408 20.3588237,35.0614408 20.585424,34.9932407 L21.2674248,34.9932407 C21.4962251,35.0614408 21.7404254,35.0966408 22.0220257,35.0966408 L32.9626384,35.0966408 L32.9626384,34.9932407 L34.0472397,34.9932407 C34.6940404,34.9932407 35.1318409,34.5532402 35.1318409,33.8712394 C35.0966409,33.2068386 34.6588404,32.7514381 33.9944396,32.7514381 L33.9944396,32.7514381 Z M19.782423,32.7514381 L4.46160519,32.7514381 L4.46160519,7.03780819 L19.778023,2.36280275 L19.778023,32.7514381 L19.782423,32.7514381 Z M30.7208357,32.7514381 L21.9692256,32.7514381 L21.9692256,14.599217 L30.7208357,20.3940237 L30.7208357,32.7514381 Z M8.83961029,12.7094148 L15.4044179,12.7094148 C16.0512187,12.7094148 16.4890192,12.2694143 16.4890192,11.5874135 C16.4890192,10.9230127 16.0512187,10.4676122 15.4044179,10.4676122 L8.83961029,10.4676122 C8.19280953,10.4676122 7.75500902,10.9076127 7.75500902,11.5896135 C7.75500902,12.2716143 8.19280953,12.7094148 8.83961029,12.7094148 Z M8.83961029,19.3974226 L15.4044179,19.3974226 C16.0512187,19.3974226 16.4890192,18.9574221 16.4890192,18.2754213 C16.4890192,17.6088205 16.0512187,17.15342 15.4044179,17.15342 L8.83961029,17.15342 C8.19280953,17.15342 7.75500902,17.5934205 7.75500902,18.2754213 C7.75500902,18.939822 8.19280953,19.3974226 8.83961029,19.3974226 Z M8.83961029,26.0832304 L15.4044179,26.0832304 C16.0512187,26.0832304 16.4890192,25.6432298 16.4890192,24.961229 C16.4890192,24.2968283 16.0512187,23.8414277 15.4044179,23.8414277 L8.83961029,23.8414277 C8.19280953,23.8414277 7.75500902,24.2792283 7.75500902,24.963429 C7.75500902,25.6278298 8.19280953,26.0832304 8.83961029,26.0832304 Z M25.2428294,26.0832304 L27.4296319,26.0832304 C28.0786327,26.0832304 28.5318332,25.6432298 28.5318332,24.961229 C28.5318332,24.2968283 28.0962327,23.8414277 27.4318319,23.8414277 L25.2428294,23.8414277 C24.5938286,23.8414277 24.1560281,24.2792283 24.1560281,24.963429 C24.1560281,25.6278298 24.5960286,26.0832304 25.2428294,26.0832304 Z" id="形状"></path>
            </g>
        </g>
    </g>
</svg>