<?xml version="1.0" standalone="no"?><!DOCTYPE svg PUBLIC "-//W3C//DTD SVG 1.1//EN" "http://www.w3.org/Graphics/SVG/1.1/DTD/svg11.dtd"><svg t="1590395785700" class="icon" viewBox="0 0 1024 1024" version="1.1" xmlns="http://www.w3.org/2000/svg" p-id="6793" xmlns:xlink="http://www.w3.org/1999/xlink" width="200" height="200"><defs><style type="text/css"></style></defs><path d="M876.934549 942.091907v-77.53347c0-22.444651 18.196242-40.642084 40.642084-40.642084 22.447033 0 40.643274 18.196242 40.643274 40.642084v102.419051c0 31.109358-25.204688 56.399777-56.399777 56.399777H121.859572c-31.11293 0-56.399777-25.286847-56.399777-56.399777V234.287628c0-27.199107 19.326214-49.946195 44.976224-55.237656L481.644353 8.296781a81.285358 81.285358 0 0 1 68.507982 0.265526l368.937674 173.17507c23.170977 10.584112 39.129898 26.75974 39.129898 52.550251v393.918512c0 22.447033-18.196242 40.643274-40.643274 40.643274-22.445842 0-40.642084-18.196242-40.642084-40.642084v-376.462883L515.613767 82.14266 146.745153 251.820651v690.271256h730.189396z" p-id="6794" fill="#BC8D58"></path><path d="M341.212279 1022.589023V596.944372c0-26.935963 21.835014-48.770977 48.770977-48.770977h245.830251c26.935963 0 48.770977 21.835014 48.770977 48.770977v425.644651h-343.373396z m262.086847-81.284167V629.457563H422.496447V941.306047h180.802679z" p-id="6795" fill="#BC8D58"></path></svg>