<?xml version="1.0" encoding="UTF-8"?>
<svg width="78px" height="78px" viewBox="0 0 78 78" version="1.1" xmlns="http://www.w3.org/2000/svg" xmlns:xlink="http://www.w3.org/1999/xlink">
    <!-- Generator: Sketch 60 (88103) - https://sketch.com -->
    <title>矩形</title>
    <desc>Created with Sketch.</desc>
    <defs>
        <linearGradient x1="50%" y1="0%" x2="50%" y2="100%" id="linearGradient-1">
            <stop stop-color="#A3C9FF" offset="0%"></stop>
            <stop stop-color="#6A98FF" offset="100%"></stop>
        </linearGradient>
    </defs>
    <g id="社区端" stroke="none" stroke-width="1" fill="none" fill-rule="evenodd">
        <g id="首页" transform="translate(-57.000000, -464.000000)">
            <g id="背景色" fill="#F6F8FA">
                <rect id="矩形" x="0" y="0" width="750" height="1624"></rect>
            </g>
            <g id="编组" transform="translate(0.000000, 242.000000)">
                <rect id="矩形" fill="#FFFFFF" x="0" y="0" width="750" height="372"></rect>
                <g id="矩形" transform="translate(3.000000, 186.000000)">
                    <rect fill="#FFFFFF" fill-rule="evenodd" x="0" y="0" width="186" height="186"></rect>
                    <g id="icon" transform="translate(54.000000, 36.000000)" fill-rule="evenodd">
                        <g id="客服电话">
                            <rect id="矩形" fill="url(#linearGradient-1)" x="0" y="0" width="78" height="78" rx="10"></rect>
                            <g id="编组" stroke-width="1" transform="translate(17.000000, 17.000000)" stroke="#FFFFFF">
                                <rect id="矩形" stroke-width="2" x="19" y="39" width="6" height="4" rx="2"></rect>
                                <path d="M6,30 L6,16.0714286 C6,7.19542366 13.163444,0 22,0 C30.836556,0 38,7.19542366 38,16.0714286 L38,30" id="路径" stroke-width="3" stroke-linecap="round"></path>
                                <path d="M37.5,28 C37.5,36.2842712 30.7842712,43 22.5,43" id="路径" stroke-width="2" stroke-linecap="round"></path>
                                <path d="M4,30 C1.790861,30 0,28.209139 0,26 L0,20 C0,17.790861 1.790861,16 4,16" id="路径" stroke-width="3" stroke-linecap="round"></path>
                                <path d="M40,16 C42.209139,16 44,17.790861 44,20 L44,26 C44,28.209139 42.209139,30 40,30" id="路径" stroke-width="3" stroke-linecap="round"></path>
                                <path d="M33.5644781,20.1296806 C30.7988933,18.1359672 28.2253519,15.2638987 25.8438539,11.5134751 C22.2930899,15.0104173 17.1999646,17.8824858 10.5644781,20.1296806" id="路径-5" stroke-width="2" stroke-linecap="round"></path>
                            </g>
                        </g>
                    </g>
                    <g id="文字" transform="translate(49.000000, 130.000000)" fill="#333333" font-family="PingFangSC-Regular, PingFang SC" font-size="24" font-weight="normal">
                        <g id="客服电话">
                            <text>
                                <tspan x="-4" y="23">客服电话</tspan>
                            </text>
                        </g>
                    </g>
                </g>
                <g id="矩形备份-4" transform="translate(3.000000, 186.000000)">
                    <rect id="矩形" fill="#FFFFFF" x="0" y="0" width="186" height="186"></rect>
                    <g id="icon" transform="translate(54.000000, 36.000000)">
                        <g id="客服电话">
                            <rect id="矩形" fill="url(#linearGradient-1)" x="0" y="0" width="78" height="78" rx="10"></rect>
                            <g id="编组" stroke-width="1" transform="translate(17.000000, 17.000000)" stroke="#FFFFFF">
                                <rect id="矩形" stroke-width="2" x="19" y="39" width="6" height="4" rx="2"></rect>
                                <path d="M6,30 L6,16.0714286 C6,7.19542366 13.163444,0 22,0 C30.836556,0 38,7.19542366 38,16.0714286 L38,30" id="路径" stroke-width="3" stroke-linecap="round"></path>
                                <path d="M37.5,28 C37.5,36.2842712 30.7842712,43 22.5,43" id="路径" stroke-width="2" stroke-linecap="round"></path>
                                <path d="M4,30 C1.790861,30 0,28.209139 0,26 L0,20 C0,17.790861 1.790861,16 4,16" id="路径" stroke-width="3" stroke-linecap="round"></path>
                                <path d="M40,16 C42.209139,16 44,17.790861 44,20 L44,26 C44,28.209139 42.209139,30 40,30" id="路径" stroke-width="3" stroke-linecap="round"></path>
                                <path d="M33.5644781,20.1296806 C30.7988933,18.1359672 28.2253519,15.2638987 25.8438539,11.5134751 C22.2930899,15.0104173 17.1999646,17.8824858 10.5644781,20.1296806" id="路径-5" stroke-width="2" stroke-linecap="round"></path>
                            </g>
                        </g>
                    </g>
                    <g id="矩形" transform="translate(54.000000, 36.000000)">
                        <g id="客服电话">
                            <rect id="矩形" fill="url(#linearGradient-1)" x="0" y="0" width="78" height="78" rx="10"></rect>
                            <g id="编组" stroke-width="1" transform="translate(17.000000, 17.000000)" stroke="#FFFFFF">
                                <rect id="矩形" stroke-width="2" x="19" y="39" width="6" height="4" rx="2"></rect>
                                <path d="M6,30 L6,16.0714286 C6,7.19542366 13.163444,0 22,0 C30.836556,0 38,7.19542366 38,16.0714286 L38,30" id="路径" stroke-width="3" stroke-linecap="round"></path>
                                <path d="M37.5,28 C37.5,36.2842712 30.7842712,43 22.5,43" id="路径" stroke-width="2" stroke-linecap="round"></path>
                                <path d="M4,30 C1.790861,30 0,28.209139 0,26 L0,20 C0,17.790861 1.790861,16 4,16" id="路径" stroke-width="3" stroke-linecap="round"></path>
                                <path d="M40,16 C42.209139,16 44,17.790861 44,20 L44,26 C44,28.209139 42.209139,30 40,30" id="路径" stroke-width="3" stroke-linecap="round"></path>
                                <path d="M33.5644781,20.1296806 C30.7988933,18.1359672 28.2253519,15.2638987 25.8438539,11.5134751 C22.2930899,15.0104173 17.1999646,17.8824858 10.5644781,20.1296806" id="路径-5" stroke-width="2" stroke-linecap="round"></path>
                            </g>
                        </g>
                    </g>
                </g>
            </g>
        </g>
    </g>
</svg>