<?xml version="1.0" encoding="UTF-8"?>
<svg width="26px" height="27px" viewBox="0 0 26 27" version="1.1" xmlns="http://www.w3.org/2000/svg" xmlns:xlink="http://www.w3.org/1999/xlink">
    <title>成功</title>
    <g id="离线工单21/10/14" stroke="none" stroke-width="1" fill="none" fill-rule="evenodd">
        <g id="全部上传备份" transform="translate(-32.000000, -296.000000)">
            <g id="成功" transform="translate(32.000000, 296.500000)">
                <path d="M13,26 C5.82013685,26 0,20.1798631 0,13 C0,5.82013685 5.82013685,0 13,0 C20.1798631,0 26,5.82013685 26,13 C26,20.1798631 20.1798631,26 13,26 L13,26 Z" id="Path" fill="#87D155"></path>
                <path d="M11.618505,8.51288238 C11.3008119,8.19518932 10.7848784,8.19518932 10.4671853,8.51288238 L6.43375422,12.3684054 C6.11606116,12.6860984 6.11606116,13.2020319 6.43375422,13.519725 C6.75144728,13.8374181 7.26738081,13.8374181 7.58507387,13.519725 L11.0441159,10.2385911 L18.4149261,17.4979502 C18.7326192,17.8156433 19.2523112,17.7933942 19.5700043,17.4757012 L19.5662458,17.4979502 C19.8839388,17.1802572 19.8839388,16.6643236 19.5662458,16.3466306 L11.618505,8.51288238 Z" id="Path" fill="#FFFFFF" transform="translate(13.000000, 13.000000) scale(1, -1) translate(-13.000000, -13.000000) "></path>
            </g>
        </g>
    </g>
</svg>