<?xml version="1.0" encoding="UTF-8"?>
<svg width="26px" height="27px" viewBox="0 0 26 27" version="1.1" xmlns="http://www.w3.org/2000/svg" xmlns:xlink="http://www.w3.org/1999/xlink">
    <title>错误</title>
    <g id="离线工单21/10/14" stroke="none" stroke-width="1" fill="none" fill-rule="evenodd">
        <g id="全部上传备份-2" transform="translate(-32.000000, -296.000000)">
            <g id="错误" transform="translate(32.000000, 296.500000)">
                <path d="M13,26 C5.82013685,26 0,20.1798631 0,13 C0,5.82013685 5.82013685,0 13,0 C20.1798631,0 26,5.82013685 26,13 C26,20.1798631 20.1798631,26 13,26 L13,26 Z" id="Path备份" fill="#FF4D4F"></path>
                <g id="错误备份" transform="translate(7.300981, 7.326298)" fill="#FFFFFF" fill-rule="nonzero">
                    <path d="M6.82870233,5.64006517 L10.8342173,1.63455023 C11.1624742,1.30629327 11.1624742,0.774170037 10.8342173,0.445913072 C10.5059603,0.117656107 9.97383706,0.117656107 9.6455801,0.445913072 L5.64006517,4.45142801 L1.62110259,0.432465429 C1.29284563,0.104208465 0.760722394,0.104208465 0.432465429,0.432465429 C0.104208465,0.760722394 0.104208465,1.29284563 0.432465429,1.62110259 L4.45142801,5.64006517 L0.445913072,9.6455801 C0.117656107,9.97383706 0.117656107,10.5059603 0.445913072,10.8342173 C0.774170037,11.1624742 1.30629327,11.1624742 1.63455023,10.8342173 L5.64006517,6.82870233 L9.63213246,10.8207696 C9.96038942,11.1490266 10.4925127,11.1490266 10.8207696,10.8207696 C11.1490266,10.4925127 11.1490266,9.96038942 10.8207696,9.63213246 L6.82870233,5.64006517 Z" id="路径"></path>
                </g>
            </g>
        </g>
    </g>
</svg>