<?xml version="1.0" encoding="UTF-8"?>
<svg width="32px" height="32px" viewBox="0 0 32 32" version="1.1" xmlns="http://www.w3.org/2000/svg" xmlns:xlink="http://www.w3.org/1999/xlink">
    <title>icon/单选/选中</title>
    <g id="离线工单21/10/14" stroke="none" stroke-width="1" fill="none" fill-rule="evenodd">
        <g id="选择工单批量下载" transform="translate(-684.000000, -295.000000)">
            <g id="success" transform="translate(682.000000, 293.000000)">
                <rect id="矩形" x="0" y="0" width="36" height="36"></rect>
                <path d="M18,2 C26.836556,2 34,9.163444 34,18 C34,26.836556 26.836556,34 18,34 C9.163444,34 2,26.836556 2,18 C2,9.163444 9.163444,2 18,2 Z M27.5781085,12.155788 C27.3694743,11.9613506 26.9966137,11.9459889 26.7585823,12.1262292 L26.7585823,12.1262292 L16.1684093,20.1452411 C15.9710282,20.2947006 15.6071979,20.311852 15.3957919,20.1801562 L15.3957919,20.1801562 L11.3880355,17.6835154 C11.1370903,17.5271886 10.7820499,17.583279 10.5922509,17.806604 L10.5922509,17.806604 L10.1292104,18.3514359 C9.93117527,18.5844518 9.96750338,18.9100205 10.1921714,19.1194008 L10.1921714,19.1194008 L15.1468396,23.7369231 C15.5108744,24.0761869 16.0914915,24.0906066 16.4451292,23.7610325 L16.4451292,23.7610325 L27.8115024,13.1680965 C28.0494837,12.946309 28.0659869,12.6104682 27.8389698,12.3988987 L27.8389698,12.3988987 Z" id="checked" fill="#E1AA6C"></path>
            </g>
        </g>
    </g>
</svg>