<?xml version="1.0" encoding="UTF-8"?>
<svg width="32px" height="32px" viewBox="0 0 32 32" version="1.1" xmlns="http://www.w3.org/2000/svg" xmlns:xlink="http://www.w3.org/1999/xlink">
    <title>icon/单选/未选中</title>
    <g id="离线工单21/10/14" stroke="none" stroke-width="1" fill="none" fill-rule="evenodd">
        <g id="选择工单批量下载" transform="translate(-684.000000, -806.000000)">
            <g id="icon/单选/未选中" transform="translate(682.000000, 804.000000)">
                <rect id="矩形" x="0" y="0" width="36" height="36"></rect>
                <path d="M18,32 C25.7319865,32 32,25.7319865 32,18 C32,10.2680135 25.7319865,4 18,4 C10.2680135,4 4,10.2680135 4,18 C4,25.7319865 10.2680135,32 18,32 Z M18,34 C9.163444,34 2,26.836556 2,18 C2,9.163444 9.163444,2 18,2 C26.836556,2 34,9.163444 34,18 C34,26.836556 26.836556,34 18,34 Z" id="circle" fill="#969799"></path>
            </g>
        </g>
    </g>
</svg>