<?xml version="1.0" encoding="UTF-8"?>
<svg width="30px" height="31px" viewBox="0 0 30 31" version="1.1" xmlns="http://www.w3.org/2000/svg" xmlns:xlink="http://www.w3.org/1999/xlink">
    <title>下载</title>
    <g id="离线工单21/10/14" stroke="none" stroke-width="1" fill="none" fill-rule="evenodd">
        <g id="我的待办-批量下载提示" transform="translate(-32.000000, -294.000000)">
            <g id="下载" transform="translate(32.000000, 294.500000)">
                <path d="M23.0844969,27.0000288 L6.1655319,27.0000288 C4.0063497,27.0000288 2.25,25.3178003 2.25,23.2520752 L2.25,20.8125216 C2.25,19.9585167 2.9428719,19.2656448 3.7968768,19.2656448 C4.6508817,19.2656448 5.3437536,19.9585167 5.3437536,20.8125216 L5.3437536,23.2520752 C5.3437536,23.6065678 5.72080482,23.9062752 6.1655319,23.9062752 L23.0844969,23.9062752 C23.529224,23.9062752 23.9062752,23.6065678 23.9062752,23.2520752 L23.9062752,20.8125216 C23.9062752,19.9585167 24.5991471,19.2656448 25.453152,19.2656448 C26.3071569,19.2656448 27.0000288,19.9585167 27.0000288,20.8125216 L27.0000288,23.2520752 C27.0000288,25.3178003 25.2436791,27.0000288 23.0844969,27.0000288 Z M14.6250144,2.25 C13.7710095,2.25 13.0781376,2.9428719 13.0781376,3.7968768 L13.0781376,17.718768 C13.0781376,18.5727729 13.7710095,19.2656448 14.6250144,19.2656448 C15.4790193,19.2656448 16.1718912,18.5727729 16.1718912,17.718768 L16.1718912,3.7968768 C16.1718912,2.9428719 15.4790193,2.25 14.6250144,2.25 Z M18.372968,13.3971809 C17.9765808,13.3971809 17.5801936,13.548646 17.2804862,13.851576 L14.6250144,16.5038252 L11.9727652,13.851576 C11.3669051,13.2457159 10.3904392,13.2457159 9.78457908,13.851576 C9.178719,14.4574361 9.178719,15.4339021 9.78457908,16.0397621 L13.5325327,19.7877157 C14.1383927,20.3935758 15.1148587,20.3935758 15.7207188,19.7877157 L19.4686724,16.0397621 C20.0745325,15.4339021 20.0745325,14.4574361 19.4686724,13.851576 C19.1625197,13.548646 18.7661325,13.3971809 18.372968,13.3971809 Z" id="形状" fill="#1A7AFF" fill-rule="nonzero"></path>
                <rect id="矩形" x="0" y="0" width="30" height="30"></rect>
            </g>
        </g>
    </g>
</svg>