<?xml version="1.0" encoding="UTF-8"?>
<svg width="346px" height="200px" viewBox="0 0 346 200" version="1.1" xmlns="http://www.w3.org/2000/svg" xmlns:xlink="http://www.w3.org/1999/xlink">
    <title>没有项目</title>
    <defs>
        <rect id="path-1" x="0" y="0" width="344" height="200"></rect>
        <linearGradient x1="50%" y1="-29.1218169%" x2="50%" y2="69.7783717%" id="linearGradient-3">
            <stop stop-color="#F5F5F5" offset="0%"></stop>
            <stop stop-color="#FFFFFF" offset="100%"></stop>
        </linearGradient>
        <linearGradient x1="50%" y1="0%" x2="50%" y2="100%" id="linearGradient-4">
            <stop stop-color="#000000" stop-opacity="0.06" offset="0%"></stop>
            <stop stop-color="#000000" stop-opacity="0" offset="100%"></stop>
        </linearGradient>
        <linearGradient x1="-4.78370248%" y1="50%" x2="86.4177815%" y2="50.199799%" id="linearGradient-5">
            <stop stop-color="#A7A7A7" offset="0%"></stop>
            <stop stop-color="#ECECEC" offset="100%"></stop>
        </linearGradient>
        <linearGradient x1="44.0301045%" y1="80.631422%" x2="58.902633%" y2="0%" id="linearGradient-6">
            <stop stop-color="#DBDDDE" offset="0%"></stop>
            <stop stop-color="#F0F2F5" offset="100%"></stop>
        </linearGradient>
        <linearGradient x1="-4.78370248%" y1="50%" x2="86.4177815%" y2="50.199799%" id="linearGradient-7">
            <stop stop-color="#A7A7A7" offset="0%"></stop>
            <stop stop-color="#ECECEC" offset="100%"></stop>
        </linearGradient>
        <linearGradient x1="50%" y1="0%" x2="50%" y2="100%" id="linearGradient-8">
            <stop stop-color="#000000" stop-opacity="0" offset="0%"></stop>
            <stop stop-color="#F6F6F6" offset="0%"></stop>
            <stop stop-color="#E0E0E0" offset="100%"></stop>
        </linearGradient>
        <linearGradient x1="50%" y1="0%" x2="50%" y2="99.3935752%" id="linearGradient-9">
            <stop stop-color="#E6E8EB" offset="0%"></stop>
            <stop stop-color="#CDCFD1" offset="100%"></stop>
        </linearGradient>
        <linearGradient x1="50%" y1="0%" x2="50%" y2="100%" id="linearGradient-10">
            <stop stop-color="#D3D5D7" offset="0%"></stop>
            <stop stop-color="#E6E8EB" offset="100%"></stop>
        </linearGradient>
        <linearGradient x1="50%" y1="0%" x2="50%" y2="100%" id="linearGradient-11">
            <stop stop-color="#FAFAFB" offset="0%"></stop>
            <stop stop-color="#F3F3F5" offset="100%"></stop>
        </linearGradient>
        <linearGradient x1="50%" y1="0%" x2="50%" y2="100%" id="linearGradient-12">
            <stop stop-color="#F7F8F9" offset="0%"></stop>
            <stop stop-color="#EDEEF0" offset="100%"></stop>
        </linearGradient>
        <filter id="filter-13">
            <feColorMatrix in="SourceGraphic" type="matrix" values="0 0 0 0 0.854902 0 0 0 0 0.854902 0 0 0 0 0.858824 0 0 0 1.000000 0"></feColorMatrix>
        </filter>
        <filter id="filter-14">
            <feColorMatrix in="SourceGraphic" type="matrix" values="0 0 0 0 0.946388 0 0 0 0 0.946388 0 0 0 0 0.946388 0 0 0 1.000000 0"></feColorMatrix>
        </filter>
        <linearGradient x1="50%" y1="0%" x2="50%" y2="120.28482%" id="linearGradient-15">
            <stop stop-color="#000000" stop-opacity="0.06" offset="0%"></stop>
            <stop stop-color="#000000" stop-opacity="0" offset="100%"></stop>
        </linearGradient>
        <linearGradient x1="50%" y1="0%" x2="50%" y2="120.28482%" id="linearGradient-16">
            <stop stop-color="#000000" stop-opacity="0.06" offset="0%"></stop>
            <stop stop-color="#000000" stop-opacity="0" offset="100%"></stop>
        </linearGradient>
        <linearGradient x1="50%" y1="0%" x2="50%" y2="120.28482%" id="linearGradient-17">
            <stop stop-color="#000000" stop-opacity="0.06" offset="0%"></stop>
            <stop stop-color="#000000" stop-opacity="0" offset="100%"></stop>
        </linearGradient>
        <linearGradient x1="50%" y1="0%" x2="50%" y2="168.843514%" id="linearGradient-18">
            <stop stop-color="#E6E6E6" offset="0%"></stop>
            <stop stop-color="#CACACB" offset="100%"></stop>
        </linearGradient>
    </defs>
    <g id="全部" stroke="none" stroke-width="1" fill="none" fill-rule="evenodd">
        <g id="空" transform="translate(-211.000000, -487.000000)">
            <g id="编组" transform="translate(211.000000, 487.000000)">
                <g id="编组-5备份" transform="translate(1.000000, 0.000000)">
                    <mask id="mask-2" fill="white">
                        <use xlink:href="#path-1"></use>
                    </mask>
                    <use id="矩形" fill="#D8D8D8" opacity="0" xlink:href="#path-1"></use>
                    <g id="编组-13备份-3" mask="url(#mask-2)">
                        <g transform="translate(0.000000, 56.000000)">
                            <ellipse id="椭圆形" fill="url(#linearGradient-3)" cx="171.801883" cy="99.3194591" rx="171.801883" ry="38.6805409"></ellipse>
                            <ellipse id="椭圆形" fill="url(#linearGradient-4)" opacity="0.600000024" cx="171.801883" cy="81" rx="66" ry="10.5"></ellipse>
                            <g id="编组-12" opacity="0.512602307" stroke-width="1" fill="none" transform="translate(82.239788, 81.412406)">
                                <ellipse id="椭圆形" fill="url(#linearGradient-5)" opacity="0.402297247" cx="28.9813896" cy="38.5844083" rx="21.4321965" ry="1.9483815"></ellipse>
                                <rect id="矩形" fill="#EBEBEB" x="11.690289" y="27.277341" width="3.896763" height="11.690289" rx="1.9483815"></rect>
                                <path d="M13.6386705,-1.77635684e-15 C21.1711002,-1.77635684e-15 27.277341,5.23392066 27.277341,11.690289 C27.277341,14.8751952 25.7914374,17.7626288 23.3814226,19.8710536 L23.380578,27.174104 C23.380578,29.383243 21.589717,31.174104 19.380578,31.174104 L7.896763,31.174104 C5.687624,31.174104 3.896763,29.383243 3.896763,27.174104 L3.89591841,19.8710536 C1.48590353,17.7626288 2.84217094e-14,14.8751952 2.84217094e-14,11.690289 C2.84217094e-14,5.23392066 6.10624077,-1.77635684e-15 13.6386705,-1.77635684e-15 Z" id="形状结合" fill="url(#linearGradient-6)"></path>
                            </g>
                            <g id="编组-12备份" stroke-width="1" fill="none" transform="translate(59.500000, 63.000000)">
                                <ellipse id="椭圆形" fill="url(#linearGradient-7)" opacity="0.402297247" cx="9.54265267" cy="12.7046222" rx="7.05694274" ry="1"></ellipse>
                                <rect id="矩形" fill="#EBEBEB" x="3.8492415" y="8.98156349" width="1.2830805" height="3.8492415" rx="0.641540249"></rect>
                                <path d="M4.49078175,-5.84897984e-16 C6.97097202,-5.84897984e-16 8.98156349,1.72336412 8.98156349,3.8492415 C8.98156349,4.98329375 8.40940868,6.00280265 7.49902865,6.70725713 C7.62760669,7.0110177 7.69848299,7.34647332 7.69848299,7.69848299 C7.69848299,9.11573458 6.54957358,10.264644 5.13232199,10.264644 L3.8492415,10.264644 C2.43198991,10.264644 1.2830805,9.11573458 1.2830805,7.69848299 C1.2830805,7.34647332 1.3539568,7.0110177 1.48221713,6.70560841 C0.572154806,6.00280265 9.35836774e-15,4.98329375 9.35836774e-15,3.8492415 C9.35836774e-15,1.72336412 2.01059147,-5.84897984e-16 4.49078175,-5.84897984e-16 Z" id="形状结合" fill="url(#linearGradient-8)"></path>
                            </g>
                            <g id="编组-12备份-2" stroke-width="1" fill="none" transform="translate(274.000000, 75.000000)">
                                <ellipse id="椭圆形" fill="url(#linearGradient-7)" opacity="0.402297247" cx="9.54265267" cy="12.7046222" rx="7.05694274" ry="1"></ellipse>
                                <rect id="矩形" fill="#EBEBEB" x="3.8492415" y="8.98156349" width="1.2830805" height="3.8492415" rx="0.641540249"></rect>
                                <path d="M4.49078175,-5.84897984e-16 C6.97097202,-5.84897984e-16 8.98156349,1.72336412 8.98156349,3.8492415 C8.98156349,4.98329375 8.40940868,6.00280265 7.49902865,6.70725713 C7.62760669,7.0110177 7.69848299,7.34647332 7.69848299,7.69848299 C7.69848299,9.11573458 6.54957358,10.264644 5.13232199,10.264644 L3.8492415,10.264644 C2.43198991,10.264644 1.2830805,9.11573458 1.2830805,7.69848299 C1.2830805,7.34647332 1.3539568,7.0110177 1.48221713,6.70560841 C0.572154806,6.00280265 9.35836774e-15,4.98329375 9.35836774e-15,3.8492415 C9.35836774e-15,1.72336412 2.01059147,-5.84897984e-16 4.49078175,-5.84897984e-16 Z" id="形状结合" fill="url(#linearGradient-8)"></path>
                            </g>
                        </g>
                    </g>
                </g>
                <g id="编组-5" transform="translate(68.500000, 20.000000)">
                    <polygon id="路径-4" fill="url(#linearGradient-9)" points="109.643443 78.4845377 110.282349 132.404651 148.688629 116.416368 149 64.4046512"></polygon>
                    <polygon id="路径-2" fill="#D0D2D4" points="60 65.795531 97.1325515 52.4046512 149 64.0677933 109.881649 78.4046512"></polygon>
                    <polygon id="路径-5" fill="url(#linearGradient-10)" points="59.5727784 66.4046512 58 117.771837 110 131.404651 109.927106 78.4141668"></polygon>
                    <path d="M60.4577456,65.4046512 C58.261257,66.1807436 55.7795092,68.6288095 53.0125023,72.7488487 C50.2454953,76.868888 47.9079945,81.274309 46,85.9651119 L94.9584219,101.404651 L109.935675,78.4033097 L60.4577456,65.4046512 Z" id="路径-8" fill="url(#linearGradient-11)"></path>
                    <polygon id="路径-9" fill="url(#linearGradient-12)" points="109.87765 78.4026561 148.734986 63.4046512 162 83.6484057 124.358418 101.404651"></polygon>
                    <path d="M122.276262,37.4046512 L123,37.9173438 L122.398416,38.7989172 C120.118023,42.1053167 118.132342,44.5724596 116.419953,46.1948805 L116.166366,46.429048 L116.162175,46.5011344 C116.116769,47.0738684 115.989848,47.6832651 115.768861,48.319903 L115.691697,48.5331116 C114.930565,50.5537369 113.095072,52.130988 110.217558,53.2788744 L109.893547,53.4046512 L109.589011,52.5591075 C112.436842,51.4833593 114.185369,50.0280317 114.870659,48.2087489 C114.971075,47.9421673 115.052965,47.6820849 115.117524,47.4292618 L115.153473,47.2771039 L115.128627,47.2970123 C113.754155,48.328801 112.584703,48.7124924 111.605911,48.4444228 L111.484554,48.4075192 C108.025544,47.2494392 108.359592,42.9296031 111.365391,42.0108391 C113.629902,41.3186599 115.658668,42.6698417 116.094981,45.0460199 L116.125885,45.2358217 L116.211763,45.1516865 C117.845189,43.5110839 119.791009,41.0532948 122.026664,37.7725637 L122.276262,37.4046512 Z M115.303749,45.8416129 C115.226448,43.570372 113.53556,42.2880109 111.617074,42.8744226 C109.400885,43.5518315 109.158931,46.6807324 111.758005,47.5509048 C112.587357,47.8285727 113.731183,47.354791 115.16934,46.1244201 L115.305715,46.0054707 L115.303749,45.8416129 Z" id="路径-10" fill="#D4D6D8" fill-rule="nonzero"></path>
                    <g filter="url(#filter-13)" id="编组-3">
                        <g transform="translate(83.000000, 40.404651)">
                            <path d="M4.786179,2.70634678 C4.20574175,2.15286253 3.73185256,2.1638986 3.36451142,2.73945498 C2.81349972,3.60278956 2.65144541,4.94622671 2.74181461,6.83860229 C2.80206074,8.10018601 3.06052122,9.55932415 3.51719604,11.2160167 C4.44305467,10.4381756 5.12300528,9.61836816 5.55704788,8.75659445 C6.20811178,7.46393389 6.46322257,6.4973243 6.33445031,4.84363435 C6.24860213,3.74117438 5.73251169,3.02874519 4.786179,2.70634678 Z" id="路径-11" fill="#D8D8D8" transform="translate(4.542536, 6.757683) rotate(31.000000) translate(-4.542536, -6.757683) "></path>
                            <path d="M6.94867569,4.75325766 C7.28455124,2.61388676 7.95250154,1.34202341 8.95252658,0.937667594" id="路径-12" fill="#D8D8D8" transform="translate(7.950601, 2.845463) rotate(31.000000) translate(-7.950601, -2.845463) "></path>
                        </g>
                    </g>
                    <g filter="url(#filter-14)" id="编组-4">
                        <g transform="translate(120.000000, 59.404651)">
                            <path d="M4.786179,2.70634678 C4.20574175,2.15286253 3.73185256,2.1638986 3.36451142,2.73945498 C2.81349972,3.60278956 2.65144541,4.94622671 2.74181461,6.83860229 C2.80206074,8.10018601 3.06052122,9.55932415 3.51719604,11.2160167 C4.44305467,10.4381756 5.12300528,9.61836816 5.55704788,8.75659445 C6.20811178,7.46393389 6.46322257,6.4973243 6.33445031,4.84363435 C6.24860213,3.74117438 5.73251169,3.02874519 4.786179,2.70634678 Z" id="路径-11" fill="#D8D8D8" transform="translate(4.542536, 6.757683) rotate(31.000000) translate(-4.542536, -6.757683) "></path>
                            <path d="M6.94867569,4.75325766 C7.28455124,2.61388676 7.95250154,1.34202341 8.95252658,0.937667594" id="路径-12" fill="#D8D8D8" transform="translate(7.950601, 2.845463) rotate(31.000000) translate(-7.950601, -2.845463) "></path>
                        </g>
                    </g>
                    <path d="M21.5510204,18 C26.9677381,18 31.5843144,21.4238158 33.3522832,26.2241749 C39.3824139,27.1487913 44,32.3559752 44,38.6410256 C44,45.5799879 38.3715797,51.2051282 31.4285714,51.2051282 C28.0798869,51.2051282 25.0370061,49.8965898 22.7839263,47.7632283 C20.5033911,50.9343566 16.7787789,53 12.5714286,53 C5.62842029,53 0,47.3748597 0,40.4358974 C0,34.6724335 3.88297539,29.8153585 9.1770288,28.3351293 C10.2286864,22.4600668 15.3686975,18 21.5510204,18 Z" id="形状结合" fill="url(#linearGradient-15)" opacity="0.790108817"></path>
                    <path d="M201.755102,62 C204.709638,62 207.227744,63.8674882 208.192118,66.4858134 C211.480391,66.9892058 214,69.8299018 214,73.2587413 C214,77.0436298 210.929953,80.1118881 207.142857,80.1118881 C205.316146,80.1118881 203.656266,79.3980184 202.427282,78.2341909 C201.183125,79.9644957 199.151754,81.0909091 196.857143,81.0909091 C193.070047,81.0909091 190,78.0226507 190,74.2377622 C190,71.09391 192.118181,68.4444973 195.006051,67.6372319 C195.579713,64.4323906 198.383184,62 201.755102,62 Z" id="形状结合备份-2" fill="url(#linearGradient-16)" opacity="0.595982143"></path>
                    <path d="M172.183673,0 C176.000016,0 179.252616,2.4122569 180.498217,5.79435353 C184.746391,6.44539063 188,10.1142266 188,14.5425408 C188,19.4313551 184.034522,23.3945221 179.142857,23.3945221 C176.783874,23.3945221 174.640285,22.4728452 173.052952,20.9701533 C171.444506,23.2043418 168.820811,24.6590909 165.857143,24.6590909 C160.965478,24.6590909 157,20.6959239 157,15.8071096 C157,11.7467421 159.735389,8.32488667 163.464932,7.28176479 C164.206736,3.14217984 167.828043,0 172.183673,0 Z" id="形状结合备份" fill="url(#linearGradient-17)" opacity="0.395856585"></path>
                    <polygon id="路径-7" fill="url(#linearGradient-18)" points="97 52.4046512 96.9769583 74.8893365 60 65.8773557"></polygon>
                </g>
            </g>
        </g>
    </g>
</svg>