<?xml version="1.0" encoding="UTF-8"?>
<svg width="38px" height="39px" viewBox="0 0 38 39" version="1.1" xmlns="http://www.w3.org/2000/svg" xmlns:xlink="http://www.w3.org/1999/xlink">
    <title>错误</title>
    <g id="员工端-录入人脸" stroke="none" stroke-width="1" fill="none" fill-rule="evenodd">
        <g id="重新录入备份" transform="translate(-197.000000, -1004.000000)">
            <rect id="矩形" fill="#FFFFFF" x="0" y="902" width="750" height="272"></rect>
            <polygon id="矩形" fill="#FFFFFF" points="0 995.5 750 995.5 750 1051.5 0 1051.5"></polygon>
            <g id="错误" transform="translate(197.000000, 1004.500000)" fill="#FF4D4F" fill-rule="nonzero">
                <path d="M19.0000221,38.0000442 C8.5072599,38.0000442 0,29.4927843 0,19.0000221 C0,8.50566419 8.5072599,0 19.0000221,0 C29.49438,0 38.0000442,8.50566419 38.0000442,19.0000221 C38.0000442,29.4927843 29.49438,38.0000442 19.0000221,38.0000442 M26.7884355,11.2480131 L26.7884355,11.2480131 C26.0864737,10.5482742 24.9507251,10.5482742 24.2487671,11.2480131 L18.9826066,16.5141735 L13.9254465,11.4585719 L13.9254464,11.4585719 C13.2446853,10.7773729 12.1405985,10.7770203 11.4594031,11.4577803 C10.7782041,12.1385414 10.7778516,13.2426283 11.4586115,13.9238236 C11.4586115,13.9238236 11.4586115,13.9238236 11.4586115,13.9238236 L16.5173674,18.9809838 L11.2496113,24.2487399 L11.2496113,24.2487399 C10.5765095,24.9769269 10.6211633,26.1129019 11.3493521,26.7860036 C12.037717,27.4222965 13.0997292,27.4219626 13.787697,26.7852428 L19.0538574,21.5190824 L24.1411133,26.603184 L24.1411133,26.603184 C24.8218744,27.2839452 25.925605,27.2839452 26.6063662,26.603184 C27.2871273,25.9224229 27.2871273,24.8186923 26.6063662,24.1379312 C26.6063662,24.1379312 26.6063662,24.1379312 26.6063662,24.1379312 L21.520706,19.0538295 L26.7884621,13.7860734 L26.7884621,13.7860734 C27.4871508,13.0842972 27.4871508,11.9497621 26.7884621,11.2479859" id="形状"></path>
            </g>
        </g>
    </g>
</svg>