<?xml version="1.0" standalone="no"?><!DOCTYPE svg PUBLIC "-//W3C//DTD SVG 1.1//EN" "http://www.w3.org/Graphics/SVG/1.1/DTD/svg11.dtd"><svg t="1577246679634" class="icon" viewBox="0 0 1024 1024" version="1.1" xmlns="http://www.w3.org/2000/svg" p-id="8521" xmlns:xlink="http://www.w3.org/1999/xlink" width="200" height="200"><defs><style type="text/css"></style></defs><path d="M640 373.930667A127.530667 127.530667 0 0 1 725.333333 341.333333h170.666667a128 128 0 0 1 128 128v426.666667a128 128 0 0 1-128 128h-170.666667a128 128 0 0 1-115.776-73.344A170.453333 170.453333 0 0 1 469.333333 1024H170.666667a170.666667 170.666667 0 0 1-170.666667-170.666667V170.666667a170.666667 170.666667 0 0 1 170.666667-170.666667h298.666666a170.666667 170.666667 0 0 1 170.666667 170.666667v203.264zM597.333333 469.333333V170.666667a128 128 0 0 0-128-128H170.666667a128 128 0 0 0-128 128v682.666666a128 128 0 0 0 128 128h298.666666a128 128 0 0 0 128-128V469.333333z m-128-149.333333a21.333333 21.333333 0 0 1-21.333333 21.333333H192a21.333333 21.333333 0 0 1 0-42.666666h256a21.333333 21.333333 0 0 1 21.333333 21.333333z m0 192a21.333333 21.333333 0 0 1-21.333333 21.333333H192a21.333333 21.333333 0 0 1 0-42.666666h256a21.333333 21.333333 0 0 1 21.333333 21.333333z m0 192a21.333333 21.333333 0 0 1-21.333333 21.333333H192a21.333333 21.333333 0 0 1 0-42.666666h256a21.333333 21.333333 0 0 1 21.333333 21.333333z m256-320a85.333333 85.333333 0 0 0-85.333333 85.333333v426.666667a85.333333 85.333333 0 0 0 85.333333 85.333333h170.666667a85.333333 85.333333 0 0 0 85.333333-85.333333V469.333333a85.333333 85.333333 0 0 0-85.333333-85.333333h-170.666667z m170.666667 213.333333c0 11.776-10.197333 21.333333-22.762667 21.333334h-125.141333c-12.586667 0-22.762667-9.557333-22.762667-21.333334s10.197333-21.333333 22.762667-21.333333h125.141333c12.586667 0 22.762667 9.557333 22.762667 21.333333z m0 106.666667c0 11.776-10.197333 21.333333-22.762667 21.333333h-125.141333c-12.586667 0-22.762667-9.557333-22.762667-21.333333s10.197333-21.333333 22.762667-21.333333h125.141333c12.586667 0 22.762667 9.557333 22.762667 21.333333z" p-id="8522"></path></svg>