<?xml version="1.0" encoding="UTF-8"?>
<svg width="30px" height="31px" viewBox="0 0 30 31" version="1.1" xmlns="http://www.w3.org/2000/svg" xmlns:xlink="http://www.w3.org/1999/xlink">
    <title>说明</title>
    <g id="离线工单21/10/14" stroke="none" stroke-width="1" fill="none" fill-rule="evenodd">
        <g id="选择工单批量下载" transform="translate(-154.000000, -197.000000)">
            <g id="编组-3" transform="translate(24.000000, 196.000000)">
                <g id="说明" transform="translate(130.000000, 1.500000)">
                    <rect id="矩形" x="0" y="0" width="30" height="30"></rect>
                    <path d="M15,1.66666667 C7.63555555,1.66666667 1.66666667,7.63555555 1.66666667,15 C1.66666667,22.3644445 7.63555555,28.3333333 15,28.3333333 C22.3644445,28.3333333 28.3333333,22.3644445 28.3333333,15 C28.3333333,7.63555555 22.3644445,1.66666667 15,1.66666667 Z M23.1011111,23.1011111 C22.057395,24.1481473 20.8199689,24.9821552 19.4577778,25.5566667 C18.0466667,26.1566667 16.5466667,26.4577778 15,26.4577778 C13.4533333,26.4577778 11.9533333,26.1566667 10.5411111,25.56 C9.18017705,24.9837735 7.94342736,24.1499672 6.89888888,23.1044445 C5.85173341,22.0604004 5.01771896,20.8225871 4.44333333,19.46 C3.8447583,18.0493942 3.53749436,16.5323493 3.5399848,15 C3.5399848,13.4533333 3.84222221,11.9533333 4.44,10.5411111 C5.01622653,9.18017705 5.85003275,7.94342736 6.89555555,6.89888888 C7.93894373,5.85197188 9.17598264,5.01797067 10.5377778,4.44333333 C11.9522222,3.84333333 13.4522222,3.54111112 14.9988889,3.54111112 C16.5455555,3.54111112 18.0455555,3.84333333 19.4566667,4.44111112 C20.8222222,5.01888891 22.0455555,5.84333333 23.1011111,6.89666667 C24.1522222,7.94777779 24.9811111,9.17444445 25.5566667,10.5388889 C26.1555555,11.9533333 26.4566981,13.4533333 26.4566981,15 C26.4638061,18.0399151 25.2556884,20.9565992 23.1011111,23.1011111 L23.1011111,23.1011111 Z M14.8644445,18.9566667 C14.8333333,18.9566667 14.8022222,18.9533333 14.7711111,18.95 C14.2559298,18.8985356 13.879644,18.4397353 13.93,17.9244445 C14.0577778,16.6244445 15.01,15.5755556 16.06,14.5255555 C17.74,12.8466667 17.7677778,12.3122222 17.7966667,11.7477778 C17.8275483,11.0782641 17.5783599,10.4261073 17.1088889,9.94777779 C16.5563334,9.37193328 15.7925131,9.04681798 14.9944445,9.04777779 L14.99,9.04777779 C13.4472202,9.05327601 12.198602,10.30388 12.1955555,11.8466667 C12.1955555,12.364587 11.7756981,12.7844444 11.2577778,12.7844444 C10.7398574,12.7844444 10.319979,12.364587 10.319979,11.8466667 C10.3162742,10.6080195 10.8074821,9.41920036 11.6844445,8.54444445 C12.5572354,7.66496709 13.7453953,7.17090061 14.9844445,7.17221416 C16.3000331,7.16981698 17.5592193,7.70625602 18.4688889,8.65666667 C19.3044444,9.53666667 19.7322222,10.6688889 19.6688889,11.8455555 C19.6044444,13.0522222 19.2344444,14.0022222 17.3855555,15.8511111 C16.4477778,16.7888889 15.8566667,17.4922222 15.7966667,18.1088889 C15.7498179,18.588811 15.3466475,18.9549801 14.8644445,18.9555555 L14.8644445,18.9566667 Z M13.7033333,21.6977778 C13.7032721,22.1007348 13.9182119,22.4731086 14.2671727,22.6746048 C14.6161335,22.876101 15.0460887,22.876101 15.3950495,22.6746048 C15.7440103,22.4731086 15.9589501,22.1007348 15.9588889,21.6977778 C15.9587942,21.0749902 15.4538987,20.5701714 14.8311111,20.5701714 C14.2083236,20.5701714 13.703428,21.0749902 13.7033333,21.6977778 L13.7033333,21.6977778 Z" id="形状" fill="#F7B500" fill-rule="nonzero"></path>
                </g>
            </g>
        </g>
    </g>
</svg>