<?xml version="1.0" encoding="UTF-8"?>
<svg width="31px" height="30px" viewBox="0 0 31 30" version="1.1" xmlns="http://www.w3.org/2000/svg" xmlns:xlink="http://www.w3.org/1999/xlink">
    <title>登录/iconeye 1</title>
    <g id="H5-员工" stroke="none" stroke-width="1" fill="none" fill-rule="evenodd">
        <g id="账号密码登录" transform="translate(-626.000000, -714.000000)" fill="#D3D3D3" fill-rule="nonzero">
            <g id="eye-1" transform="translate(626.000000, 714.000000)">
                <path d="M14.9993424,3.31176395 C17.7617196,3.31176395 20.2910468,4.35544431 22.2442366,6.0851974 L22.4896744,6.30588516 C23.8887375,7.58051164 26.0969911,9.85819105 29.1130464,13.1396324 L29.1130463,13.1396323 C30.0405118,14.1485279 30.0836116,15.6863168 29.214109,16.7455633 L29.1144214,16.860376 L28.0261066,18.039441 C25.3792296,20.8925682 23.4425495,22.8588323 22.2139748,23.9388746 C20.2649101,25.6535005 17.7479804,26.6868142 14.9993414,26.6868142 C12.2342122,26.6868142 9.70283528,25.6411255 7.74896875,23.9079371 L7.50421836,23.6879367 C6.10652816,22.4133102 3.90102667,20.1376933 0.887033902,16.8610538 L0.887033625,16.8610535 C-0.0416080809,15.8513876 -0.0841407476,14.3117639 0.787346438,13.252351 L0.887721663,13.1375383 L2.2317868,11.6841605 C4.73291579,8.99878238 6.57196861,7.13495697 7.74759498,6.09133076 C9.70147118,4.35745267 12.2335377,3.31176395 15.0000302,3.31176395 L14.9993424,3.31176395 Z M14.9993424,5.3743205 C12.8172149,5.3743205 10.7547125,6.18075894 9.11640884,7.6341367 L8.88265867,7.84451195 C7.66853119,8.95276216 5.76553112,10.9038894 3.19840206,13.6745295 L2.40571471,14.5339065 L2.40571469,14.5339066 C2.16369872,14.7970078 2.16369872,15.2016804 2.40571474,15.4647816 L3.45002738,16.5950329 C6.05840649,19.4041612 7.95591836,21.3346634 9.11710721,22.3645289 C10.7554205,23.817217 12.8165598,24.6236554 14.9986873,24.6236554 C17.1670637,24.6236554 19.2171815,23.8268431 20.8513924,22.3892789 L21.0865176,22.179591 C22.3095815,21.0713408 24.2215213,19.1133364 26.7982635,16.3289485 L27.5943895,15.46476 L27.5943895,15.46476 C27.8359839,15.2017584 27.8359839,14.7975727 27.5943894,14.5345714 L26.2977619,13.1327562 C23.8158851,10.466627 22.0008926,8.62480271 20.8754431,7.62861405 C19.2378161,6.17798843 17.178053,5.3736125 14.998697,5.3736125 L14.9993424,5.3743205 Z M15.0000299,8.812512 L15.0000297,8.812512 C18.4173061,8.812512 21.1875369,11.5827524 21.1875369,15.0000192 C21.1875369,18.4172956 18.4172964,21.1875264 15.0000297,21.1875264 L15.0000294,21.1875264 C11.582753,21.1875264 8.81252219,18.417286 8.81252219,15.0000192 C8.81252219,11.5827428 11.5827626,8.812512 15.0000294,8.812512 L15.0000299,8.812512 Z M15.0000299,10.8750144 L15.0000298,10.8750144 C12.7218541,10.8750144 10.875025,12.7218435 10.875025,15.0000192 C10.875025,17.2781949 12.7218541,19.125024 15.0000298,19.125024 L15.0000296,19.125024 C17.2782053,19.125024 19.1250344,17.2781981 19.1250344,15.0000192 C19.1250344,12.7218435 17.2782085,10.8750144 15.0000296,10.8750144 L15.0000299,10.8750144 Z" id="形状"></path>
            </g>
        </g>
    </g>
</svg>