<?xml version="1.0" encoding="UTF-8"?>
<svg width="30px" height="30px" viewBox="0 0 30 30" version="1.1" xmlns="http://www.w3.org/2000/svg" xmlns:xlink="http://www.w3.org/1999/xlink">
    <title>编组备份</title>
    <g id="H5-员工" stroke="none" stroke-width="1" fill="none" fill-rule="evenodd">
        <g id="请设置新密码备份" transform="translate(-626.000000, -672.000000)">
            <g id="编组备份" transform="translate(626.000000, 672.000000)">
                <path d="M0.372110833,7.99583972 L0.372110833,7.99583972 C0.37403517,7.99583972 0.375853929,7.9967197 0.377047005,7.99822953 C0.696074625,8.40186377 0.940619498,8.70117814 1.11065018,8.89614121 C4.46545496,12.7425824 9.44337996,15.1794479 15.0000004,15.1794479 C20.5675307,15.1794479 25.5541333,12.732993 28.9091267,8.87340967 C29.0743155,8.68338277 29.3120692,8.3918971 29.6224193,7.99895267 L29.6224193,7.99895267 C29.6245707,7.99622649 29.6285247,7.99583972 29.6312509,7.99791195 C29.6327628,7.9991051 29.6336445,8.00092531 29.6336435,8.0028513 L29.6341782,11.2899016 L29.6341782,11.2899015 C28.5736809,12.3541276 27.3995166,13.2986688 26.1327974,14.1065378 L29.1487355,17.6416857 L27.4672302,19.0294732 L24.1985411,15.1980606 L24.1985432,15.1980596 C22.6166007,15.9810936 20.9404496,16.5572298 19.2113746,16.9122632 L20.8224531,21.2657467 L18.7597621,22.0041603 L16.9981461,17.2438041 L16.9981475,17.243804 C16.3339715,17.3069518 15.6671732,17.3385329 15.000004,17.3384401 C14.1567675,17.3384401 13.325447,17.2883239 12.5089035,17.1909838 L10.7277629,22.0041603 L8.6650719,21.2657465 L10.3143507,16.8089807 L10.314349,16.8089803 C8.75241214,16.4497213 7.23783425,15.9090784 5.80146168,15.198059 L2.53277266,19.0294088 L0.851267272,17.6416842 L3.86720542,14.1065677 L3.86720261,14.1065659 C2.60048344,13.2986875 1.42631905,12.3541368 0.365821822,11.2899013 L0.365821822,8.00212784 C0.365821822,7.99866938 0.368651475,7.99583972 0.372109939,7.99583972 L0.372110833,7.99583972 Z" id="路径" fill="#D6D6D6" fill-rule="nonzero"></path>
                <rect id="矩形" fill="#D8D8D8" opacity="0" x="0" y="0" width="30" height="30"></rect>
            </g>
        </g>
    </g>
</svg>