<?xml version="1.0" standalone="no"?><!DOCTYPE svg PUBLIC "-//W3C//DTD SVG 1.1//EN" "http://www.w3.org/Graphics/SVG/1.1/DTD/svg11.dtd"><svg t="1576831318905" class="icon" viewBox="0 0 1024 1024" version="1.1" xmlns="http://www.w3.org/2000/svg" p-id="19669" xmlns:xlink="http://www.w3.org/1999/xlink" width="200" height="200"><defs><style type="text/css"></style></defs><path d="M512 512m-512 0a512 512 0 1 0 1024 0 512 512 0 1 0-1024 0Z" fill="#439BEC" p-id="19670"></path><path d="M752.64 701.44c5.12 20.48 20.48 40.96 46.08 61.44 20.48 15.36-76.8 30.72-163.84-56.32H419.84c-20.48 0-40.96-5.12-56.32-20.48 10.24-10.24 25.6-20.48 40.96-30.72h204.8c71.68 0 133.12-61.44 133.12-133.12V348.16c40.96 5.12 76.8 46.08 76.8 92.16V614.4c0 40.96-30.72 76.8-66.56 87.04zM604.16 614.4H384c-51.2 51.2-107.52 66.56-138.24 66.56-20.48 0-30.72-5.12-20.48-10.24 25.6-20.48 40.96-40.96 46.08-61.44-35.84-10.24-66.56-46.08-66.56-87.04V348.16C204.8 296.96 245.76 256 296.96 256h307.2c51.2 0 92.16 40.96 92.16 92.16v174.08c0 51.2-40.96 92.16-92.16 92.16zM368.64 419.84C363.52 414.72 358.4 409.6 348.16 409.6c-5.12 0-15.36 5.12-20.48 10.24-5.12 5.12-5.12 10.24-5.12 20.48 0 5.12 5.12 15.36 10.24 20.48 5.12 5.12 15.36 10.24 20.48 10.24 5.12-5.12 10.24-5.12 15.36-10.24 5.12-5.12 10.24-15.36 10.24-20.48 0-10.24-5.12-15.36-10.24-20.48z m102.4 0c-5.12-5.12-15.36-10.24-20.48-10.24-10.24 0-15.36 5.12-20.48 10.24-5.12 5.12-10.24 10.24-10.24 20.48 0 5.12 5.12 15.36 10.24 20.48 5.12 5.12 15.36 10.24 20.48 10.24 5.12 0 15.36-5.12 20.48-10.24 5.12-5.12 10.24-15.36 10.24-20.48 0-10.24-5.12-15.36-10.24-20.48z m102.4 0c-5.12-5.12-15.36-10.24-20.48-10.24-10.24 0-15.36 5.12-20.48 10.24-10.24 5.12-10.24 10.24-10.24 20.48 0 5.12 5.12 15.36 10.24 20.48 5.12 5.12 15.36 10.24 20.48 10.24 5.12 0 15.36-5.12 20.48-10.24 5.12-5.12 10.24-15.36 10.24-20.48-5.12-10.24-5.12-15.36-10.24-20.48z" fill="#FFFFFF" p-id="19671"></path></svg>