<?xml version="1.0" encoding="UTF-8"?>
<svg width="36px" height="36px" viewBox="0 0 36 36" version="1.1" xmlns="http://www.w3.org/2000/svg" xmlns:xlink="http://www.w3.org/1999/xlink">
    <title>编组 3</title>
    <g id="我的" stroke="none" stroke-width="1" fill="none" fill-rule="evenodd">
        <g id="画板" transform="translate(-219.000000, -356.000000)">
            <g id="编组-3" transform="translate(219.000000, 356.000000)">
                <rect id="矩形" fill="#DEEEF9" x="0" y="0" width="36" height="36" rx="6"></rect>
                <g id="男" transform="translate(6.000000, 6.000000)" fill="#058DFD" fill-rule="nonzero">
                    <path d="M19.9456237,14.0277444 L19.9456238,14.027719 C19.9515873,11.8853703 19.2622201,9.79893311 17.9810846,8.08184212 L21.0774213,4.98555559 L21.0774213,7.39987792 L21.0774213,7.39988641 C21.0747332,8.20287184 21.7235023,8.85599704 22.5264885,8.85868482 C22.5297389,8.8586957 22.5329893,8.85869568 22.5362397,8.85868476 L22.5362396,8.85868476 C23.3419183,8.8586848 23.9950488,8.20555481 23.9950488,7.39987686 L23.9950488,1.58166941 L23.9950488,1.58166963 C24.030452,1.15351759 23.8746928,0.731629105 23.5695628,0.42920189 L23.5695628,0.429201848 C23.2671994,0.124865647 22.8458661,-0.0304009954 22.4183192,0.00495087777 L16.6001066,0.00495087777 L16.6001066,0.00495087777 C15.7944279,0.00495091299 15.1412974,0.658080831 15.1412974,1.46375878 C15.1412974,2.26943673 15.7944279,2.92256669 16.6001066,2.92256669 L19.014431,2.92256669 L15.918118,6.01887696 L15.9181187,6.01887745 C14.2013301,4.73806833 12.115385,4.04872224 9.97347128,4.05433048 L9.97347092,4.05433048 C7.32693368,4.04712728 4.78752774,5.09904968 2.9213252,6.97560281 L2.92132425,6.97560375 C1.0450829,8.84151023 -0.00681254831,11.3804011 3.62949906e-05,14.0265086 L3.62949906e-05,14.0265621 C-0.0071219072,16.673097 1.04480495,19.2125007 2.92137159,21.0786779 L2.9213723,21.0786786 C4.78728042,22.9549183 7.32617349,24.0068128 9.97228335,23.9999638 L9.97228278,23.9999638 C12.6187963,24.007116 15.1582022,22.955189 17.024381,21.0786311 L17.0243812,21.0786309 C18.9006225,19.2127244 19.952518,16.6738336 19.9456323,14.027726 L19.9456237,14.0277444 Z M9.97222684,21.0810961 L9.97222688,21.0810961 C8.10034486,21.0858234 6.30433326,20.3416735 4.98432939,19.0144266 L4.98432879,19.014426 C3.65707361,17.694428 2.91292422,15.8984085 2.91765976,14.0265091 C2.91765976,12.1422156 3.65071981,10.3697545 4.98432879,9.03740508 L4.98432927,9.03740459 C6.30432127,7.7101577 8.10034949,6.96600896 9.97222676,6.97073745 C11.856522,6.97073745 13.6289846,7.70500771 14.9613589,9.03740459 L14.9613592,9.03740484 C16.2890227,10.3576141 17.0332196,12.1541821 17.0280327,14.0265089 C17.0280327,15.9108024 16.2937335,17.6820526 14.9613592,19.0144257 L14.9613591,19.0144257 C13.6410656,20.3419789 11.8445317,21.0861514 9.97222699,21.0810961 L9.97222684,21.0810961 Z" id="形状"></path>
                </g>
            </g>
        </g>
    </g>
</svg>