<?xml version="1.0" encoding="UTF-8"?>
<svg width="36px" height="36px" viewBox="0 0 36 36" version="1.1" xmlns="http://www.w3.org/2000/svg" xmlns:xlink="http://www.w3.org/1999/xlink">
    <title>编组 3备份</title>
    <g id="我的" stroke="none" stroke-width="1" fill="none" fill-rule="evenodd">
        <g id="画板" transform="translate(-278.000000, -356.000000)" fill-rule="nonzero">
            <g id="编组-3备份" transform="translate(278.000000, 356.000000)">
                <rect id="矩形" fill="#FFDFE7" x="0" y="0" width="36" height="36" rx="6"></rect>
                <g id="女" transform="translate(6.000000, 6.000000)" fill="#FF5B86">
                    <path d="M21.3255409,2.6625 C19.5965159,0.945535714 17.2983422,0 14.8545097,0 C12.4106772,0 10.1125035,0.945535714 8.38347851,2.6625 C6.6544535,4.37946429 5.70227592,6.66160714 5.70227592,9.08839286 C5.70227592,11.1642857 6.40359652,13.1303571 7.68755268,14.7321429 L6.20398988,16.2294643 L2.01764541,12.0669643 L0,14.0705357 L4.20522619,18.24375 L2.09856701,20.3678571 L4.13239674,22.3553571 L6.22287159,20.2473214 L9.99921326,24 L12.0168587,21.9964286 L8.22163529,18.2303571 L9.78342231,16.6553571 C11.2723799,17.64375 13.022984,18.1741071 14.8545097,18.1741071 C17.2983422,18.1741071 19.5965159,17.2285714 21.3255409,15.5142857 C24.8914864,11.9678571 24.8914864,6.20357143 21.3255409,2.6625 Z M19.3078955,13.5080357 C18.1183479,14.6892857 16.5376791,15.3401786 14.8545097,15.3401786 C13.1713403,15.3401786 11.5906715,14.6892857 10.4011239,13.5080357 C9.21157629,12.3267857 8.55611127,10.7571429 8.55611127,9.08571429 C8.55611127,7.41428571 9.21157629,5.84464286 10.4011239,4.66339286 C11.5906715,3.48214286 13.1713403,2.83125 14.8545097,2.83125 C16.5376791,2.83125 18.1183479,3.48214286 19.3078955,4.66339286 C21.7625176,7.10357143 21.7625176,11.0705357 19.3078955,13.5080357 Z" id="形状"></path>
                </g>
            </g>
        </g>
    </g>
</svg>