<?xml version="1.0" encoding="UTF-8"?>
<svg width="30px" height="37px" viewBox="0 0 30 37" version="1.1" xmlns="http://www.w3.org/2000/svg" xmlns:xlink="http://www.w3.org/1999/xlink">
    <!-- Generator: Sketch 64 (93537) - https://sketch.com -->
    <title>形状结合备份</title>
    <desc>Created with Sketch.</desc>
    <g id="社区端h5" stroke="none" stroke-width="1" fill="none" fill-rule="evenodd">
        <g id="首页" transform="translate(-35.000000, -208.000000)">
            <rect fill="#FFFFFF" x="0" y="0" width="750" height="2088"></rect>
            <path d="M50,209 C58.8875058,209 65,215.6375 65,224.47049 C65,233.155026 51.4936985,243.960825 50.8962191,244.406186 L50,245 L49.1037809,244.406186 C48.5063015,243.960825 35,233.155026 35,224.47049 C35,215.563273 41.1124942,209 50,209 Z M50,217 C46.1818182,217 43,220.181818 43,224 C43,227.818182 46.1818182,231 50,231 C53.8181818,231 57,227.818182 57,224 C57,220.181818 53.8181818,217 50,217 Z" id="形状结合备份" fill="#BC8D58" fill-rule="nonzero"></path>
        </g>
    </g>
</svg>