<?xml version="1.0" encoding="UTF-8"?>
<svg width="38px" height="39px" viewBox="0 0 38 39" version="1.1" xmlns="http://www.w3.org/2000/svg" xmlns:xlink="http://www.w3.org/1999/xlink">
    <title>icon定位</title>
    <g id="员工端-我的待办" stroke="none" stroke-width="1" fill="none" fill-rule="evenodd">
        <g id="智能门禁巡检计划" transform="translate(-284.000000, -311.000000)" fill="#6A98FF" fill-rule="nonzero">
            <g id="编组-2" transform="translate(284.000000, 310.000000)">
                <g id="位置" transform="translate(0.000000, 1.000000)">
                    <path d="M32.3913043,14.7186356 C32.3913043,7.67704898 26.3990269,1.96836777 19,1.96836777 C11.6055362,1.96836777 5.60869565,7.67704898 5.60869565,14.7186356 C5.60869565,17.0424498 6.27551914,19.2171776 7.41734194,21.0937881 L7.3990728,21.0937881 L18.9999794,37.0316322 L30.6054491,21.0937881 L30.5871799,21.0937881 C31.7335697,19.2171998 32.3913043,17.0424684 32.3913043,14.7186356 L32.3913043,14.7186356 Z M19.0045631,21.0894076 C15.3050574,21.0894076 12.3089109,18.2394475 12.3089109,14.7186356 C12.3089109,11.1978386 15.3050535,8.34348314 19.0045631,8.34348314 C22.7040688,8.34348314 25.7002153,11.1978275 25.7002153,14.7186356 C25.7002153,18.2394327 22.7040727,21.0894076 19.0045631,21.0894076 Z" id="形状"></path>
                </g>
            </g>
        </g>
    </g>
</svg>