<?xml version="1.0" standalone="no"?><!DOCTYPE svg PUBLIC "-//W3C//DTD SVG 1.1//EN" "http://www.w3.org/Graphics/SVG/1.1/DTD/svg11.dtd"><svg t="1576831281229" class="icon" viewBox="0 0 1024 1024" version="1.1" xmlns="http://www.w3.org/2000/svg" p-id="18802" xmlns:xlink="http://www.w3.org/1999/xlink" width="200" height="200"><defs><style type="text/css"></style></defs><path d="M512 512m-512 0a512 512 0 1 0 1024 0 512 512 0 1 0-1024 0Z" fill="#0FB235" p-id="18803"></path><path d="M790.158222 622.734222h-73.756444c-11.036444 0-19.996444-5.632-19.996445-17.493333s8.96-17.464889 19.996445-17.464889h74.410666c11.036444 0 19.342222 5.603556 19.342223 17.464889s-8.96 17.493333-19.996445 17.493333z m19.029334-92.928c0 11.861333-8.305778 17.493333-19.342223 17.493334h-110.364444c-11.036444 0-19.996444-5.632-19.996445-17.493334s8.96-17.464889 19.996445-17.464889h110.990222c11.036444-0.028444 18.716444 5.603556 18.716445 17.464889z m-101.290667 181.191111c0 25.998222-21.077333 41.898667-46.990222 41.898667H274.545778C248.632889 752.896 227.555556 736.995556 227.555556 710.997333v-11.292444c0-23.808 17.521778-44.942222 39.850666-52.963556l95.687111-42.723555s25.941333-7.992889 33.024-15.957334c4.721778-5.319111 6.172444-22.812444 0.199111-34.304-5.973333-11.491556-54.471111-74.695111-54.471111-127.687111 0-85.475556 56.092444-154.794667 125.297778-154.794666 69.205333 0 125.297778 69.290667 125.297778 154.794666 0 55.352889-54.385778 116.280889-58.88 131.271111-4.465778 14.990222-4.835556 26.737778 0.227555 31.715556 7.850667 7.736889 28.103111 15.616 28.103112 15.616l106.126222 41.415111c22.357333 8.049778 39.850667 29.809778 39.850666 53.617778v11.292444z m-58.225778-278.755555h140.544c11.036444 0 19.342222 5.603556 19.342222 17.464889s-9.585778 17.464889-20.650666 17.464889H649.671111c-11.036444 0-19.996444-5.603556-19.996444-17.464889s8.96-17.464889 19.996444-17.464889z" fill="#FFFEFF" p-id="18804"></path></svg>