<?xml version="1.0" standalone="no"?><!DOCTYPE svg PUBLIC "-//W3C//DTD SVG 1.1//EN" "http://www.w3.org/Graphics/SVG/1.1/DTD/svg11.dtd"><svg t="1579251015225" class="icon" viewBox="0 0 1024 1024" version="1.1" xmlns="http://www.w3.org/2000/svg" p-id="5284" xmlns:xlink="http://www.w3.org/1999/xlink" width="200" height="200"><defs><style type="text/css"></style></defs><path d="M822.343187 768.222569 822.343187 281.679357l-0.048095-0.665149c-2.983961-41.299615-41.398876-54.624085-61.295018-55.899124l-0.547469-0.034792L135.957485 225.080292c-27.523867 0-49.094138 12.267395-60.737316 34.541701-8.347109 15.96767-8.721639 31.649837-8.736988 33.384341l0 479.035214c0 27.028587 10.648524 41.292452 19.580964 48.498574 8.970302 7.236821 20.627806 11.06194 33.712823 11.060917 4.851495 0 8.841366-0.530073 11.249205-0.952698l301.733089 0.01228 0.258896-0.002047c0.488117-0.008186 0.967024-0.011256 1.455141-0.011256 79.68997 0 160.662143 96.631828 161.627121 97.795327 0 0 14.740726 34.334993 27.931143 28.474518 13.19144-5.860475 3.070942-40.679491 3.070942-40.679491-0.771573-26.099425 5.506411-46.382377 18.657942-60.283991 20.367887-21.530362 54.537104-26.049283 79.614246-26.049283 20.582781 0 36.250622 3.090385 36.382629 3.116991l2.192945 0.446162 2.230808-0.12996c24.179702-1.417279 37.474496-12.151761 44.369533-20.907169C823.976384 795.384186 823.013453 774.556834 822.343187 768.222569zM783.072789 789.903358c-3.28686 4.073782-8.990768 6.514367-16.97051 7.269567-5.862521-1.01819-21.38403-3.344165-40.72554-3.344165-31.867802 0-75.928297 6.4192-104.863303 37.004799-11.841699 12.517081-20.042475 27.809369-24.547069 45.703925-34.059724-32.803103-96.028077-81.966826-161.491021-81.966826-0.617054 0-1.223874 0.004093-1.838881 0.013303l-303.272141-0.01228-1.860371-0.084934-2.054799 0.535189c-0.457418 0.091074-2.700505 0.502443-5.672186 0.502443-3.567245 0-8.538467-0.579191-11.960403-3.339048-5.085832-4.103458-6.15314-13.220093-6.15314-20.145829L101.663424 293.310256c0.01842-0.468674 0.435928-8.749268 4.563946-16.647145 5.53097-10.580986 14.979156-15.510252 29.732162-15.510252l623.162776 0c1.77339 0.196475 8.744151 1.150196 15.445784 4.555759 10.075473 5.119601 12.106736 11.893888 12.597923 17.374716L787.166013 769.334903l-0.067538 1.198292 0.264013 1.506307C787.737018 775.198447 787.673573 784.202519 783.072789 789.903358z" p-id="5285" fill="#00a1d9"></path><path d="M253.655094 530.458397m-54.487985 0a53.247 53.247 0 1 0 108.97597 0 53.247 53.247 0 1 0-108.97597 0Z" p-id="5286" fill="#00a1d9"></path><path d="M444.208011 530.458397m-54.487985 0a53.247 53.247 0 1 0 108.97597 0 53.247 53.247 0 1 0-108.97597 0Z" p-id="5287" fill="#00a1d9"></path><path d="M636.606972 531.99438m-54.487985 0a53.247 53.247 0 1 0 108.97597 0 53.247 53.247 0 1 0-108.97597 0Z" p-id="5288" fill="#00a1d9"></path><path d="M209.520921 242.666832" p-id="5289" fill="#00a1d9"></path><path d="M884.306424 645.319401 817.134559 645.319401l0-40.932248 67.171865 0c20.760836 0 38.300304-13.404288 38.300304-29.27065L922.606729 135.083581c0-15.866363-17.539468-29.27065-38.300304-29.27065l-602.328261 0c-20.760836 0-38.300304 13.404288-38.300304 29.27065l0 96.741321-40.932248 0 0-96.741321c0-38.709627 35.543517-70.202898 79.232552-70.202898l602.328261 0c43.688012 0 79.232552 31.492248 79.232552 70.202898l0 440.033945C963.538977 613.827153 927.994436 645.319401 884.306424 645.319401z" p-id="5290" fill="#00a1d9"></path></svg>