<?xml version="1.0" standalone="no"?><!DOCTYPE svg PUBLIC "-//W3C//DTD SVG 1.1//EN" "http://www.w3.org/Graphics/SVG/1.1/DTD/svg11.dtd"><svg t="1579249848534" class="icon" viewBox="0 0 1024 1024" version="1.1" xmlns="http://www.w3.org/2000/svg" p-id="36710" xmlns:xlink="http://www.w3.org/1999/xlink" width="200" height="200"><defs><style type="text/css"></style></defs><path d="M905.75 289.981V849.5A112.5 112.5 0 0 1 793.25 962h-562.5a112.5 112.5 0 0 1-112.5-112.5v-675A112.5 112.5 0 0 1 230.75 62h451.294l8.212 8.1 104.682 103.556L905.75 289.981z m-150.919-76.894l-95.906-94.837H230.75a56.25 56.25 0 0 0-56.25 56.25v675a56.25 56.25 0 0 0 56.25 56.25h562.5a56.25 56.25 0 0 0 56.25-56.25V312.481l-94.669-99.393zM343.25 483.875a28.125 28.125 0 0 1 0-56.25H710a28.125 28.125 0 1 1 0 56.25H343.25z m0 225a28.125 28.125 0 1 1 0-56.25H710a28.125 28.125 0 1 1 0 56.25H343.25z m309.094-602.269h56.25v123.75a28.125 28.125 0 0 0 28.125 28.125h115.143v56.25H736.72a84.375 84.375 0 0 1-84.375-84.375v-123.75z" p-id="36711" fill="#1989fa"></path></svg>