<?xml version="1.0" standalone="no"?><!DOCTYPE svg PUBLIC "-//W3C//DTD SVG 1.1//EN" "http://www.w3.org/Graphics/SVG/1.1/DTD/svg11.dtd"><svg t="1579247324042" class="icon" viewBox="0 0 1024 1024" version="1.1" xmlns="http://www.w3.org/2000/svg" p-id="7517" xmlns:xlink="http://www.w3.org/1999/xlink" width="200" height="200"><defs><style type="text/css"></style></defs><path d="M512 512m-512 0a512 512 0 1 0 1024 0 512 512 0 1 0-1024 0Z" fill="#FF6E6E" p-id="7518"></path><path d="M512 281.6c-127.744 0-230.4 103.68-230.4 230.4 0 123.5712 98.432 225.152 220.9792 230.4h135.0912c10.496 0 20.9408-10.496 20.9408-20.9408v-31.4112C709.9392 648.1408 742.4 584.2688 742.4 512c0-126.72-102.656-230.4-230.4-230.4z m-120.448 261.8112c-14.6432 0-26.1632-11.52-26.1632-26.1632 0-14.6688 11.52-26.1888 26.1632-26.1888 14.6688 0 26.1888 11.52 26.1888 26.1888 0 14.6432-11.52 26.1632-26.1888 26.1632z m120.448 0c-14.6688 0-26.1888-11.52-26.1888-26.1632 0-14.6688 11.52-26.1888 26.1888-26.1888s26.1888 11.52 26.1888 26.1888c0 14.6432-11.52 26.1632-26.1888 26.1632z m120.448 0c-14.6688 0-26.1888-11.52-26.1888-26.1632 0-14.6688 11.52-26.1888 26.1888-26.1888 14.6432 0 26.1632 11.52 26.1632 26.1888 0 14.6432-11.52 26.1632-26.1632 26.1632z" fill="#FFFFFF" p-id="7519"></path></svg>