<?xml version="1.0" standalone="no"?><!DOCTYPE svg PUBLIC "-//W3C//DTD SVG 1.1//EN" "http://www.w3.org/Graphics/SVG/1.1/DTD/svg11.dtd"><svg t="1579247309942" class="icon" viewBox="0 0 1024 1024" version="1.1" xmlns="http://www.w3.org/2000/svg" p-id="6698" xmlns:xlink="http://www.w3.org/1999/xlink" width="200" height="200"><defs><style type="text/css"></style></defs><path d="M11.636364 512c0 275.781818 224.581818 500.363636 500.363636 500.363636s500.363636-224.581818 500.363636-500.363636S787.781818 11.636364 512 11.636364 11.636364 236.218182 11.636364 512z m0 0" fill="#FF3333" p-id="6699"></path><path d="M424.727273 736.581818c0 47.709091 37.236364 83.781818 86.109091 83.781818s86.109091-36.072727 86.109091-83.781818H424.727273zM768 630.690909c-13.963636-15.127273-54.690909-60.509091-54.690909-60.509091-1.163636-1.163636-1.163636-3.490909-1.163636-4.654545V442.181818c0-84.945455-57.018182-154.763636-137.309091-175.709091-3.490909-1.163636-4.654545-3.490909-4.654546-5.818182 0-31.418182-25.6-55.854545-57.018182-55.854545s-57.018182 25.6-57.018181 55.854545c0 3.490909-2.327273 5.818182-5.818182 6.981819-80.290909 18.618182-137.309091 90.763636-137.309091 175.709091v123.345454c0 1.163636 0 3.490909-1.163637 4.654546 0 0-40.727273 44.218182-53.527272 60.50909-1.163636 1.163636-1.163636 3.490909-1.163637 4.654546v17.454545c0 31.418182 25.6 55.854545 57.018182 55.854546h400.290909c31.418182 0 57.018182-25.6 57.018182-55.854546v-17.454545c-2.327273-2.327273-3.490909-4.654545-3.490909-5.818182zM494.545455 349.090909h-1.163637c-11.636364 3.490909-22.109091 11.636364-32.581818 16.290909 0 0-1.163636 0-1.163636 1.163637-27.927273 22.109091-45.381818 53.527273-45.381819 88.436363V512c0 17.454545-11.636364 27.927273-29.090909 27.927273s-29.090909-11.636364-29.090909-27.927273v-55.854545c0-53.527273 25.6-101.236364 65.163637-134.981819 13.963636-10.472727 31.418182-19.781818 51.2-24.436363 13.963636-5.818182 31.418182 3.490909 37.236363 17.454545 6.981818 12.8-1.163636 29.090909-15.127272 34.909091z" fill="#FFFFFF" p-id="6700"></path></svg>