<?xml version="1.0" standalone="no"?><!DOCTYPE svg PUBLIC "-//W3C//DTD SVG 1.1//EN" "http://www.w3.org/Graphics/SVG/1.1/DTD/svg11.dtd"><svg t="1579249730398" class="icon" viewBox="0 0 1024 1024" version="1.1" xmlns="http://www.w3.org/2000/svg" p-id="32667" xmlns:xlink="http://www.w3.org/1999/xlink" width="200" height="200"><defs><style type="text/css"></style></defs><path d="M512 957.44c-56.32 0-100.864-38.4-115.712-89.088H185.344c-23.552 0-41.472-8.704-53.248-26.624-14.848-23.552-11.776-53.248 3.072-86.016 3.072-3.072 3.072-6.144 6.144-8.704L215.04 678.4V422.912c0-124.928 77.312-234.496 193.024-279.04C414.208 99.328 458.752 66.56 512 66.56s97.792 32.768 103.936 77.312c115.712 44.544 193.024 154.624 193.024 279.04v255.488l74.24 68.096c3.072 3.072 6.144 6.144 6.144 8.704 14.848 32.768 17.92 62.464 3.072 86.016-11.776 17.92-29.696 26.624-53.248 26.624h-210.944c-15.36 51.2-59.904 89.6-116.224 89.6z m-50.688-89.088c8.704 17.92 29.696 29.696 50.688 29.696 20.992 0 41.472-11.776 50.688-29.696H461.312z m380.416-59.392s3.072-8.704-3.072-23.552l-80.384-74.24c-6.144-6.144-8.704-11.776-8.704-20.992V422.912c0-107.008-71.168-199.168-172.032-228.864-14.848-3.072-23.552-20.992-20.992-35.84v-3.072c0-14.848-20.992-29.696-44.544-29.696s-44.544 14.848-44.544 29.696v3.584c3.072 14.848-6.144 29.696-20.992 35.84-100.864 29.696-172.032 121.856-172.032 228.864v267.264c0 8.704-3.072 14.848-8.704 20.992l-80.384 74.24c-6.144 11.776-6.144 20.992-3.072 23.552h659.456z" p-id="32668" fill="#ee0a24"></path></svg>