<?xml version="1.0" standalone="no"?><!DOCTYPE svg PUBLIC "-//W3C//DTD SVG 1.1//EN" "http://www.w3.org/Graphics/SVG/1.1/DTD/svg11.dtd"><svg t="1579247376108" class="icon" viewBox="0 0 1024 1024" version="1.1" xmlns="http://www.w3.org/2000/svg" p-id="9918" xmlns:xlink="http://www.w3.org/1999/xlink" width="200" height="200"><defs><style type="text/css"></style></defs><path d="M512 512m-512 0a512 512 0 1 0 1024 0 512 512 0 1 0-1024 0Z" fill="#F5222D" p-id="9919"></path><path d="M512 768a256 256 0 1 1 0-512 256 256 0 0 1 0 512z m0-272V320a16 16 0 0 0-32 0v192a16 16 0 0 0 16 16h192a16 16 0 1 0 0-32H512z" fill="#FFFFFF" p-id="9920"></path></svg>