<?xml version="1.0" standalone="no"?><!DOCTYPE svg PUBLIC "-//W3C//DTD SVG 1.1//EN" "http://www.w3.org/Graphics/SVG/1.1/DTD/svg11.dtd"><svg t="1579251221746" class="icon" viewBox="0 0 1024 1024" version="1.1" xmlns="http://www.w3.org/2000/svg" p-id="3681" xmlns:xlink="http://www.w3.org/1999/xlink" width="200" height="200"><defs><style type="text/css"></style></defs><path d="M560.407273 863.627636V166.935273l-243.572364 193.349818H116.363636v293.236364h202.24l241.803637 210.106181zM116.363636 290.466909h176.128l254.696728-202.170182a51.2 51.2 0 0 1 83.013818 40.098909v776.075637a51.2 51.2 0 0 1-84.759273 38.632727l-252.951273-219.741091H116.363636a69.818182 69.818182 0 0 1-69.818181-69.818182v-293.236363a69.818182 69.818182 0 0 1 69.818181-69.818182z m629.410909 449.536a34.909091 34.909091 0 0 1-48.64-50.059636 243.479273 243.479273 0 0 0 74.077091-175.290182c0-62.068364-23.179636-120.436364-64.325818-165.236364a34.909091 34.909091 0 1 1 51.432727-47.220363 313.111273 313.111273 0 0 1 82.711273 212.48c0 85.992727-34.769455 166.562909-95.255273 225.326545z m117.620364 138.356364a34.909091 34.909091 0 0 1-51.153454-47.499637c77.312-83.269818 121.879273-197.701818 121.879272-320.302545 0-113.687273-38.283636-220.485818-105.890909-302.103273a34.909091 34.909091 0 0 1 53.76-44.544c78.010182 94.184727 121.949091 216.738909 121.949091 346.647273 0 140.148364-51.2 271.592727-140.544 367.802182z" p-id="3682" fill="#67C23A"></path></svg>