<?xml version="1.0" standalone="no"?><!DOCTYPE svg PUBLIC "-//W3C//DTD SVG 1.1//EN" "http://www.w3.org/Graphics/SVG/1.1/DTD/svg11.dtd"><svg t="1579247266161" class="icon" viewBox="0 0 1024 1024" version="1.1" xmlns="http://www.w3.org/2000/svg" p-id="5158" xmlns:xlink="http://www.w3.org/1999/xlink" width="200" height="200"><defs><style type="text/css"></style></defs><path d="M512 512m-485.034667 0a485.034667 485.034667 0 1 0 970.069334 0 485.034667 485.034667 0 1 0-970.069334 0Z" fill="#FFC646" p-id="5159"></path><path d="M443.264 242.517333h137.472l-25.301333 322.346667h-86.869334l-25.301333-322.346667z m68.181333 385.621334c23.082667 0 42.88 6.4 58.282667 21.418666 15.402667 13.952 23.125333 32.170667 23.125333 54.698667s-7.68 40.746667-23.125333 55.765333c-16.469333 13.952-36.266667 21.461333-58.282667 21.461334-21.973333 0-40.704-7.509333-56.106666-22.528a70.698667 70.698667 0 0 1-24.192-54.698667c0-22.528 7.68-40.746667 24.192-54.698667 15.402667-14.976 34.133333-21.418667 56.106666-21.418666z" fill="#FFFFFF" p-id="5160"></path></svg>