<?xml version="1.0" standalone="no"?><!DOCTYPE svg PUBLIC "-//W3C//DTD SVG 1.1//EN" "http://www.w3.org/Graphics/SVG/1.1/DTD/svg11.dtd"><svg t="1579247171638" class="icon" viewBox="0 0 1024 1024" version="1.1" xmlns="http://www.w3.org/2000/svg" p-id="2951" xmlns:xlink="http://www.w3.org/1999/xlink" width="200" height="200"><defs><style type="text/css"></style></defs><path d="M512 512m-506.434783 0a506.434783 506.434783 0 1 0 1012.869566 0 506.434783 506.434783 0 1 0-1012.869566 0Z" fill="#FF884C" p-id="2952"></path><path d="M487.513043 726.817391c-32.278261-28.93913-64.556522-57.878261-97.947826-86.817391-17.808696-14.469565-34.504348-28.93913-52.313043-43.408696H310.53913c-7.791304 0-14.469565-2.226087-20.034782-7.791304-5.565217-4.452174-7.791304-11.130435-7.791305-17.808696V456.347826c0-8.904348 2.226087-15.582609 7.791305-21.147826 5.565217-5.565217 12.243478-8.904348 20.034782-7.791304h25.6c27.826087-23.373913 53.426087-45.634783 76.8-64.556522 10.017391-7.791304 18.921739-16.695652 28.939131-24.486957 8.904348-7.791304 17.808696-14.469565 25.6-21.147826 10.017391-7.791304 18.921739-15.582609 28.93913-23.373913 8.904348-6.678261 16.695652-10.017391 22.26087-8.904348 5.565217 1.113043 10.017391 3.33913 13.356522 7.791305 3.33913 4.452174 5.565217 11.130435 6.67826 17.808695 1.113043 6.678261 2.226087 13.356522 2.226087 18.92174V701.217391c0 5.565217-1.113043 12.243478-3.33913 18.921739-2.226087 6.678261-5.565217 12.243478-10.017391 15.582609-4.452174 4.452174-11.130435 5.565217-16.695652 4.452174-6.678261 0-14.469565-4.452174-23.373914-13.356522z m148.034783-272.695652c6.678261 8.904348 11.130435 17.808696 15.582609 26.713044 3.33913 8.904348 5.565217 20.034783 5.565217 33.391304 0 12.243478-2.226087 23.373913-5.565217 33.391304-4.452174 10.017391-8.904348 18.921739-15.582609 26.713044-2.226087 3.33913-4.452174 6.678261-7.791304 8.904348-3.33913 2.226087-6.678261 4.452174-10.017392 4.452174-5.565217 0-10.017391-2.226087-14.469565-5.565218-3.33913-3.33913-5.565217-8.904348-5.565217-14.469565 0-2.226087 0-4.452174 1.113043-7.791304 1.113043-3.33913 3.33913-6.678261 5.565218-10.017392l6.678261-10.017391c4.452174-7.791304 7.791304-16.695652 6.67826-25.6 0-5.565217-1.113043-10.017391-2.226087-14.469565s-3.33913-7.791304-5.565217-11.130435l-6.678261-10.017391c-2.226087-3.33913-3.33913-6.678261-5.565217-10.017392-1.113043-2.226087-1.113043-4.452174-1.113044-7.791304 0-5.565217 2.226087-10.017391 5.565218-14.469565 3.33913-3.33913 8.904348-5.565217 14.469565-5.565218 4.452174 0 7.791304 1.113043 10.017391 4.452174 3.33913 2.226087 6.678261 5.565217 8.904348 8.904348z m25.6 205.913044c-3.33913 2.226087-7.791304 4.452174-13.356522 4.452174s-11.130435-2.226087-15.582608-6.678261c-4.452174-4.452174-6.678261-10.017391-6.678261-15.582609 0-7.791304 3.33913-14.469565 10.017391-18.921739 8.904348-5.565217 16.695652-12.243478 23.373913-21.147826 7.791304-7.791304 13.356522-16.695652 18.921739-25.6 5.565217-8.904348 10.017391-18.921739 12.243479-30.052174 3.33913-11.130435 4.452174-22.26087 4.452173-33.391305 0-23.373913-5.565217-44.521739-17.808695-63.443478-11.130435-18.921739-25.6-34.504348-43.408696-46.747826-6.678261-4.452174-10.017391-11.130435-10.017391-18.921739 0-5.565217 2.226087-11.130435 6.678261-15.582609 4.452174-4.452174 10.017391-6.678261 15.582608-6.678261 5.565217 0 10.017391 2.226087 13.356522 5.565218 11.130435 7.791304 22.26087 17.808696 31.165218 27.826087 20.034783 21.147826 33.391304 46.747826 41.182608 74.573913 4.452174 14.469565 5.565217 28.93913 5.565218 43.408695 0 15.582609-2.226087 30.052174-5.565218 44.52174-3.33913 14.469565-10.017391 27.826087-16.695652 40.069565-11.130435 25.6-30.052174 46.747826-53.426087 62.330435z m0 0" fill="#FFFFFF" p-id="2953"></path></svg>