<?xml version="1.0" encoding="UTF-8"?>
<svg width="33px" height="37px" viewBox="0 0 33 37" version="1.1" xmlns="http://www.w3.org/2000/svg" xmlns:xlink="http://www.w3.org/1999/xlink">
    <!-- Generator: Sketch 60 (88103) - https://sketch.com -->
    <title>消息提醒</title>
    <desc>Created with Sketch.</desc>
    <g id="员工端" stroke="none" stroke-width="1" fill="none" fill-rule="evenodd">
        <g id="消息" transform="translate(-31.000000, -849.000000)">
            <g id="背景色" fill="#F6F8FA">
                <rect id="矩形" x="0" y="0" width="750" height="1624"></rect>
            </g>
            <g id="工单列表" transform="translate(0.000000, 804.000000)">
                <rect id="Rectangle" fill="#FFFFFF" fill-rule="evenodd" x="0" y="0" width="750" height="128"></rect>
                <g id="消息提醒" stroke-width="1" fill-rule="evenodd" transform="translate(27.000000, 43.000000)">
                    <rect id="矩形" fill="#000000" fill-rule="nonzero" opacity="0" x="0" y="0" width="41.6" height="41.6"></rect>
                    <path d="M35.9918,29.9351 C35.5251,29.3007 35.0064,28.5389 34.4305,27.6575 C33.8728,26.8112 33.3398,25.857 32.8393,24.8092 C32.3544,23.8134 31.9215,22.7149 31.5549,21.541 C31.2221,20.462 31.0544,19.3427 31.0544,18.2182 C31.0544,16.8506 30.8607,15.587 30.4759,14.4651 C30.1015,13.351 29.588,12.337 28.9458,11.4413 C28.2984,10.5534 27.5223,9.7955 26.6396,9.1897 C25.8375,8.6346 24.9574,8.2017 23.9018,7.8455 C24.1189,7.3788 24.2476,6.8627 24.2476,6.3128 C24.2476,4.2822 22.5966,2.6312 20.566,2.6312 C18.5354,2.6312 16.8844,4.2822 16.8844,6.3128 C16.8844,6.8575 17.0105,7.3736 17.225,7.8377 C17.1301,7.8611 17.0183,7.8793 16.9338,7.9027 C16.0329,8.2147 15.1489,8.6736 14.2844,9.2781 C13.4251,9.8995 12.6776,10.6405 12.0575,11.4712 C11.4049,12.3435 10.881,13.3471 10.5014,14.4508 C10.0984,15.5935 9.8982,16.8753 9.8982,18.2585 C9.8982,19.422 9.7305,20.5517 9.4003,21.6047 C9.0389,22.737 8.6112,23.8186 8.1289,24.8248 C7.6674,25.792 7.1539,26.7319 6.5624,27.6887 C5.9748,28.6325 5.4691,29.484 5.0687,30.1938 C4.3433,31.3209 4.628,32.2634 4.8646,32.6833 C5.265,33.3801 5.9345,33.8442 6.7561,33.8442 L34.1978,33.8442 C34.5748,33.8442 34.9466,33.6609 35.2703,33.4698 C35.6057,33.2865 35.8917,32.9745 36.0932,32.6625 C36.3233,32.3167 36.4546,31.8994 36.478,31.4548 C36.5105,30.9283 36.3428,30.4018 35.9918,29.9351 L35.9918,29.9351 Z M20.5686,5.2091 C21.1744,5.2091 21.6697,5.7018 21.6697,6.3102 C21.6697,6.9186 21.1744,7.4113 20.5686,7.4113 C19.9628,7.4113 19.4675,6.916 19.4675,6.3102 C19.4675,5.7044 19.9602,5.2091 20.5686,5.2091 L20.5686,5.2091 Z M7.5179,31.2611 C7.8819,31.2611 8.2914,29.8701 8.7542,29.1252 C9.399,28.0852 9.9541,27.0283 10.4546,25.9753 C10.9863,24.869 11.4582,23.6561 11.8599,22.4029 C12.2707,21.0899 12.4787,19.6911 12.4787,18.2676 C12.4787,17.1756 12.6334,16.1785 12.9402,15.301 C13.234,14.4417 13.6318,13.676 14.1245,13.0156 C14.5886,12.3916 15.1515,11.8339 15.7781,11.3802 C16.4359,10.9187 17.0911,10.5781 17.7125,10.361 C17.9959,10.2791 18.8734,10.1803 20.4139,10.1803 C21.8582,10.1803 22.9957,10.2622 23.0763,10.2674 C23.8251,10.5157 24.5258,10.8628 25.1719,11.3126 C25.8141,11.7559 26.3822,12.311 26.8515,12.9558 C27.339,13.6344 27.7368,14.4183 28.028,15.2906 C28.3192,16.1499 28.4687,17.1353 28.4687,18.2182 C28.4687,19.6014 28.6754,20.9755 29.0849,22.3041 C29.4905,23.6067 29.9728,24.83 30.511,25.9311 C31.0609,27.0738 31.6511,28.2139 32.2673,29.1512 C32.7626,29.9065 33.2137,31.2611 33.6479,31.2611 L7.5179,31.2611 L7.5179,31.2611 Z M15.56925,36.4208 L25.56925,36.4208 L25.56925,39 L15.56925,39 L15.56925,36.4208 L15.56925,36.4208 Z" id="形状" fill="#FA5151" fill-rule="nonzero"></path>
                </g>
                <text id="Label" opacity="0.9" font-family="PingFangSC-Regular, PingFang SC" font-size="34" font-weight="normal" line-spacing="47.5999985" fill="#333333">
                    <tspan x="96" y="57">工单 SK0000004322</tspan>
                </text>
                <text id="Label备份" font-family="PingFangSC-Regular, PingFang SC" font-size="28" font-weight="normal" line-spacing="39.2000008" fill="#999999">
                    <tspan x="536.812" y="74">2月19日 21:39</tspan>
                </text>
                <g id="分割线" transform="translate(0.000000, 127.000000)" fill="#000000" fill-opacity="0.1" fill-rule="evenodd" stroke-width="1">
                    <g id="➤分割线">
                        <rect id="Rectangle-17" x="0" y="0" width="750" height="1"></rect>
                    </g>
                </g>
                <text id="维修时间超时，请及时处理" font-family="PingFangSC-Regular, PingFang SC" font-size="26" font-weight="normal" fill="#999999">
                    <tspan x="96" y="99">维修时间超时，请及时处理</tspan>
                </text>
            </g>
            <g id="工单列表备份-4" transform="translate(0.000000, 804.000000)">
                <rect id="Rectangle" fill="#FFFFFF" x="0" y="0" width="750" height="128"></rect>
                <g id="消息提醒" transform="translate(27.000000, 43.000000)" fill-rule="nonzero">
                    <rect id="矩形" fill="#000000" opacity="0" x="0" y="0" width="41.6" height="41.6"></rect>
                    <path d="M35.9918,29.9351 C35.5251,29.3007 35.0064,28.5389 34.4305,27.6575 C33.8728,26.8112 33.3398,25.857 32.8393,24.8092 C32.3544,23.8134 31.9215,22.7149 31.5549,21.541 C31.2221,20.462 31.0544,19.3427 31.0544,18.2182 C31.0544,16.8506 30.8607,15.587 30.4759,14.4651 C30.1015,13.351 29.588,12.337 28.9458,11.4413 C28.2984,10.5534 27.5223,9.7955 26.6396,9.1897 C25.8375,8.6346 24.9574,8.2017 23.9018,7.8455 C24.1189,7.3788 24.2476,6.8627 24.2476,6.3128 C24.2476,4.2822 22.5966,2.6312 20.566,2.6312 C18.5354,2.6312 16.8844,4.2822 16.8844,6.3128 C16.8844,6.8575 17.0105,7.3736 17.225,7.8377 C17.1301,7.8611 17.0183,7.8793 16.9338,7.9027 C16.0329,8.2147 15.1489,8.6736 14.2844,9.2781 C13.4251,9.8995 12.6776,10.6405 12.0575,11.4712 C11.4049,12.3435 10.881,13.3471 10.5014,14.4508 C10.0984,15.5935 9.8982,16.8753 9.8982,18.2585 C9.8982,19.422 9.7305,20.5517 9.4003,21.6047 C9.0389,22.737 8.6112,23.8186 8.1289,24.8248 C7.6674,25.792 7.1539,26.7319 6.5624,27.6887 C5.9748,28.6325 5.4691,29.484 5.0687,30.1938 C4.3433,31.3209 4.628,32.2634 4.8646,32.6833 C5.265,33.3801 5.9345,33.8442 6.7561,33.8442 L34.1978,33.8442 C34.5748,33.8442 34.9466,33.6609 35.2703,33.4698 C35.6057,33.2865 35.8917,32.9745 36.0932,32.6625 C36.3233,32.3167 36.4546,31.8994 36.478,31.4548 C36.5105,30.9283 36.3428,30.4018 35.9918,29.9351 L35.9918,29.9351 Z M20.5686,5.2091 C21.1744,5.2091 21.6697,5.7018 21.6697,6.3102 C21.6697,6.9186 21.1744,7.4113 20.5686,7.4113 C19.9628,7.4113 19.4675,6.916 19.4675,6.3102 C19.4675,5.7044 19.9602,5.2091 20.5686,5.2091 L20.5686,5.2091 Z M7.5179,31.2611 C7.8819,31.2611 8.2914,29.8701 8.7542,29.1252 C9.399,28.0852 9.9541,27.0283 10.4546,25.9753 C10.9863,24.869 11.4582,23.6561 11.8599,22.4029 C12.2707,21.0899 12.4787,19.6911 12.4787,18.2676 C12.4787,17.1756 12.6334,16.1785 12.9402,15.301 C13.234,14.4417 13.6318,13.676 14.1245,13.0156 C14.5886,12.3916 15.1515,11.8339 15.7781,11.3802 C16.4359,10.9187 17.0911,10.5781 17.7125,10.361 C17.9959,10.2791 18.8734,10.1803 20.4139,10.1803 C21.8582,10.1803 22.9957,10.2622 23.0763,10.2674 C23.8251,10.5157 24.5258,10.8628 25.1719,11.3126 C25.8141,11.7559 26.3822,12.311 26.8515,12.9558 C27.339,13.6344 27.7368,14.4183 28.028,15.2906 C28.3192,16.1499 28.4687,17.1353 28.4687,18.2182 C28.4687,19.6014 28.6754,20.9755 29.0849,22.3041 C29.4905,23.6067 29.9728,24.83 30.511,25.9311 C31.0609,27.0738 31.6511,28.2139 32.2673,29.1512 C32.7626,29.9065 33.2137,31.2611 33.6479,31.2611 L7.5179,31.2611 L7.5179,31.2611 Z M15.56925,36.4208 L25.56925,36.4208 L25.56925,39 L15.56925,39 L15.56925,36.4208 L15.56925,36.4208 Z" id="形状" fill="#FA5151"></path>
                </g>
            </g>
        </g>
    </g>
</svg>