<?xml version="1.0" encoding="UTF-8"?>
<svg width="33px" height="34px" viewBox="0 0 33 34" version="1.1" xmlns="http://www.w3.org/2000/svg" xmlns:xlink="http://www.w3.org/1999/xlink">
    <!-- Generator: Sketch 64 (93537) - https://sketch.com -->
    <title>编组 4</title>
    <desc>Created with Sketch.</desc>
    <g id="员工端h5" stroke="none" stroke-width="1" fill="none" fill-rule="evenodd">
        <g id="访客二维码验证-未到访" transform="translate(-117.000000, -586.000000)" fill-rule="nonzero" stroke="#BC8D58" stroke-width="2">
            <g id="编组-4" transform="translate(118.000000, 587.000000)">
                <path d="M6.85436985,8.74571607 C6.85436985,3.92587133 10.6956129,-5.15143483e-14 15.4166794,-5.15143483e-14 C20.1377459,-5.15143483e-14 23.977699,3.92323624 23.977699,8.74571607 C23.977699,13.5681959 20.1364559,17.4907922 15.4147628,17.4907922 C10.6930698,17.4907922 6.85436985,13.5681959 6.85436985,8.74571607 Z" id="路径"></path>
                <path d="M29.7912561,30.3241365 C29.7595798,30.3485659 29.0090459,30.8939373 24.8833594,31.3059337 C22.2593988,31.5700354 18.8713251,31.71397 15.344918,31.717934 L15.2065767,31.717934 C11.7499813,31.717934 8.41880427,31.5812612 5.80325456,31.3323449 C1.85987958,30.9560001 0.986506236,30.4614699 0.885037768,30.3954459 C0.00585938441,29.515988 -0.206826337,28.6702029 0.195914652,27.6573718 C0.838490537,26.0377697 2.99183349,24.2161276 5.95647084,22.7840348 C8.97994,21.3242132 12.4714615,20.4533383 15.2977619,20.4533383 C18.1512152,20.4533383 21.7474412,21.3908999 24.9183216,22.9623024 C27.9611011,24.4663671 30.1816867,26.3810995 30.7085635,27.9465693 C30.9141361,28.5480589 30.9936501,29.3621552 29.7912451,30.3241441 L29.7912561,30.3241365 Z" id="路径"></path>
            </g>
        </g>
    </g>
</svg>