<?xml version="1.0" standalone="no"?><!DOCTYPE svg PUBLIC "-//W3C//DTD SVG 1.1//EN" "http://www.w3.org/Graphics/SVG/1.1/DTD/svg11.dtd"><svg t="1577360844347" class="icon" viewBox="0 0 1024 1024" version="1.1" xmlns="http://www.w3.org/2000/svg" p-id="2729" xmlns:xlink="http://www.w3.org/1999/xlink" width="200" height="200"><defs><style type="text/css"></style></defs><path d="M516.711302 776.199241 356.337731 776.199241c0 0-55.276954 14.372336-56.881498 73.27691l0-0.480954c0 0-37.360909 41.392736-72.63939 0L226.816842 581.530586c0 0-5.185093-70.048379-46.879704-70.048379l-70.851675-0.363274 332.441485-331.623863 216.864166 215.96775c7.643074 7.628748 21.493523 6.238075 30.945803-3.094478l16.248056-16.050558c9.449209-9.337669 10.912537-23.081695 3.27458-30.708396L454.784904 92.51609c-7.643074-7.626701-21.49864-6.238075-30.948873 3.099594l-16.248056 16.053628c-1.664919 1.642406-2.76088 3.53757-3.925403 5.392824L6.689353 513.062192c-7.643074 7.618515-6.180769 21.367657 3.27151 30.702256l3.550873 3.51301c1.465374 11.724019 6.800893 24.803919 20.345374 37.030381l94.420463 0c0 0 26.621311-3.348258 26.621311 36.82572l0 251.253394c0 0 0.355087 66.825988 57.681724 70.176292l101.160981 0c0 0 51.736315-23.302729 58.479903-66.828035l0 4.952802c0 0 6.746658-40.173978 37.093826-33.479509l56.175417 0c0 0 23.871687-3.346211 27.241434 23.436782l72.935126-35.502585C565.668317 835.143725 566.422494 785.749758 516.711302 776.199241zM621.557208 461.418998c-5.754051 5.754051-5.754051 15.083533 0 20.837584l31.251771 31.251771c5.754051 5.754051 15.080463 5.754051 20.831444 0 5.757121-5.757121 5.757121-15.080463 0-20.839631l-31.248701-31.248701C636.637672 455.664947 627.311259 455.664947 621.557208 461.418998zM788.242532 466.038202c8.143471 0 14.733563-6.590092 14.733563-14.730493l0-44.200688c0-8.148587-6.590092-14.736633-14.733563-14.736633-8.143471 0-14.733563 6.588045-14.733563 14.736633l0 44.200688C773.508969 459.44811 780.099061 466.038202 788.242532 466.038202zM611.443873 613.372805 567.243185 613.372805c-8.145517 0-14.733563 6.590092-14.733563 14.733563 0 8.145517 6.588045 14.730493 14.733563 14.730493l44.200688 0c8.143471 0 14.733563-6.584975 14.733563-14.730493C626.176412 619.96392 619.58632 613.372805 611.443873 613.372805zM929.992953 506.9858l30.965246-30.948873c5.696746-5.708002 5.696746-14.94641 0-20.646226-5.699816-5.696746-14.936177-5.696746-20.648272 0l-30.948873 30.962176c-5.696746 5.701862-5.696746 14.938224 0 20.6319C915.056776 512.698918 924.296207 512.698918 929.992953 506.9858zM788.242532 790.175557c-8.143471 0-14.733563 6.590092-14.733563 14.730493l0 44.202735c0 8.143471 6.590092 14.730493 14.733563 14.730493 8.143471 0 14.733563-6.588045 14.733563-14.730493l0-44.202735C802.976094 796.765649 796.386002 790.175557 788.242532 790.175557zM1009.244948 613.372805l-44.200688 0c-8.145517 0-14.733563 6.590092-14.733563 14.733563 0 8.145517 6.588045 14.730493 14.733563 14.730493l44.200688 0c8.140401 0 14.733563-6.584975 14.733563-14.730493C1023.978511 619.96392 1017.385349 613.372805 1009.244948 613.372805zM923.67813 742.708476c-5.754051-5.757121-15.080463-5.757121-20.834514 0-5.754051 5.754051-5.754051 15.077394 0 20.831444l31.251771 31.249725c5.754051 5.757121 15.078417 5.757121 20.831444 0 5.757121-5.737678 5.757121-15.077394 0-20.829398L923.67813 742.708476zM661.687184 734.031862l-30.965246 30.962176c-5.696746 5.699816-5.696746 14.936177 0 20.629853 5.699816 5.701862 14.936177 5.701862 20.6319 0l30.962176-30.962176c5.698792-5.693676 5.698792-14.930037 0-20.629853C676.620291 728.335117 667.38393 728.335117 661.687184 734.031862zM788.242532 495.418346c-73.27691 0-132.685975 59.412135-132.685975 132.689045 0 73.282027 59.410088 132.685975 132.685975 132.685975 73.278957 0 132.689045-59.403948 132.689045-132.685975C920.931576 554.830481 861.521488 495.418346 788.242532 495.418346z" p-id="2730"></path></svg>