<?xml version="1.0" encoding="UTF-8"?>
<svg width="21px" height="22px" viewBox="0 0 21 22" version="1.1" xmlns="http://www.w3.org/2000/svg" xmlns:xlink="http://www.w3.org/1999/xlink">
    <title>yueliang备份 2</title>
    <defs>
        <filter id="filter-1">
            <feColorMatrix in="SourceGraphic" type="matrix" values="0 0 0 0 0.377611 0 0 0 0 0.602574 0 0 0 0 1.000000 0 0 0 1.000000 0"></feColorMatrix>
        </filter>
    </defs>
    <g id="考勤统计-查看日/周/月" stroke="none" stroke-width="1" fill="none" fill-rule="evenodd">
        <g id="考勤打卡-上班打卡-月" transform="translate(-511.000000, -518.000000)">
            <g id="编组-8" transform="translate(334.000000, 514.000000)">
                <g id="yueliang备份-2" transform="translate(177.000000, 0.000000)" filter="url(#filter-1)">
                    <g transform="translate(0.000000, 4.500000)">
                        <path d="M10.2648437,20.5515625 C4.88632812,20.5515625 0.47578125,16.4253906 0.013671875,11.1699219 C0.041015625,10.6613281 0.45390625,10.2566406 0.96796875,10.2566406 C1.26328125,10.2566406 1.52851563,10.3878906 1.70351563,10.5957031 C1.70898438,10.6039063 1.7171875,10.5984375 1.7171875,10.5765625 C2.8546875,11.7851563 4.46523438,12.5425781 6.25898437,12.5425781 C9.734375,12.5425781 12.5507813,9.72617188 12.5507813,6.25078125 C12.5507813,4.44335937 11.7851563,2.83007812 10.565625,1.68984375 C10.5683594,1.68710937 10.5792969,1.68710937 10.5738281,1.68164062 C10.3824219,1.50390625 10.2621094,1.25234375 10.2621094,0.96796875 C10.2621094,0.4484375 10.6695312,0.035546875 11.1835938,0.002734375 C16.4363281,0.4703125 20.5597656,4.878125 20.5597656,10.2566406 C20.5597656,15.9441406 15.9523438,20.5515625 10.2648437,20.5515625 Z" id="路径" fill="#000000" fill-rule="nonzero"></path>
                    </g>
                </g>
            </g>
        </g>
    </g>
</svg>
