<?xml version="1.0" encoding="UTF-8"?>
<svg width="21px" height="23px" viewBox="0 0 21 23" version="1.1" xmlns="http://www.w3.org/2000/svg" xmlns:xlink="http://www.w3.org/1999/xlink">
    <title>形状</title>
    <g id="员工端-消息通知" stroke="none" stroke-width="1" fill="none" fill-rule="evenodd">
        <g id="消息" transform="translate(-624.000000, -657.000000)" fill="#FFFFFF" fill-rule="nonzero">
            <g id="形状" transform="translate(608.000000, 649.000000)">
                <path d="M32.1354083,8.50108966 L37,12.6886082 L35.6473753,14.3623081 L30.7817277,10.1747895 L32.1354083,8.50108966 L32.1354083,8.50108966 Z M20.8645917,8.50108966 L22.2182723,10.1726102 L17.3526247,14.3623081 L16,12.6886082 L20.8645917,8.5 L20.8645917,8.50108966 Z M26.5,10.8852402 C23.1046385,10.8852402 19.9672958,12.7548907 18.2697784,15.789402 C16.572261,18.8239132 16.5724623,22.5624653 18.2703064,25.5967819 C19.9681505,28.6310985 23.1056945,30.5 26.5010559,30.5 C31.7498299,30.5 36.0048019,26.1090865 36.0048019,20.6926201 C36.0048019,15.2761538 31.7498299,10.8852402 26.5010559,10.8852402 L26.5,10.8852402 Z M26.5,28.3196137 C22.4241754,28.3196137 19.1086082,24.8981179 19.1086082,20.6920753 C19.1086082,16.4860327 22.4241754,13.0645369 26.5,13.0645369 C30.5758246,13.0645369 33.8913918,16.4860327 33.8913918,20.6920753 C33.8913918,24.8981179 30.5758246,28.3196137 26.5,28.3196137 L26.5,28.3196137 Z M25.4440869,15.1414066 L27.5559131,15.1414066 L27.5559131,21.6792967 L25.4440869,21.6792967 L25.4440869,15.1414066 Z M25.4440869,23.8585934 L27.5559131,23.8585934 L27.5559131,26.03789 L25.4440869,26.03789 L25.4440869,23.8585934 Z"></path>
            </g>
        </g>
    </g>
</svg>