<?xml version="1.0" encoding="UTF-8"?>
<svg width="13px" height="22px" viewBox="0 0 13 22" version="1.1" xmlns="http://www.w3.org/2000/svg" xmlns:xlink="http://www.w3.org/1999/xlink">
    <title>路径</title>
    <g id="员工端-消息通知" stroke="none" stroke-width="1" fill="none" fill-rule="evenodd">
        <g id="消息" transform="translate(-626.000000, -400.000000)" fill="#FA5151" fill-rule="nonzero">
            <g id="今天-16:22:29" transform="translate(0.000000, 324.000000)">
                <g id="路径" transform="translate(608.000000, 66.000000)">
                    <path d="M30.9650451,17.5442557 C30.9004757,17.4143903 30.7658959,17.3322754 30.6187137,17.3329389 L26.0867193,17.3329389 L30.5593426,10.5635156 C30.6336801,10.4504754 30.6374984,10.3061376 30.5692378,10.1894607 C30.5007219,10.0719309 30.3731975,9.99958647 30.2352753,10 L24.1175777,10 C23.9743686,9.99933608 23.8427159,10.0770823 23.7761938,10.2016053 L18.0394608,21.2046507 C17.9812323,21.3176057 17.9878098,21.4523071 18.0567773,21.5592742 C18.1274702,21.6678977 18.2495575,21.7337821 18.3808446,21.7341571 L22.3141804,21.7341571 L18.0295656,31.4911622 C17.9580699,31.658931 18.0235257,31.8527732 18.1829409,31.9453718 C18.3439755,32.0405344 18.5513032,32.0088229 18.6752264,31.8700751 L30.9106216,17.9353132 C31.0054955,17.8277612 31.026834,17.6753871 30.9650451,17.5466846 L30.9650451,17.5442557 Z"></path>
                </g>
            </g>
        </g>
    </g>
</svg>