<?xml version="1.0" encoding="UTF-8"?>
<svg width="34px" height="30px" viewBox="0 0 34 30" version="1.1" xmlns="http://www.w3.org/2000/svg" xmlns:xlink="http://www.w3.org/1999/xlink">
    <!-- Generator: Sketch 64 (93537) - https://sketch.com -->
    <title>编组 2</title>
    <desc>Created with Sketch.</desc>
    <g id="社区端h5" stroke="none" stroke-width="1" fill="none" fill-rule="evenodd">
        <g id="首页" transform="translate(-42.000000, -534.000000)">
            <rect fill="#FFFFFF" x="0" y="0" width="750" height="2088"></rect>
            <g id="编组" transform="translate(0.000000, 516.000000)">
                <rect id="矩形" x="0" y="0" width="750" height="66"></rect>
                <g id="编组-2" transform="translate(35.000000, 9.000000)">
                    <rect id="矩形" fill-rule="nonzero" x="0" y="0" width="48" height="48"></rect>
                    <path d="M28.4412004,11.0858534 C28.8046306,11.5946556 29,12.204299 29,12.829568 L29,35.170432 C29,36.8272863 27.6568542,38.170432 26,38.170432 C25.3747311,38.170432 24.7650877,37.9750626 24.2562854,37.6116324 L15.8375236,31.5982312 C15.3119314,31.2228081 15,30.6166664 15,29.9707642 L15,18.0292358 C15,17.3833336 15.3119314,16.7771919 15.8375236,16.4017688 L24.2562854,10.3883676 C25.6045232,9.42534059 27.4781734,9.73761563 28.4412004,11.0858534 Z M32.5,30.25 C32.7761424,29.7717074 33.3877328,29.6078322 33.8660254,29.8839746 L33.8660254,29.8839746 L38.1961524,32.3839746 C38.674445,32.660117 38.8383202,33.2717074 38.5621778,33.75 C38.2860355,34.2282926 37.674445,34.3921678 37.1961524,34.1160254 L37.1961524,34.1160254 L32.8660254,31.6160254 C32.3877328,31.339883 32.2238576,30.7282926 32.5,30.25 Z M12,17 C12.5522847,17 13,17.4477153 13,18 L13,30 C13,30.5522847 12.5522847,31 12,31 L10,31 C8.34314575,31 7,29.6568542 7,28 L7,20 C7,18.3431458 8.34314575,17 10,17 L12,17 Z M40,23 C40.5522847,23 41,23.4477153 41,24 C41,24.5522847 40.5522847,25 40,25 L34,25 C33.4477153,25 33,24.5522847 33,24 C33,23.4477153 33.4477153,23 34,23 L40,23 Z M38.5621778,14.25 C38.8383202,14.7282926 38.674445,15.339883 38.1961524,15.6160254 L33.8660254,18.1160254 C33.3877328,18.3921678 32.7761424,18.2282926 32.5,17.75 C32.2238576,17.2717074 32.3877328,16.660117 32.8660254,16.3839746 L37.1961524,13.8839746 C37.674445,13.6078322 38.2860355,13.7717074 38.5621778,14.25 Z" id="形状结合" fill="#FFAB2D"></path>
                </g>
            </g>
        </g>
    </g>
</svg>