<?xml version="1.0" encoding="UTF-8"?>
<svg width="39px" height="34px" viewBox="0 0 39 34" version="1.1" xmlns="http://www.w3.org/2000/svg" xmlns:xlink="http://www.w3.org/1999/xlink">
    <!-- Generator: Sketch 60 (88103) - https://sketch.com -->
    <title>通知</title>
    <desc>Created with Sketch.</desc>
    <g id="组件" stroke="none" stroke-width="1" fill="none" fill-rule="evenodd">
        <g id="重要通知跑马" transform="translate(-37.000000, -16.000000)">
            <rect id="矩形" fill="#FEFBE8" x="0" y="0" width="750" height="66"></rect>
            <g id="通知" transform="translate(32.000000, 9.000000)" fill-rule="nonzero">
                <rect id="矩形" fill="#000000" opacity="0" x="0" y="0" width="48" height="48"></rect>
                <path d="M28.7,40.7 C28.2,40.7 27.6,40.6 27.1,40.4 L27,40.4 L15.4,34.9 C13.5,34.1 12.3,32.2 12.3,30 L12.3,18.8 C12.3,16.5 13.6,14.5 15.6,13.8 L27.4,7.89999998 C28.8,7.5 30.2,7.69999999 31.4,8.49999998 C32.7,9.49999997 33.6,11.1 33.6,12.9 L33.6,35.4 C33.6,37.2 32.8,38.9 31.4,39.9 C30.4,40.4 29.5,40.7 28.7,40.7 Z M28.2,37.6 C28.8,37.8 29.2,37.6 29.5,37.4 C30.1,37 30.4,36.2 30.4,35.4 L30.4,12.9 C30.4,12.1 30.1,11.3 29.5,10.9 C29.2,10.7 28.8,10.5 28.3,10.7 L16.5,16.6 C15.7,16.9 15.2,17.8 15.2,18.8 L15.2,30 C15.2,31 15.7,31.9 16.5,32.2 L16.6,32.2 L28.2,37.6 Z" id="形状" fill="#FF884C"></path>
                <path d="M11.1,33.8 L9.80000002,33.8 C7.5,33.8 5.7,31.9 5.7,29.5 L5.7,19.2 C5.7,16.8 7.5,14.9 9.80000002,14.9 L11.1,14.9 C14.5,14.9 15.2,16.7 15.2,18.2 L12.2,18.2 L12.2,18 C12.2,18 12,17.9 11.1,17.9 L9.80000002,17.9 C9.2,17.9 8.7,18.5 8.7,19.2 L8.7,29.4 C8.7,30.1 9.2,30.7 9.80000002,30.7 L11.1,30.7 C11.8,30.7 12.1,30.6 12.2,30.6 L12.2,30.4 L15.2,30.4 C15.2,32 14.5,33.8 11.1,33.8 Z" id="路径" fill="#FF884C"></path>
                <path d="M39.9,36.2 C39.8,36.2 39.6,36.2 39.5,36.1 C38.7,35.9 38.3,35 38.5,34.2 L39.6,30.4 C40.7,26.6 40.7,22.6 39.6,18.9 L38.5,15.1 C38.3,14.3 38.7,13.5 39.5,13.2 C40.3,13 41.1,13.4 41.4,14.2 L42.5,18 C43.8,22.3 43.8,26.9 42.5,31.3 L41.4,35.1 C41.1,35.7 40.5,36.2 39.9,36.2 Z" id="路径" fill="#FF884C"></path>
            </g>
        </g>
    </g>
</svg>