<?xml version="1.0" encoding="UTF-8"?>
<svg width="40px" height="40px" viewBox="0 0 40 40" version="1.1" xmlns="http://www.w3.org/2000/svg" xmlns:xlink="http://www.w3.org/1999/xlink">
    <title>离线工单</title>
    <g id="离线工单21/10/14" stroke="none" stroke-width="1" fill="none" fill-rule="evenodd">
        <g id="我的待办" transform="translate(-670.000000, -205.000000)">
            <g id="离线工单" transform="translate(670.000000, 205.000000)">
                <rect id="矩形" fill="#BC8D58" opacity="0" x="0" y="0" width="40" height="40"></rect>
                <g id="编组-4" transform="translate(6.000000, 3.000000)">
                    <g id="编组-3" transform="translate(6.938078, 0.000000)" fill="#BC8D58" fill-rule="nonzero">
                        <path d="M7.06192228,0 C5.95775561,0 5.06192228,0.895833333 5.06192228,2 L5.06192228,20 C5.06192228,21.1041667 5.95775561,22 7.06192228,22 C8.16608895,22 9.06192228,21.1041667 9.06192228,20 L9.06192228,2 C9.06192228,0.895833333 8.16608895,0 7.06192228,0 Z" id="路径"></path>
                        <path d="M12.0570453,16 C11.528529,16 11.0000128,16.2019534 10.600403,16.6058601 L7.05977384,20.1421923 L3.5234416,16.6058601 C2.71562816,15.7980466 1.41367352,15.7980466 0.60586008,16.6058601 C-0.20195336,17.4136735 -0.20195336,18.7156282 0.60586008,19.5234416 L5.60313152,24.520713 C6.41094496,25.3285265 7.7128996,25.3285265 8.52071304,24.520713 L13.5179845,19.5234416 C14.3257979,18.7156282 14.3257979,17.4136735 13.5179845,16.6058601 C13.1097809,16.2019534 12.5812646,16 12.0570453,16 Z" id="路径"></path>
                    </g>
                    <path d="M28,24.9753147 L28,28 C28,30.209139 26.209139,32 24,32 L4,32 C1.790861,32 0,30.209139 0,28 L0,25.119078" id="路径" stroke="#BC8D58" stroke-width="4" stroke-linecap="round"></path>
                </g>
            </g>
        </g>
    </g>
</svg>