<?xml version="1.0" standalone="no"?><!DOCTYPE svg PUBLIC "-//W3C//DTD SVG 1.1//EN" "http://www.w3.org/Graphics/SVG/1.1/DTD/svg11.dtd"><svg t="1577245779166" class="icon" viewBox="0 0 1024 1024" version="1.1" xmlns="http://www.w3.org/2000/svg" p-id="3435" xmlns:xlink="http://www.w3.org/1999/xlink" width="200" height="200"><defs><style type="text/css"></style></defs><path d="M512 81.27C274.448 81.27 81.27 274.448 81.27 512S274.448 942.73 512 942.73 942.73 749.552 942.73 512 749.552 81.27 512 81.27z m0 807.619c-207.823 0-376.889-169.058-376.889-376.889 0-207.823 169.066-376.889 376.889-376.889 207.831 0 376.889 169.066 376.889 376.889 0 207.831-169.058 376.889-376.889 376.889z" p-id="3436"></path><path d="M571.815 329.086H399.888v413.03h53.07V587.23h118.857c77.466 0 118.532-55.141 123.099-133.51-3.08-72.492-44.048-124.635-123.1-124.635z m-20.48 206.515h-98.386V380.717h100.604c56.239 0 84.358 30.874 84.358 75.272 0 48.737-28.859 79.612-86.593 79.612z" p-id="3437"></path></svg>