<?xml version="1.0" encoding="UTF-8"?>
<svg width="78px" height="78px" viewBox="0 0 78 78" version="1.1" xmlns="http://www.w3.org/2000/svg" xmlns:xlink="http://www.w3.org/1999/xlink">
    <!-- Generator: Sketch 60 (88103) - https://sketch.com -->
    <title>物业缴费</title>
    <desc>Created with Sketch.</desc>
    <defs>
        <linearGradient x1="50%" y1="0%" x2="50%" y2="100%" id="linearGradient-1">
            <stop stop-color="#25D7FF" offset="0%"></stop>
            <stop stop-color="#10AEFF" offset="100%"></stop>
        </linearGradient>
    </defs>
    <g id="组件" stroke="none" stroke-width="1" fill="none" fill-rule="evenodd">
        <g id="物业缴费">
            <rect id="矩形" fill="url(#linearGradient-1)" x="0" y="0" width="78" height="78" rx="10"></rect>
            <path d="M58.8256202,45.6572278 C59.5210479,43.5653361 59.8977219,41.3268629 59.8977219,39 C59.8977219,27.4020203 50.5395989,18 38.9957691,18 C27.4519393,18 18.0938163,27.4020203 18.0938163,39 C18.0938163,50.5979797 27.4519393,60 38.9957691,60 L58.9811143,60 C60.0298024,60 60.5259074,58.8145463 59.6233934,58.1216895 C59.0217174,57.659785 56.8340815,55.9475216 53.0604857,52.9848994" id="路径" stroke="#F6F8FA" stroke-width="3" stroke-linecap="round"></path>
            <path d="M45.5355339,28.4393398 C46.1213203,29.0251263 46.1213203,29.9748737 45.5355339,30.5606602 L40.621,35.474 L44.5,35.4748737 C45.3284271,35.4748737 46,36.1464466 46,36.9748737 C46,37.8033009 45.3284271,38.4748737 44.5,38.4748737 L40.5,38.474 L40.5,41.474 L44.5,41.4748737 C45.3284271,41.4748737 46,42.1464466 46,42.9748737 C46,43.8033009 45.3284271,44.4748737 44.5,44.4748737 L40.5,44.474 L40.5,48.4748737 C40.5,49.3033009 39.8284271,49.9748737 39,49.9748737 C38.1715729,49.9748737 37.5,49.3033009 37.5,48.4748737 L37.5,44.474 L33.5,44.4748737 C32.6715729,44.4748737 32,43.8033009 32,42.9748737 C32,42.1464466 32.6715729,41.4748737 33.5,41.4748737 L37.5,41.474 L37.5,38.474 L33.5,38.4748737 C32.6715729,38.4748737 32,37.8033009 32,36.9748737 C32,36.1464466 32.6715729,35.4748737 33.5,35.4748737 L37.378,35.474 L32.4644661,30.5606602 C31.8786797,29.9748737 31.8786797,29.0251263 32.4644661,28.4393398 C33.0502525,27.8535534 34,27.8535534 34.5857864,28.4393398 L39,32.854 L43.4142136,28.4393398 C44,27.8535534 44.9497475,27.8535534 45.5355339,28.4393398 Z" id="形状结合" fill="#FFFFFF"></path>
        </g>
    </g>
</svg>