<?xml version="1.0" encoding="UTF-8"?>
<svg width="38px" height="31px" viewBox="0 0 38 31" version="1.1" xmlns="http://www.w3.org/2000/svg" xmlns:xlink="http://www.w3.org/1999/xlink">
    <!-- Generator: Sketch 64 (93537) - https://sketch.com -->
    <title>形状</title>
    <desc>Created with Sketch.</desc>
    <g id="员工端h5" stroke="none" stroke-width="1" fill="none" fill-rule="evenodd">
        <g id="访客二维码验证-已到访" transform="translate(-114.000000, -1018.000000)" fill="#BC8D58" fill-rule="nonzero">
            <path d="M133.4275,1035.51345 C136.01625,1033.79785 137.75,1030.86703 137.75,1027.53113 C137.75,1022.26518 133.49875,1018 128.25,1018 C123.00125,1018 118.75,1022.26518 118.75,1027.53113 C118.75,1030.86703 120.48375,1033.79785 123.0725,1035.51345 C117.77625,1037.25288 114,1041.73251 114,1047.78478 C114,1048.45196 114.5225,1048.97617 115.1875,1048.97617 C115.8525,1048.97617 116.375,1048.45196 116.375,1047.78478 C116.375,1041.2083 121.695,1037.06226 128.25,1037.06226 C134.805,1037.06226 140.125,1041.2083 140.125,1047.78478 C140.125,1048.45196 140.6475,1048.97617 141.3125,1048.97617 C141.9775,1048.97617 142.5,1048.45196 142.5,1047.78478 C142.5,1041.73251 138.72375,1037.25288 133.4275,1035.51345 Z M128.25,1034.67948 C124.33125,1034.67948 121.125,1031.46272 121.125,1027.53113 C121.125,1023.59954 124.33125,1020.38278 128.25,1020.38278 C132.16875,1020.38278 135.375,1023.59954 135.375,1027.53113 C135.375,1031.46272 132.16875,1034.67948 128.25,1034.67948 Z M143.85375,1035.65642 C146.585,1033.96464 148.4375,1030.98616 148.4375,1027.53113 C148.4375,1022.26518 144.18625,1018 138.9375,1018 C138.2725,1018 137.75,1018.52421 137.75,1019.19139 C137.75,1019.85857 138.2725,1020.38278 138.9375,1020.38278 C142.85625,1020.38278 146.0625,1023.59954 146.0625,1027.53113 C146.0625,1030.17602 144.6375,1032.46349 142.5,1033.70254 C140.41,1034.98924 139.84,1036.80015 142.5,1037.77709 C146.6325,1039.25442 149.625,1043.13836 149.625,1047.80861 C149.625,1048.47579 150.1475,1049 150.8125,1049 C151.4775,1049 152,1048.47579 152,1047.80861 C152,1042.30438 148.6275,1037.6103 143.85375,1035.65642 Z" id="形状"></path>
        </g>
    </g>
</svg>