<?xml version="1.0" encoding="UTF-8"?>
<svg width="40px" height="40px" viewBox="0 0 40 40" version="1.1" xmlns="http://www.w3.org/2000/svg" xmlns:xlink="http://www.w3.org/1999/xlink">
    <title>电 话</title>
    <g id="全部" stroke="none" stroke-width="1" fill="none" fill-rule="evenodd">
        <g id="短信验证码登录-绑定手机号" transform="translate(-71.000000, -467.000000)" fill="#E1AA6C" fill-rule="nonzero">
            <g id="电-话" transform="translate(70.500000, 467.000000)">
                <path d="M28.0476522,17.991217 C28.0476522,18.7810179 28.5734528,19.3046185 29.3610537,19.3046185 C30.1508546,19.3046185 30.6766555,18.7810179 30.6766555,17.991217 L30.6766555,17.9913347 C30.6646345,13.6392398 27.1396358,10.1141654 22.7875839,10.1020052 C21.9977829,10.1020052 21.4719823,10.6278058 21.4719823,11.4154067 C21.4719823,12.2074077 21.9999829,12.7310083 22.7875839,12.7310083 L22.7875837,12.7310083 C25.6874922,12.7406666 28.0359218,15.0891059 28.0455898,17.9890144 L28.0476522,17.991217 Z M33.3056583,17.991217 C33.3056583,18.7810179 33.8336589,19.3046185 34.6212598,19.3046185 C35.4110607,19.3046185 35.9368613,18.7810179 35.9368613,17.991217 C35.9368613,10.7598258 30.0188544,4.84181888 22.7874632,4.84181888 C21.9976623,4.84181888 21.4718617,5.3698195 21.4718617,6.15742041 C21.4718617,6.94722133 21.9998623,7.47302194 22.7874632,7.47302194 L22.7874632,7.47302194 C28.5889817,7.48992505 33.2885653,12.1875157 33.3078583,17.9890342 L33.3056583,17.991217 Z M15.5560204,13.3888288 L15.5560203,13.3888289 C17.009483,11.9766851 17.124721,9.68145079 15.8200206,8.13082281 L11.7434159,3.00043403 C10.4278144,1.29103204 7.93081145,1.02703173 6.21921805,2.34043326 C6.0872179,2.47243341 5.95741775,2.47243341 5.95741775,2.60443357 L2.40661362,6.1574377 C-1.01219036,9.57624168 3.8542153,18.7810696 12.6652427,27.5898455 C21.4718702,36.3986643 30.542455,41.1330526 33.9612675,37.8462402 L37.5120717,34.2954361 C39.0916735,32.7158342 39.0916735,30.2188313 37.5120717,28.7734296 L37.2502714,28.5094293 L32.122074,24.4328246 C30.5446721,23.1172231 28.3116695,23.2492232 26.8640679,24.6968249 L24.6288653,26.9320275 C22.2616625,25.4866258 20.1584772,23.907024 18.3148579,22.0678304 C16.4756558,20.2264283 14.9004539,18.1210258 13.4528523,15.7538231 L15.5560547,13.3888203 L15.5560204,13.3888288 Z M13.7168183,9.8380247 C14.1106187,10.3660253 14.1106187,11.1536262 13.5848181,11.5496267 L10.6874148,14.5724302 L10.6874147,14.5724302 C10.2771336,14.9917627 10.172554,15.6227596 10.4256144,16.1520321 L10.4256111,16.1520259 C11.9758739,18.9989023 13.924148,21.6101807 16.2116178,23.907035 L16.2116175,23.9070346 C18.5091592,26.1946463 21.1211896,28.142929 23.9688179,29.6930414 C24.4968185,29.9438416 25.1282193,29.8382415 25.5462198,29.429041 L28.5712233,26.4062375 L28.5712233,26.4062375 C29.0141199,25.9123499 29.7671567,25.8542045 30.2806253,26.2742374 L35.4066312,30.4828423 C35.4066312,30.4828423 35.5386314,30.4828423 35.5386314,30.6148424 L35.5386314,30.6148425 C36.046514,31.0998786 36.0650293,31.9048002 35.5799931,32.4126828 C35.5665248,32.4267855 35.5527339,32.4405763 35.5386313,32.4540447 L31.9878272,36.0048488 C30.2806252,37.7120508 22.1274329,33.3758457 14.3701895,25.7462197 C6.61298907,18.1210194 2.40655839,9.84020116 4.11598616,8.12858198 L7.79659904,4.44798629 C8.32459966,4.05198583 9.24420073,4.05198583 9.64020119,4.7119866 L13.7168059,9.83799256 L13.7168183,9.8380247 Z" id="形状"></path>
            </g>
        </g>
    </g>
</svg>