<?xml version="1.0" encoding="UTF-8"?>
<svg width="78px" height="78px" viewBox="0 0 78 78" version="1.1" xmlns="http://www.w3.org/2000/svg" xmlns:xlink="http://www.w3.org/1999/xlink">
    <!-- Generator: Sketch 60 (88103) - https://sketch.com -->
    <title>矩形</title>
    <desc>Created with Sketch.</desc>
    <defs>
        <linearGradient x1="50%" y1="0%" x2="50%" y2="100%" id="linearGradient-1">
            <stop stop-color="#3FE3AA" offset="0%"></stop>
            <stop stop-color="#07C160" offset="100%"></stop>
        </linearGradient>
    </defs>
    <g id="社区端" stroke="none" stroke-width="1" fill="none" fill-rule="evenodd">
        <g id="首页" transform="translate(-243.000000, -278.000000)">
            <g id="背景色" fill="#F6F8FA">
                <rect id="矩形" x="0" y="0" width="750" height="1624"></rect>
            </g>
            <g id="编组" transform="translate(0.000000, 242.000000)">
                <rect id="矩形" fill="#FFFFFF" x="0" y="0" width="750" height="372"></rect>
                <g id="矩形" transform="translate(189.000000, 0.000000)">
                    <rect fill="#FFFFFF" fill-rule="evenodd" x="0" y="0" width="186" height="186"></rect>
                    <g id="icon" transform="translate(54.000000, 36.000000)">
                        <g id="预存款">
                            <path d="M10,0 L34.3855409,0 L34.3855409,0 L68,0 C73.5228475,-2.79088747e-15 78,4.4771525 78,10 L78,68 C78,73.5228475 73.5228475,78 68,78 L10,78 C4.4771525,78 6.76353751e-16,73.5228475 0,68 L0,10 C-6.76353751e-16,4.4771525 4.4771525,1.01453063e-15 10,0 Z" id="矩形" fill="url(#linearGradient-1)" fill-rule="evenodd"></path>
                            <path d="M45.5355339,28.4393398 C46.1213203,29.0251263 46.1213203,29.9748737 45.5355339,30.5606602 L40.621,35.474 L44.5,35.4748737 C45.3284271,35.4748737 46,36.1464466 46,36.9748737 C46,37.8033009 45.3284271,38.4748737 44.5,38.4748737 L40.5,38.474 L40.5,41.474 L44.5,41.4748737 C45.3284271,41.4748737 46,42.1464466 46,42.9748737 C46,43.8033009 45.3284271,44.4748737 44.5,44.4748737 L40.5,44.474 L40.5,48.4748737 C40.5,49.3033009 39.8284271,49.9748737 39,49.9748737 C38.1715729,49.9748737 37.5,49.3033009 37.5,48.4748737 L37.5,44.474 L33.5,44.4748737 C32.6715729,44.4748737 32,43.8033009 32,42.9748737 C32,42.1464466 32.6715729,41.4748737 33.5,41.4748737 L37.5,41.474 L37.5,38.474 L33.5,38.4748737 C32.6715729,38.4748737 32,37.8033009 32,36.9748737 C32,36.1464466 32.6715729,35.4748737 33.5,35.4748737 L37.378,35.474 L32.4644661,30.5606602 C31.8786797,29.9748737 31.8786797,29.0251263 32.4644661,28.4393398 C33.0502525,27.8535534 34,27.8535534 34.5857864,28.4393398 L39,32.854 L43.4142136,28.4393398 C44,27.8535534 44.9497475,27.8535534 45.5355339,28.4393398 Z" id="形状结合备份" fill="#FFFFFF" fill-rule="evenodd"></path>
                            <path d="M59,39 L59,54.5555556 C59,57.0101544 57.0101544,59 54.5555556,59 L23.4444444,59 C20.9898456,59 19,57.0101544 19,54.5555556 L19,49 M19,39 L19,23.4444444 C19,20.9898456 20.9898456,19 23.4444444,19 L54.5555556,19 C57.0101544,19 59,20.9898456 59,23.4444444 L59,29" id="形状" stroke="#FFFFFF" stroke-width="3" stroke-linecap="round"></path>
                        </g>
                    </g>
                    <g id="文字" transform="translate(49.000000, 130.000000)" fill="#333333" font-family="PingFangSC-Regular, PingFang SC" font-size="24" font-weight="normal">
                        <g id="预存款">
                            <text>
                                <tspan x="8" y="23">预存款</tspan>
                            </text>
                        </g>
                    </g>
                </g>
                <g id="矩形备份" transform="translate(189.000000, 0.000000)">
                    <rect id="矩形" fill="#FFFFFF" x="0" y="0" width="186" height="186"></rect>
                    <g id="icon" transform="translate(54.000000, 36.000000)">
                        <g id="预存款">
                            <path d="M10,0 L34.3855409,0 L34.3855409,0 L68,0 C73.5228475,-2.79088747e-15 78,4.4771525 78,10 L78,68 C78,73.5228475 73.5228475,78 68,78 L10,78 C4.4771525,78 6.76353751e-16,73.5228475 0,68 L0,10 C-6.76353751e-16,4.4771525 4.4771525,1.01453063e-15 10,0 Z" id="矩形" fill="url(#linearGradient-1)" fill-rule="evenodd"></path>
                            <path d="M45.5355339,28.4393398 C46.1213203,29.0251263 46.1213203,29.9748737 45.5355339,30.5606602 L40.621,35.474 L44.5,35.4748737 C45.3284271,35.4748737 46,36.1464466 46,36.9748737 C46,37.8033009 45.3284271,38.4748737 44.5,38.4748737 L40.5,38.474 L40.5,41.474 L44.5,41.4748737 C45.3284271,41.4748737 46,42.1464466 46,42.9748737 C46,43.8033009 45.3284271,44.4748737 44.5,44.4748737 L40.5,44.474 L40.5,48.4748737 C40.5,49.3033009 39.8284271,49.9748737 39,49.9748737 C38.1715729,49.9748737 37.5,49.3033009 37.5,48.4748737 L37.5,44.474 L33.5,44.4748737 C32.6715729,44.4748737 32,43.8033009 32,42.9748737 C32,42.1464466 32.6715729,41.4748737 33.5,41.4748737 L37.5,41.474 L37.5,38.474 L33.5,38.4748737 C32.6715729,38.4748737 32,37.8033009 32,36.9748737 C32,36.1464466 32.6715729,35.4748737 33.5,35.4748737 L37.378,35.474 L32.4644661,30.5606602 C31.8786797,29.9748737 31.8786797,29.0251263 32.4644661,28.4393398 C33.0502525,27.8535534 34,27.8535534 34.5857864,28.4393398 L39,32.854 L43.4142136,28.4393398 C44,27.8535534 44.9497475,27.8535534 45.5355339,28.4393398 Z" id="形状结合备份" fill="#FFFFFF" fill-rule="evenodd"></path>
                            <path d="M59,39 L59,54.5555556 C59,57.0101544 57.0101544,59 54.5555556,59 L23.4444444,59 C20.9898456,59 19,57.0101544 19,54.5555556 L19,49 M19,39 L19,23.4444444 C19,20.9898456 20.9898456,19 23.4444444,19 L54.5555556,19 C57.0101544,19 59,20.9898456 59,23.4444444 L59,29" id="形状" stroke="#FFFFFF" stroke-width="3" stroke-linecap="round"></path>
                        </g>
                    </g>
                    <g id="矩形" transform="translate(54.000000, 36.000000)">
                        <g id="预存款">
                            <path d="M10,0 L34.3855409,0 L34.3855409,0 L68,0 C73.5228475,-2.79088747e-15 78,4.4771525 78,10 L78,68 C78,73.5228475 73.5228475,78 68,78 L10,78 C4.4771525,78 6.76353751e-16,73.5228475 0,68 L0,10 C-6.76353751e-16,4.4771525 4.4771525,1.01453063e-15 10,0 Z" id="矩形" fill="url(#linearGradient-1)" fill-rule="evenodd"></path>
                            <path d="M45.5355339,28.4393398 C46.1213203,29.0251263 46.1213203,29.9748737 45.5355339,30.5606602 L40.621,35.474 L44.5,35.4748737 C45.3284271,35.4748737 46,36.1464466 46,36.9748737 C46,37.8033009 45.3284271,38.4748737 44.5,38.4748737 L40.5,38.474 L40.5,41.474 L44.5,41.4748737 C45.3284271,41.4748737 46,42.1464466 46,42.9748737 C46,43.8033009 45.3284271,44.4748737 44.5,44.4748737 L40.5,44.474 L40.5,48.4748737 C40.5,49.3033009 39.8284271,49.9748737 39,49.9748737 C38.1715729,49.9748737 37.5,49.3033009 37.5,48.4748737 L37.5,44.474 L33.5,44.4748737 C32.6715729,44.4748737 32,43.8033009 32,42.9748737 C32,42.1464466 32.6715729,41.4748737 33.5,41.4748737 L37.5,41.474 L37.5,38.474 L33.5,38.4748737 C32.6715729,38.4748737 32,37.8033009 32,36.9748737 C32,36.1464466 32.6715729,35.4748737 33.5,35.4748737 L37.378,35.474 L32.4644661,30.5606602 C31.8786797,29.9748737 31.8786797,29.0251263 32.4644661,28.4393398 C33.0502525,27.8535534 34,27.8535534 34.5857864,28.4393398 L39,32.854 L43.4142136,28.4393398 C44,27.8535534 44.9497475,27.8535534 45.5355339,28.4393398 Z" id="形状结合备份" fill="#FFFFFF" fill-rule="evenodd"></path>
                            <path d="M59,39 L59,54.5555556 C59,57.0101544 57.0101544,59 54.5555556,59 L23.4444444,59 C20.9898456,59 19,57.0101544 19,54.5555556 L19,49 M19,39 L19,23.4444444 C19,20.9898456 20.9898456,19 23.4444444,19 L54.5555556,19 C57.0101544,19 59,20.9898456 59,23.4444444 L59,29" id="形状" stroke="#FFFFFF" stroke-width="3" stroke-linecap="round"></path>
                        </g>
                    </g>
                </g>
            </g>
        </g>
    </g>
</svg>