<?xml version="1.0" encoding="UTF-8"?>
<svg width="38px" height="38px" viewBox="0 0 38 38" version="1.1" xmlns="http://www.w3.org/2000/svg" xmlns:xlink="http://www.w3.org/1999/xlink">
    <title>成功</title>
    <g id="员工端-录入人脸" stroke="none" stroke-width="1" fill="none" fill-rule="evenodd">
        <g id="成功" transform="translate(-265.000000, -927.000000)">
            <rect id="矩形" fill="#FFFFFF" x="0" y="902" width="750" height="272"></rect>
            <g id="编组" transform="translate(265.000000, 926.000000)" fill="#52C41A" fill-rule="nonzero">
                <g id="成功" transform="translate(0.000000, 1.000000)">
                    <path d="M19.0000256,0.666669501 C29.1255374,0.666669501 37.3333946,8.87452671 37.3333946,19.0000385 C37.3333946,29.1255503 29.1255374,37.3334075 19.0000256,37.3334075 C8.87451382,37.3334075 0.66665661,29.1255503 0.66665661,19.0000385 C0.66665661,8.87452671 8.87451382,0.666669501 19.0000256,0.666669501 Z M15.7788566,24.316697 L11.8866869,20.4245273 L11.8866869,20.4245273 C11.1832748,19.696232 10.0226488,19.6760581 9.29434914,20.379469 C8.56605377,21.0828811 8.54587991,22.2435071 9.24929077,22.9718067 C9.26404806,22.9870861 9.27906978,23.0021078 9.29434914,23.0168651 L14.4808552,28.2033712 L14.4808554,28.2033713 C15.1967714,28.9190725 16.3572728,28.9190725 17.0731931,28.203371 L30.0348606,15.2398559 L30.0348605,15.2398559 C30.773447,14.5472547 30.8107267,13.3870498 30.1181246,12.6484634 C29.4255234,11.909877 28.2653186,11.8725973 27.5267322,12.5651994 C27.4984089,12.5917592 27.4709363,12.619212 27.4443567,12.6475164 L15.7769954,24.31303 L15.7788288,24.3166966 L15.7788566,24.316697 Z" id="形状"></path>
                </g>
            </g>
        </g>
    </g>
</svg>