<?xml version="1.0" encoding="UTF-8"?>
<svg width="32px" height="32px" viewBox="0 0 32 32" version="1.1" xmlns="http://www.w3.org/2000/svg" xmlns:xlink="http://www.w3.org/1999/xlink">
    <title>男@2x</title>
    <g id="员工端-管家管理" stroke="none" stroke-width="1" fill="none" fill-rule="evenodd">
        <g id="客户详情" transform="translate(-139.000000, -173.000000)" fill-rule="nonzero">
            <g id="男" transform="translate(139.000000, 173.000000)">
                <rect id="矩形" fill="#000000" opacity="0" x="0" y="0" width="32" height="32"></rect>
                <path d="M20.7875,3.025 C19.9875,3.025 19.3375,3.675 19.3375,4.475 C19.3375,5.275 19.9875,5.925 20.7875,5.925 L24.45,5.925 L17.69375,12.7875 C16.121875,11.665625 14.19375,10.996875 12.096875,10.996875 C6.840625,10.996875 2.58125,15.165625 2.58125,20.309375 C2.58125,25.453125 6.840625,29.621875 12.096875,29.621875 C17.353125,29.621875 21.6125,25.453125 21.6125,20.309375 C21.6125,18.253125 20.921875,16.35625 19.765625,14.815625 L26.5125,7.9625 L26.5125,11.68125 C26.5125,12.48125 27.1625,13.13125 27.9625,13.13125 C28.7625,13.13125 29.4125,12.48125 29.4125,11.68125 L29.4125,3.025 L20.7875,3.025 Z M12.1,26.71875 C8.453125,26.71875 5.484375,23.84375 5.484375,20.30625 C5.484375,16.771875 8.453125,13.89375 12.1,13.89375 C15.746875,13.89375 18.715625,16.76875 18.715625,20.30625 C18.715625,23.840625 15.746875,26.71875 12.1,26.71875 Z" id="形状" fill="#6A98FF"></path>
            </g>
        </g>
    </g>
</svg>