<?xml version="1.0" encoding="UTF-8"?>
<svg width="32px" height="32px" viewBox="0 0 32 32" version="1.1" xmlns="http://www.w3.org/2000/svg" xmlns:xlink="http://www.w3.org/1999/xlink">
    <title>女@2x</title>
    <g id="员工端-管家管理" stroke="none" stroke-width="1" fill="none" fill-rule="evenodd">
        <g id="性别" transform="translate(-42.000000, -165.000000)" fill-rule="nonzero">
            <g id="女" transform="translate(42.000000, 165.000000)">
                <rect id="矩形" fill="#000000" opacity="0" x="0" y="0" width="32" height="32"></rect>
                <path d="M26.7415508,4.95206378 C24.8854018,3.13136244 22.4313836,2.12844141 19.8319622,2.12844141 C17.1605165,2.12844141 14.6588584,3.17855078 12.7882594,5.08527481 C10.9429479,6.96625978 9.94002681,9.45414519 9.96531434,12.0894659 C9.98518309,14.187201 10.6564312,16.1772384 11.8774571,17.8333451 L9.57742184,20.1769562 L4.79063006,15.480477 C4.38894885,15.0780436 3.80205597,14.9223945 3.25373605,15.0728793 C2.70541613,15.223364 2.28019195,15.6567856 2.14020318,16.2078787 C2.00021441,16.7589717 2.16704015,17.3427859 2.57706906,17.7367107 L7.36386087,22.4331899 L4.10628659,25.7535314 C3.50955572,26.3789363 3.52587347,27.3676927 4.14291627,27.9730664 C4.75995907,28.5784401 5.74884675,28.5758793 6.36274606,27.9673181 L9.62032031,24.6472024 L14.4071121,29.3436817 C14.702233,29.634078 15.0998564,29.7965504 15.5138926,29.7959236 C16.1558917,29.7959236 16.7341002,29.4075592 16.9769333,28.8132571 C17.2197664,28.2189551 17.0789688,27.5368086 16.6206731,27.0872222 L11.8338813,22.3909687 L14.1312072,20.0489381 C15.7875397,21.2252593 17.7622239,21.8621887 19.8308333,21.8621887 C22.502279,21.8621887 25.0039371,20.8123051 26.8745361,18.9053552 C28.7200734,17.0241445 29.7227687,14.5364849 29.6977069,11.9011642 C29.6728709,9.26561772 28.6227616,6.79782684 26.7415508,4.95206378 Z M24.6183024,16.6915685 C23.3469273,17.9875538 21.647019,18.7010231 19.8310591,18.7010231 C18.0640937,18.7010231 16.3962464,18.0196147 15.1350314,16.7816553 C13.8562055,15.5274395 13.1427362,13.8503351 13.1260284,12.0589854 C13.108869,10.2676357 13.7900515,8.57721019 15.0447188,7.29861003 C16.316094,6.00262472 18.0160023,5.28915544 19.8319622,5.28915544 C21.598476,5.28915544 23.2663233,5.97078953 24.5279898,7.20852325 C25.8063642,8.462739 26.5198335,10.1400692 26.5369929,11.9311931 C26.5541523,13.7225429 25.8729697,15.4129683 24.6183024,16.6915685 Z" id="形状" fill="#FA518B"></path>
            </g>
        </g>
    </g>
</svg>