<?xml version="1.0" encoding="UTF-8"?>
<svg width="24px" height="24px" viewBox="0 0 24 24" version="1.1" xmlns="http://www.w3.org/2000/svg" xmlns:xlink="http://www.w3.org/1999/xlink">
    <title>taiyang备份 3</title>
    <defs>
        <filter id="filter-1">
            <feColorMatrix in="SourceGraphic" type="matrix" values="0 0 0 0 1.000000 0 0 0 0 0.756982 0 0 0 0 0.422237 0 0 0 1.000000 0"></feColorMatrix>
        </filter>
    </defs>
    <g id="考勤统计-查看日/周/月" stroke="none" stroke-width="1" fill="none" fill-rule="evenodd">
        <g id="考勤打卡-上班打卡-月" transform="translate(-334.000000, -517.000000)">
            <g id="taiyang备份-3" transform="translate(334.000000, 514.000000)" filter="url(#filter-1)">
                <g transform="translate(0.000000, 3.000000)">
                    <path d="M12,0 C12.7574191,0 13.3714286,0.614009489 13.3714286,1.37142858 L13.3714286,3.08571429 C13.3714286,3.84313338 12.7574191,4.45714287 12,4.45714287 C11.2425809,4.45714287 10.6285714,3.84313338 10.6285714,3.08571429 L10.6285714,1.37142858 C10.6285714,0.614009489 11.2425809,0 12,0 L12,0 Z M12,19.5428571 C12.7574191,19.5428571 13.3714286,20.1568666 13.3714286,20.9142857 L13.3714286,22.6285714 C13.3714286,23.3859905 12.7574191,24 12,24 C11.2425809,24 10.6285714,23.3859905 10.6285714,22.6285714 L10.6285714,20.9142857 C10.6285714,20.1568666 11.2425809,19.5428571 12,19.5428571 L12,19.5428571 Z M24,12 C24,12.7574191 23.3859905,13.3714286 22.6285714,13.3714286 L20.9142857,13.3714286 C20.1568666,13.3714286 19.5428571,12.7574191 19.5428571,12 C19.5428571,11.2425809 20.1568666,10.6285714 20.9142857,10.6285714 L22.6285714,10.6285714 C23.3859905,10.6285714 24,11.2425809 24,12 L24,12 Z M4.45714287,12 C4.45714287,12.7574191 3.84313338,13.3714286 3.08571429,13.3714286 L1.37142858,13.3714286 C0.614009489,13.3714286 -1.52259158e-16,12.7574191 -1.52259158e-16,12 C-1.52259158e-16,11.2425809 0.614009489,10.6285714 1.37142858,10.6285714 L3.08571429,10.6285714 C3.84313338,10.6285714 4.45714287,11.2425809 4.45714287,12 L4.45714287,12 Z M20.4853714,3.51462858 C20.7425794,3.77182336 20.8870785,4.12066229 20.8870785,4.4844 C20.8870785,4.84813771 20.7425794,5.19697664 20.4853714,5.45417142 L19.2730286,6.66651429 C18.9265626,7.01298026 18.4215775,7.14829064 17.9482962,7.02147529 C17.4750148,6.89465995 17.1053401,6.52498516 16.9785247,6.05170385 C16.8517094,5.57842253 16.9870197,5.07343738 17.3334857,4.72697142 L18.5458286,3.51462858 C18.8030234,3.25742055 19.1518623,3.11292147 19.5156,3.11292147 C19.8793377,3.11292147 20.2281766,3.25742055 20.4853714,3.51462858 L20.4853714,3.51462858 Z M6.66651429,17.3334857 C6.92372232,17.5906805 7.06822141,17.9395194 7.06822141,18.3032571 C7.06822141,18.6669949 6.92372232,19.0158338 6.66651429,19.2730286 L5.45417142,20.4853714 C4.91858145,21.0209614 4.05021855,21.0209614 3.51462858,20.4853714 C2.97903861,19.9497815 2.97903861,19.0814185 3.51462858,18.5458286 L4.72697142,17.3334857 C4.9841662,17.0762777 5.33300514,16.9317786 5.69674286,16.9317786 C6.06048057,16.9317786 6.40931951,17.0762777 6.66651429,17.3334857 L6.66651429,17.3334857 Z M20.4853714,20.4853714 C20.2281766,20.7425794 19.8793377,20.8870785 19.5156,20.8870785 C19.1518623,20.8870785 18.8030234,20.7425794 18.5458286,20.4853714 L17.3334857,19.2730286 C16.7978958,18.7374386 16.7978958,17.8690757 17.3334857,17.3334857 C17.8690757,16.7978958 18.7374386,16.7978958 19.2730286,17.3334857 L20.4853714,18.5458286 C20.7425794,18.8030234 20.8870785,19.1518623 20.8870785,19.5156 C20.8870785,19.8793377 20.7425794,20.2281766 20.4853714,20.4853714 L20.4853714,20.4853714 Z M6.66651429,6.66651429 C6.40931951,6.92372232 6.06048057,7.06822141 5.69674286,7.06822141 C5.33300514,7.06822141 4.9841662,6.92372232 4.72697142,6.66651429 L3.51462858,5.45417142 C3.16816261,5.10770546 3.03285224,4.60272032 3.15966759,4.12943902 C3.28648293,3.65615771 3.65615771,3.28648293 4.12943902,3.15966759 C4.60272032,3.03285224 5.10770546,3.16816261 5.45417142,3.51462858 L6.66651429,4.72697142 C6.92372232,4.9841662 7.06822141,5.33300514 7.06822141,5.69674286 C7.06822141,6.06048057 6.92372232,6.40931951 6.66651429,6.66651429 L6.66651429,6.66651429 Z M12,17.1428571 C9.15977142,17.1428571 6.85714287,14.8402286 6.85714287,12 C6.85714287,9.15977142 9.15977145,6.85714287 12,6.85714287 C14.8402286,6.85714287 17.1428571,9.15977145 17.1428571,12 C17.1428571,14.8402286 14.8402286,17.1428571 12,17.1428571 Z" id="形状" fill="#000000" fill-rule="nonzero"></path>
                </g>
            </g>
        </g>
    </g>
</svg>