<?xml version="1.0" encoding="UTF-8"?>
<svg width="78px" height="78px" viewBox="0 0 78 78" version="1.1" xmlns="http://www.w3.org/2000/svg" xmlns:xlink="http://www.w3.org/1999/xlink">
    <!-- Generator: Sketch 60 (88103) - https://sketch.com -->
    <title>矩形</title>
    <desc>Created with Sketch.</desc>
    <defs>
        <linearGradient x1="50%" y1="0%" x2="50%" y2="100%" id="linearGradient-1">
            <stop stop-color="#79E7FF" offset="0%"></stop>
            <stop stop-color="#44CAFF" offset="100%"></stop>
        </linearGradient>
    </defs>
    <g id="社区端" stroke="none" stroke-width="1" fill="none" fill-rule="evenodd">
        <g id="首页" transform="translate(-429.000000, -464.000000)">
            <g id="背景色" fill="#F6F8FA">
                <rect id="矩形" x="0" y="0" width="750" height="1624"></rect>
            </g>
            <g id="编组" transform="translate(0.000000, 242.000000)">
                <rect id="矩形" fill="#FFFFFF" x="0" y="0" width="750" height="372"></rect>
                <g id="矩形" transform="translate(375.000000, 186.000000)">
                    <rect fill="#FFFFFF" fill-rule="evenodd" x="0" y="0" width="186" height="186"></rect>
                    <g id="icon" transform="translate(54.000000, 36.000000)">
                        <g id="问卷调查">
                            <rect id="矩形" fill="url(#linearGradient-1)" fill-rule="evenodd" x="0" y="0" width="78" height="78" rx="10"></rect>
                            <g id="编组" stroke-width="1" fill-rule="evenodd" transform="translate(19.000000, 18.000000)" stroke="#FFFFFF">
                                <rect id="矩形" stroke-width="3" x="0" y="6" width="34" height="36" rx="4"></rect>
                                <path d="M6,4 C6,1.790861 7.790861,0 10,0 L32,0 C36.418278,0 40,3.581722 40,8 L40,32 C40,34.209139 38.209139,36 36,36" id="路径" stroke-width="3" stroke-linecap="round"></path>
                            </g>
                            <text id="？" font-family="PingFangSC-Regular, PingFang SC" font-size="30" font-weight="normal" fill="#FFFFFF">
                                <tspan x="28.5" y="53">？</tspan>
                            </text>
                        </g>
                    </g>
                    <g id="文字" transform="translate(49.000000, 130.000000)" fill="#333333" font-family="PingFangSC-Regular, PingFang SC" font-size="24" font-weight="normal">
                        <g id="问卷调查">
                            <text>
                                <tspan x="-4" y="23">问卷调查</tspan>
                            </text>
                        </g>
                    </g>
                </g>
                <g id="矩形备份-6" transform="translate(375.000000, 186.000000)">
                    <rect id="矩形" fill="#FFFFFF" x="0" y="0" width="186" height="186"></rect>
                    <g id="icon" transform="translate(54.000000, 36.000000)">
                        <g id="问卷调查">
                            <rect id="矩形" fill="url(#linearGradient-1)" fill-rule="evenodd" x="0" y="0" width="78" height="78" rx="10"></rect>
                            <g id="编组" stroke-width="1" fill-rule="evenodd" transform="translate(19.000000, 18.000000)" stroke="#FFFFFF">
                                <rect id="矩形" stroke-width="3" x="0" y="6" width="34" height="36" rx="4"></rect>
                                <path d="M6,4 C6,1.790861 7.790861,0 10,0 L32,0 C36.418278,0 40,3.581722 40,8 L40,32 C40,34.209139 38.209139,36 36,36" id="路径" stroke-width="3" stroke-linecap="round"></path>
                            </g>
                            <text id="？" font-family="PingFangSC-Regular, PingFang SC" font-size="30" font-weight="normal" fill="#FFFFFF">
                                <tspan x="28.5" y="53">？</tspan>
                            </text>
                        </g>
                    </g>
                </g>
            </g>
        </g>
    </g>
</svg>