<?xml version="1.0" encoding="UTF-8"?>
<svg width="31px" height="34px" viewBox="0 0 31 34" version="1.1" xmlns="http://www.w3.org/2000/svg" xmlns:xlink="http://www.w3.org/1999/xlink">
    <!-- Generator: Sketch 64 (93537) - https://sketch.com -->
    <title>路径</title>
    <desc>Created with Sketch.</desc>
    <g id="社区端h5" stroke="none" stroke-width="1" fill="none" fill-rule="evenodd">
        <g id="访客记录" transform="translate(-32.000000, -307.000000)">
            <rect fill="#FFFFFF" x="0" y="0" width="750" height="1624"></rect>
            <g id="背景色" fill="#F6F8FA" opacity="0.800000012">
                <rect id="矩形" x="0" y="0" width="750" height="1624"></rect>
            </g>
            <g id="编组-4" transform="translate(0.000000, 204.000000)">
                <rect id="Rectangle备份" fill="#FFFFFF" x="0" y="80" width="750" height="211"></rect>
                <path d="M36.3840505,104.595546 C34.7760617,105.390409 33.6724605,106.730286 33.3561347,108.130067 C32.7159105,110.989481 31.9965731,118.637791 40.0456275,127.76242 C48.0396069,136.825083 54.7817082,136.128988 57.333018,135.891609 C58.8805256,135.744207 60.0158955,135.143941 60.7957964,134.144545 C61.5255871,133.209363 61.9501378,131.880157 61.9984525,130.106925 C62.0331089,128.885864 61.5316326,127.843988 60.3924104,126.965985 C58.3415824,125.387332 54.9375012,125.111093 53.7698577,125.459568 C52.6504647,125.79034 51.8584367,126.590176 51.2316577,127.270936 C51.0191215,127.501925 50.7773548,127.808538 50.1824509,127.948109 C49.3443006,127.612198 42.4443302,123.226894 39.8904797,116.174177 C40.8463042,115.45974 42.4206621,113.900816 42.7554515,112.829441 C43.0541867,111.876308 43.1612026,109.587271 42.5379052,107.597288 C42.0754755,106.120903 41.2200002,104.847339 39.9085467,104.239577 C39.1019868,103.866605 37.727791,103.934144 36.3840505,104.595546 Z" id="路径" stroke="#BC8D58" stroke-width="2" fill-rule="nonzero"></path>
            </g>
        </g>
    </g>
</svg>