<?xml version="1.0" encoding="UTF-8"?>
<svg width="35px" height="38px" viewBox="0 0 35 38" version="1.1" xmlns="http://www.w3.org/2000/svg" xmlns:xlink="http://www.w3.org/1999/xlink">
    <!-- Generator: Sketch 64 (93537) - https://sketch.com -->
    <title>路径</title>
    <desc>Created with Sketch.</desc>
    <g id="员工端h5" stroke="none" stroke-width="1" fill="none" fill-rule="evenodd">
        <g id="访客二维码验证-已到访" transform="translate(-116.000000, -671.000000)" fill-rule="nonzero" stroke="#BC8D58" stroke-width="2">
            <path d="M120.807272,672.658995 C119.002819,673.539465 117.761057,675.022614 117.405875,676.574061 C116.674338,679.799143 115.861336,688.424464 125.056657,698.714028 C134.174095,708.916969 141.863444,708.145227 144.774851,707.877839 C146.502911,707.715364 147.773254,707.055907 148.644853,705.953417 C149.469229,704.91066 149.943723,703.427333 149.998268,701.451239 C150.036896,700.107823 149.476329,698.962246 148.206984,697.99658 C145.896884,696.241293 142.061133,695.926396 140.744486,696.314269 C139.486898,696.681082 138.601201,697.571925 137.897885,698.325956 C137.640834,698.601721 137.34459,698.962284 136.521162,699.130193 C135.552284,698.746902 127.574622,693.751281 124.669768,685.560747 C125.748076,684.76516 127.531925,683.031539 127.910035,681.837144 C128.248897,680.769936 128.367072,678.207317 127.660285,675.979895 C127.141924,674.346295 126.189311,672.930549 124.717114,672.257098 C123.820867,671.848001 122.295196,671.936074 120.807272,672.658995 Z" id="路径"></path>
        </g>
    </g>
</svg>