<?xml version="1.0" encoding="UTF-8"?>
<svg width="80px" height="80px" viewBox="0 0 80 80" version="1.1" xmlns="http://www.w3.org/2000/svg" xmlns:xlink="http://www.w3.org/1999/xlink">
    <title>形状</title>
    <g id="移动端" stroke="none" stroke-width="1" fill="none" fill-rule="evenodd">
        <g id="上传附件" transform="translate(-32.000000, -205.000000)" fill="#F44336" fill-rule="nonzero">
            <path d="M103.110891,205 L40.8887132,205 C35.9998617,205 32,209.000059 32,213.889109 L32,276.111287 C32,281.000138 35.9998616,285 40.8887132,285 L103.111089,285 C108.000138,285 112,281.000138 112,276.111287 L112,213.889109 C112,209.000257 107.999941,205 103.110891,205 Z M70.0161841,239.273766 C68.9943202,242.562594 67.8207982,247.648383 66.0946233,251.829562 C65.2046446,254.09099 65.2477496,253.697114 64.5786344,255.124915 L65.1563987,254.937864 C71.0944008,253.276148 75.2518524,252.864279 79.118247,252.152652 C78.3423581,251.539889 77.6681019,251.06613 77.1344311,250.577542 C74.4779409,247.636717 73.5505915,247.084065 70.0161841,239.27337 L70.0161841,239.273766 L70.0161841,239.273766 Z M99.156903,258.111613 C98.4013801,258.956114 97.068093,259.444703 95.1127501,259.444703 C91.7347465,259.444703 88.664607,258.512014 84.2198549,256.245248 C76.5752532,257.089749 68.445622,257.984869 63.8676006,259.451623 C63.6453532,259.540206 63.3792098,259.629382 63.0675887,259.762651 C57.5564837,269.184639 53.4642827,273.17936 49.8677885,273.020584 C48.7272871,272.970163 47.069131,272.308759 46.535658,271.997929 L45.8766269,271.371721 L45.6446907,270.931774 C45.3338606,270.131564 45.2450803,269.376041 45.422641,268.53154 C45.911625,266.175994 48.44493,262.442869 53.7784742,259.109552 C54.6229752,258.487101 56.5504383,257.503003 58.3280226,256.658502 C59.6731736,254.51848 60.2944383,253.147427 62.0004449,249.356367 C63.9308739,244.776171 65.6894764,239.302239 66.8005161,235.391553 L66.8005161,235.347064 C65.1565965,229.969031 64.1786284,226.321918 65.8229435,220.410411 C66.2229495,218.721607 67.6891105,216.988314 69.3344142,216.988314 L70.4007672,216.988314 C71.4230266,216.988314 72.4007969,217.344029 73.1120284,218.054667 C76.045537,220.988374 74.6673653,228.546568 73.2010065,234.458074 C73.1120284,234.724415 73.0673416,234.946465 73.0230503,235.079932 C74.8008324,240.102053 77.6109582,245.061494 80.4109997,247.372947 C81.5667262,248.261343 82.6987252,249.282812 84.1207926,250.082626 C86.1208223,249.860181 87.9120501,249.666802 89.7341236,249.666802 C95.245624,249.666802 98.5789408,250.644968 99.867739,252.733975 C100.312432,253.444811 100.534284,254.289115 100.40141,255.177907 C100.356921,256.289144 99.9571125,257.311404 99.156903,258.111613 L99.156903,258.111613 Z M96.3479637,254.398063 C95.9038642,253.953568 94.6275229,252.68652 88.4049887,252.68652 C88.0943563,252.68652 87.3315175,252.607231 86.9321048,253.051528 C90.1764435,254.473596 93.2813833,255.553394 95.3255065,255.553394 C95.6371276,255.553394 95.9038641,255.508707 96.1700074,255.464812 L96.3477659,255.464812 C96.5702111,255.375834 96.7034805,255.330949 96.7479695,254.887047 C96.6595846,254.753185 96.5704088,254.575426 96.3479637,254.398063 L96.3479637,254.398063 Z M57.2274626,260.768697 C56.2939835,261.301972 55.5386585,261.79056 55.0939659,262.146473 C51.9384075,265.035295 49.9383778,267.968803 49.7161302,269.658003 C51.7159621,268.99126 54.3380475,266.057752 57.2274626,260.769092 L57.2274626,260.768697 Z M69.9173196,230.672551 L70.1393693,230.494595 C70.4505949,229.072527 70.6680969,227.544872 70.9348334,226.566706 L71.0681029,225.855673 C71.5124001,223.32217 71.3427485,221.841772 70.587028,220.775419 L69.9202856,220.552974 C69.8071465,220.725079 69.7032574,220.90309 69.6090599,221.086249 C68.8537348,222.95301 68.8952579,226.672887 69.9175173,230.672749 L69.9173196,230.672551 L69.9173196,230.672551 Z" id="形状"></path>
        </g>
    </g>
</svg>