<?xml version="1.0" encoding="UTF-8"?>
<svg width="38px" height="38px" viewBox="0 0 38 38" version="1.1" xmlns="http://www.w3.org/2000/svg" xmlns:xlink="http://www.w3.org/1999/xlink">
    <title>形状结合</title>
    <g id="控件-h5" stroke="none" stroke-width="1" fill="none" fill-rule="evenodd">
        <g id="上传附件" transform="translate(-53.000000, -610.000000)" fill="#BC8D58">
            <path d="M72,610 C72.5522847,610 73,610.447715 73,611 L73,628 L90,628 C90.5522847,628 91,628.447715 91,629 C91,629.552285 90.5522847,630 90,630 L73,630 L73,647 C73,647.552285 72.5522847,648 72,648 C71.4477153,648 71,647.552285 71,647 L71,629.999 L54,630 C53.4477153,630 53,629.552285 53,629 C53,628.447715 53.4477153,628 54,628 L71,627.999 L71,611 C71,610.447715 71.4477153,610 72,610 Z" id="形状结合"></path>
        </g>
    </g>
</svg>