<?xml version="1.0" encoding="UTF-8"?>
<svg width="27px" height="29px" viewBox="0 0 27 29" version="1.1" xmlns="http://www.w3.org/2000/svg" xmlns:xlink="http://www.w3.org/1999/xlink">
    <!-- Generator: Sketch 64 (93537) - https://sketch.com -->
    <title>编组</title>
    <desc>Created with Sketch.</desc>
    <g id="社区端h5" stroke="none" stroke-width="1" fill="none" fill-rule="evenodd">
        <g id="访客记录" transform="translate(-34.000000, -241.000000)">
            <rect fill="#FFFFFF" x="0" y="0" width="750" height="1624"></rect>
            <g id="背景色" fill="#F6F8FA" opacity="0.800000012">
                <rect id="矩形" x="0" y="0" width="750" height="1624"></rect>
            </g>
            <g id="编组-4" transform="translate(0.000000, 204.000000)">
                <rect id="BG备份" fill="#FFFFFF" x="0" y="0" width="750" height="80"></rect>
                <g id="编组" transform="translate(34.000000, 37.000000)" stroke="#BC8D58" stroke-width="2">
                    <path d="M13.5,1 C11.1527898,1 9.02778981,1.95139491 7.48959236,3.48959236 C5.95139491,5.02778981 5,7.15278981 5,9.5 C5,12.3187152 6.37215398,14.8168016 8.48497809,16.3632944 C9.055095,16.7805945 9.67495534,17.1255434 10.3289919,17.3900622 C9.63886339,17.5624404 8.95858611,17.7943994 8.29716996,18.0855032 C6.1079493,19.0490274 4.25696464,20.6025869 2.96636422,22.5365689 C1.90049219,24.1337924 1.21766519,25.9908094 1.04388607,27.9872663 L25.9258985,27.6855004 C25.7063936,25.7510194 25.0079478,23.9552123 23.9479716,22.4098765 C22.6617808,20.5347431 20.8442793,19.0279227 18.703291,18.085559 C18.0422034,17.7945789 17.3622602,17.5626919 16.6718521,17.3905097 C17.3253546,17.1259185 17.9452783,16.7808447 18.5154133,16.3634295 C20.6278265,14.8168602 22,12.3187477 22,9.5 C22,7.15278981 21.0486051,5.02778981 19.5104076,3.48959236 C17.9722102,1.95139491 15.8472102,1 13.5,1 Z" id="形状结合"></path>
                </g>
            </g>
        </g>
    </g>
</svg>