<?xml version="1.0" encoding="UTF-8"?>
<svg width="160px" height="160px" viewBox="0 0 160 160" version="1.1" xmlns="http://www.w3.org/2000/svg" xmlns:xlink="http://www.w3.org/1999/xlink">
    <!-- Generator: Sketch 64 (93537) - https://sketch.com -->
    <title>编组 8</title>
    <desc>Created with Sketch.</desc>
    <defs>
        <linearGradient x1="50%" y1="0%" x2="50%" y2="100%" id="linearGradient-1">
            <stop stop-color="#B4EC51" offset="0%"></stop>
            <stop stop-color="#429321" offset="100%"></stop>
        </linearGradient>
        <linearGradient x1="50%" y1="0%" x2="50%" y2="100%" id="linearGradient-2">
            <stop stop-color="#E9F2B4" offset="0%"></stop>
            <stop stop-color="#C2D951" offset="100%"></stop>
        </linearGradient>
    </defs>
    <g id="员工端h5" stroke="none" stroke-width="1" fill="none" fill-rule="evenodd">
        <g id="访客二维码验证-未到访" transform="translate(-295.000000, -231.000000)">
            <g id="编组-8" transform="translate(295.000000, 231.000000)">
                <g id="编组-7">
                    <g id="编组-6">
                        <g id="头像-男孩" fill-rule="nonzero">
                            <rect id="矩形" fill="#000000" opacity="0" x="0" y="0" width="160" height="160"></rect>
                            <path d="M80.0003253,0 C35.8409423,0 0.0370923438,35.80385 0.0370923438,79.9632331 C0.0370923438,107.162316 13.6226427,131.187076 34.3748195,145.632257 C38.4191839,131.548889 48.6384434,120.939835 62.5448097,116.095708 C63.1239705,115.893327 63.7096387,115.702009 64.3018144,115.520452 C64.3955212,115.491819 64.4879267,115.460583 64.5822844,115.432601 C65.9755742,115.014587 67.3861636,114.656566 68.8101581,114.359527 C68.9559244,114.328942 69.1029922,114.301611 69.2487584,114.272328 C70.0125011,114.119276 70.7794729,113.982805 71.5491331,113.863011 C72.0911197,113.779162 72.6343339,113.703451 73.1785922,113.635901 C73.3744656,113.611173 73.5690377,113.584493 73.7655619,113.562367 C74.5020109,113.476857 75.2401014,113.406128 75.9793877,113.350225 L84.0583553,113.350225 C84.8015031,113.405539 85.5355406,113.478422 86.265023,113.561066 C86.4713083,113.585144 86.6756414,113.613125 86.8806253,113.639155 C87.6325035,113.732653 88.3823256,113.842002 89.1295912,113.967129 C89.6632,114.056932 90.1929044,114.154543 90.7180536,114.259313 C90.8976584,114.295104 91.0798664,114.328292 91.2581698,114.366035 C92.6657258,114.662122 94.0433475,115.011571 95.3903845,115.414381 C95.5569745,115.463837 95.7209617,115.517849 95.8869009,115.569257 C96.3905756,115.725435 96.8909966,115.888772 97.3855608,116.059917 C111.336177,120.885172 121.589276,131.503337 125.65121,145.614037 C146.389071,131.166252 159.964209,107.150602 159.964209,79.9619316 C159.964209,35.8031992 124.159708,0 80.0003253,0 Z M80.0003253,113.331354 C59.6294834,113.331354 43.0485656,97.1499922 42.3841577,76.9411852 C42.3613817,76.9268687 42.3386056,76.9151555 42.3158297,76.9008391 C41.5355895,62.3144469 49.1616403,51.1093125 58.8154047,44.5615419 C58.8713686,44.5231481 58.9253802,44.4834528 58.9813441,44.4457098 C59.3496642,44.1984277 59.7231905,43.9641605 60.0967166,43.7305437 C60.2431336,43.6387891 60.386297,43.54313 60.5340155,43.4539783 C66.477897,39.8436591 73.0178588,37.9571567 78.7710728,38.0664814 C79.1803898,38.0528158 79.5884053,38.0352458 80.0009761,38.0352458 C80.3927231,38.0352458 80.7786133,38.0528158 81.1677573,38.0645292 C85.5797913,37.9883923 90.4499478,39.0855441 95.1619739,41.2225823 C98.6714272,42.7703884 101.923829,44.8452458 104.806628,47.3753523 C112.654582,54.1079338 118.336214,64.2263283 117.648379,76.9008391 L117.617144,76.9190598 C116.963148,97.137628 100.378325,113.331354 80.0003253,113.331354 L80.0003253,113.331354 Z" id="形状" fill="url(#linearGradient-1)" opacity="0.900000036"></path>
                            <path d="M95.3903845,115.41874 C95.7259021,115.735261 96.0561776,116.080936 96.3903845,116.40995 C96.0561773,116.080935 95.7259021,115.73526 95.3903845,115.41874 Z M68.8095073,115.01684 C69.1418514,114.821097 69.477163,114.646177 69.8095073,114.458764 C69.4756795,114.646178 69.140368,114.821097 68.8095073,115.01684 Z M64.3011636,116.179522 C64.6352702,115.996273 64.9647367,115.796365 65.3011636,115.617281 C64.9647367,115.796365 64.6352702,115.996273 64.3011636,116.179522 Z M97.3849102,116.060568 C97.4994408,116.100263 97.61267,116.140609 97.7258992,116.180955 C97.3008937,117.385437 96.7533517,118.543104 96.0918848,119.635747 C98.7703408,123.760152 98.0981239,141.74342 94.0732817,138.916595 L87.0270423,133.954684 L79.9990239,129.010993 L80.4610511,128.686273 C80.3074759,128.690177 80.1539006,128.697986 79.9990239,128.697986 C79.8376398,128.697986 79.6782078,128.689527 79.5181252,128.685622 L79.9808031,129.010993 L72.9527845,133.954684 L65.9065453,138.916595 C61.859578,141.748626 61.1893133,123.697031 63.8944495,119.614272 C63.2401149,118.530784 62.6978505,117.383459 62.2760531,116.190066 C62.3652048,116.158179 62.4537058,116.126293 62.5435083,116.095708 C48.637142,120.939184 38.4178825,131.548889 34.373518,145.632257 C47.3141825,154.640485 63.0387231,159.926466 79.9990239,159.926466 C96.9703872,159.926466 112.704689,154.633327 125.649258,145.615338 C121.589276,131.504639 111.336178,120.885823 97.3849102,116.060568 L97.3849102,116.060568 Z M90.7180536,114.393689 C91.0505836,114.62275 91.3879331,114.835153 91.7180536,115.076709 C91.3879331,114.835153 91.0517885,114.618586 90.7180536,114.393689 Z M73.1779414,114.256969 C73.5116442,114.102873 73.8431299,113.927954 74.1779414,113.786352 C73.8431299,113.927954 73.5116442,114.098708 73.1779414,114.256969 Z M86.2643722,113.772101 C86.5994672,113.922032 86.931391,114.105281 87.2643722,114.271871 C86.9313912,114.109446 86.6005246,113.930361 86.2643722,113.772101 Z" id="形状" fill="url(#linearGradient-2)"></path>
                            <path d="M63.8951003,119.613622 C64.4326136,118.802797 65.1028783,118.539897 65.9071959,119.105392 L72.9534353,124.067303 L79.5187759,128.685622 C79.6795094,128.689527 79.8382905,128.697986 79.9996747,128.697986 C80.1545514,128.697986 80.3081266,128.690177 80.4617017,128.686273 L87.0276931,124.067303 L94.0739325,119.105392 C94.8821547,118.534691 95.5543716,118.806701 96.0925356,119.635096 C96.7541239,118.542518 97.3016719,117.384839 97.7265498,116.180305 L97.3855608,116.059917 C96.8887266,115.888173 96.3891059,115.724597 95.8869009,115.569257 C95.7209616,115.517849 95.5569745,115.463837 95.3903845,115.414381 C94.0281473,115.007657 92.6495453,114.657905 91.2581698,114.366035 C91.0798664,114.328291 90.8976586,114.295104 90.7180536,114.259313 C89.447113,114.004696 88.1670708,113.797831 86.8806253,113.639155 C86.6756414,113.613125 86.4713083,113.584493 86.265023,113.561066 C85.5308912,113.476603 84.7951985,113.40631 84.0583553,113.350225 L75.9793877,113.350225 C75.2401014,113.406128 74.5020109,113.476857 73.7655619,113.562367 C73.5690377,113.584493 73.3744656,113.611824 73.1785922,113.635901 C71.8611079,113.798531 70.5502304,114.010824 69.2487584,114.272328 C69.1023414,114.301611 68.9552736,114.328942 68.8101581,114.359527 C67.3863057,114.657181 65.9757425,115.015195 64.5822844,115.432601 C64.4879267,115.460583 64.3955212,115.491819 64.3018144,115.520452 C63.7096387,115.701358 63.1239705,115.893327 62.5448097,116.095708 C62.455658,116.126293 62.3665062,116.158179 62.2773545,116.190066 C62.6990602,117.383179 63.2411017,118.530275 63.8951003,119.613622 L63.8951003,119.613622 Z" id="路径" fill="#FEFEFE"></path>
                            <path d="M94.0739325,119.105392 L87.0276931,124.067303 L80.4617017,128.686273 L79.9996747,129.010993 L87.0276931,133.954684 L94.0739325,138.916595 C98.0987745,141.74342 98.7709916,123.760153 96.0925356,119.635747 C95.5550223,118.806701 94.8828055,118.534691 94.0739325,119.105392 Z M65.9071959,119.105392 C65.1028783,118.539897 64.4326136,118.802797 63.8951003,119.613622 C61.1899639,123.69638 61.8602286,141.747976 65.9071959,138.915944 L72.9534353,133.954033 L79.9814539,129.010343 L79.5187759,128.684972 L72.9534353,124.066652 L65.9071959,119.105392 L65.9071959,119.105392 Z" id="形状" fill="#7EA701"></path>
                        </g>
                        <circle id="椭圆形" fill="#FFE7D0" cx="80" cy="76" r="39"></circle>
                    </g>
                </g>
                <path d="M80,37 C86.046787,37 91.7721609,38.3761334 96.8800244,40.8323029 C104.008502,42.6601163 110.215733,41.7272392 115.501402,38.0352458 C114.531111,42.6874455 112.310187,46.5904389 108.838629,49.7442261 C115.15098,56.6734771 119,65.8872452 119,76 C109.807501,75.7888666 101.937629,71.164057 95.3903845,62.1255712 C79.2136821,71.3751904 61.0835539,76 41,76 C41,54.4608948 58.4608948,37 80,37 Z" id="形状结合" fill="#A2713B"></path>
            </g>
        </g>
    </g>
</svg>