<?xml version="1.0" encoding="UTF-8"?>
<svg width="42px" height="42px" viewBox="0 0 42 42" version="1.1" xmlns="http://www.w3.org/2000/svg" xmlns:xlink="http://www.w3.org/1999/xlink">
    <title>icon/我的/未选中</title>
    <g id="首页" stroke="none" stroke-width="1" fill="none" fill-rule="evenodd">
        <g id="a" transform="translate(-597.000000, -22.000000)">
            <g id="编组-23备份-8" transform="translate(4.000000, 6.000000)">
                <g id="编组-27" transform="translate(500.000000, 16.000000)">
                    <g id="icon/我的/未选中" transform="translate(93.000000, 0.000000)">
                        <rect id="矩形" x="0" y="0" width="42" height="42"></rect>
                        <path d="M29.0769231,24.1153846 C32.2313187,24.1153846 35.0870879,25.3939561 37.1542582,27.4611264 C39.2214286,29.5282967 40.5,32.3840659 40.5,35.5384615 L40.5,35.5384615 L40.5,37.1538462 C40.5,38.077861 40.125469,38.9143995 39.5199342,39.5199342 C38.9143995,40.125469 38.077861,40.5 37.1538462,40.5 L37.1538462,40.5 L4.84615385,40.5 C3.94921203,40.5 3.13465901,40.1471398 2.53386893,39.5725514 C1.93692914,39.0016454 1.55053028,38.212022 1.50462968,37.3320864 L1.50462968,37.3320864 L1.5,35.5384615 C1.5,32.433625 2.73868742,29.618085 4.74890091,27.5591341 C6.76023016,25.4990403 9.54384867,24.1960849 12.6319455,24.1190129 L12.6319455,24.1190129 Z" id="形状结合" stroke="#999999" stroke-width="3"></path>
                        <polygon id="路径" stroke="#999999" fill="#999999" points="19.2079665 23.6385556 18.1649485 30.666931 21 34.6153846 23.8350515 30.666931 22.7890165 23.6153846"></polygon>
                        <path d="M29.1923077,2.5 L29.1923077,10.6923077 C29.1923077,12.954551 28.2753524,15.0026279 26.7928363,16.485144 C25.3103202,17.9676601 23.2622433,18.8846154 21,18.8846154 C18.7377567,18.8846154 16.6896798,17.9676601 15.2071637,16.485144 C13.7246476,15.0026279 12.8076923,12.954551 12.8076923,10.6923077 C12.8076923,8.43006439 13.7246476,6.38198747 15.2071637,4.89947137 C16.6896798,3.41695527 18.7377567,2.5 21,2.5 L21,2.5 L29.1923077,2.5 Z" id="矩形" stroke="#999999" stroke-width="3"></path>
                    </g>
                </g>
            </g>
        </g>
    </g>
</svg>