<?xml version="1.0" encoding="UTF-8"?>
<svg width="42px" height="42px" viewBox="0 0 42 42" version="1.1" xmlns="http://www.w3.org/2000/svg" xmlns:xlink="http://www.w3.org/1999/xlink">
    <title>icon/我的/选中</title>
    <g id="首页" stroke="none" stroke-width="1" fill="none" fill-rule="evenodd">
        <g id="画板" transform="translate(-597.000000, -22.000000)">
            <g id="编组-23备份-10" transform="translate(4.000000, 6.000000)">
                <g id="icon/我的/选中" transform="translate(593.000000, 16.000000)">
                    <rect id="矩形" x="0" y="0" width="42" height="42"></rect>
                    <path d="M29.0769231,22.6153846 C36.2141414,22.6153846 42,28.4012432 42,35.5384615 L42,37.1538462 C42,39.830303 39.830303,42 37.1538462,42 L4.84615385,42 C2.24203365,42 0.117651086,39.9459991 0.00472180183,37.3697128 L0,37.1538462 L0,35.5384615 C-8.6138966e-16,28.5046812 5.61936783,22.7833745 12.6136281,22.6190169 L12.9230769,22.6153846 L18.963,22.6153846 L18.96,22.6413846 L18.9578337,22.6417898 L17.7692308,31.7907692 L21,35.1507692 L21,35.1493846 L21,35.1507692 L24.2307692,31.7907692 L24.003,30.0423846 L23.0387281,22.6153846 L29.0769231,22.6153846 Z" id="形状结合" fill="#EAA454"></path>
                    <path d="M21,1 L30.6923077,1 L30.6923077,1 L30.6923077,10.6923077 C30.6923077,16.0452214 26.3529137,20.3846154 21,20.3846154 C15.6470863,20.3846154 11.3076923,16.0452214 11.3076923,10.6923077 C11.3076923,5.33939396 15.6470863,1 21,1 Z" id="矩形" fill="#EAA454"></path>
                </g>
            </g>
        </g>
    </g>
</svg>