<?xml version="1.0" standalone="no"?><!DOCTYPE svg PUBLIC "-//W3C//DTD SVG 1.1//EN" "http://www.w3.org/Graphics/SVG/1.1/DTD/svg11.dtd"><svg t="1577245897322" class="icon" viewBox="0 0 1024 1024" version="1.1" xmlns="http://www.w3.org/2000/svg" p-id="5354" xmlns:xlink="http://www.w3.org/1999/xlink" width="200" height="200"><defs><style type="text/css"></style></defs><path d="M889.77 420.437l-108.117-32.853a114.176 114.176 0 0 1-45.098-25.899l-67.584-64.341a257.408 257.408 0 0 0-177.622-70.827h-68.522A260.267 260.267 0 0 0 228.48 314.54l-45.013 51.413a211.584 211.584 0 0 1-76.331 54.57l-17.067 7.297A117.461 117.461 0 0 0 17.067 537.6v72.533a72.107 72.107 0 0 0 72.064 72.022h25.344a141.91 141.91 0 0 0 278.741 0h237.568a141.867 141.867 0 0 0 278.699 0h25.386a72.107 72.107 0 0 0 72.064-72.022v-31.445a166.4 166.4 0 0 0-117.162-158.25zM487.468 277.675h3.882a206.635 206.635 0 0 1 142.379 56.789l67.712 64.427c3.03 2.858 6.741 4.778 9.941 7.381H487.467z m-265.6 122.154l45.056-51.456a209.067 209.067 0 0 1 155.904-70.698h13.44v128.554H215.595c2.005-2.176 4.394-4.138 6.272-6.4z m31.872 346.496a90.88 90.88 0 1 1 90.88-90.88 91.008 91.008 0 0 1-90.752 90.88z m516.266 0a90.88 90.88 0 1 1 90.923-90.88 91.008 91.008 0 0 1-90.795 90.88z m185.728-136.192a20.65 20.65 0 0 1-20.864 20.864h-25.13a141.653 141.653 0 0 0-279.211 0H393.472a141.653 141.653 0 0 0-279.21 0H89.13a20.65 20.65 0 0 1-20.864-20.864V537.6a67.584 67.584 0 0 1 41.77-62.379l17.067-7.338c7.21-2.987 14.25-6.614 21.333-10.283h686.934l39.296 11.733a115.2 115.2 0 0 1 81.066 109.27z" p-id="5355"></path></svg>