<?xml version="1.0" encoding="UTF-8"?>
<svg width="42px" height="42px" viewBox="0 0 42 42" version="1.1" xmlns="http://www.w3.org/2000/svg" xmlns:xlink="http://www.w3.org/1999/xlink">
    <title>icon/工作台</title>
    <g id="首页" stroke="none" stroke-width="1" fill="none" fill-rule="evenodd">
        <g id="画板" transform="translate(-119.000000, -22.000000)">
            <g id="编组-23备份-9" transform="translate(4.000000, 6.000000)">
                <g id="编组-26" transform="translate(22.000000, 16.000000)">
                    <g id="icon/工作台" transform="translate(93.000000, 0.000000)">
                        <rect id="矩形备份-16" x="0" y="0" width="42" height="42"></rect>
                        <path d="M35.7,2.1 C39.1793939,2.1 42,4.92060608 42,8.4 L42,27.3 C42,30.7793939 39.1793939,33.6 35.7,33.6 L6.3,33.6 C2.82060608,33.6 0,30.7793939 0,27.3 L0,8.4 C0,4.92060608 2.82060608,2.1 6.3,2.1 L35.7,2.1 Z M35.7,5.1 L6.3,5.1 C4.54030652,5.1 3.10230414,6.4773233 3.00522394,8.2127388 L3,8.4 L3,27.3 C3,29.0596935 4.3773233,30.4976959 6.1127388,30.5947761 L6.3,30.6 L35.7,30.6 C37.4596935,30.6 38.8976959,29.2226767 38.9947761,27.4872612 L39,27.3 L39,8.4 C39,6.64030652 37.6226767,5.20230414 35.8872612,5.10522394 L35.7,5.1 Z" id="矩形" fill="#999999" fill-rule="nonzero"></path>
                        <path d="M31.506952,11.4198831 C32.1587125,10.8438236 33.1540574,10.9051914 33.7301169,11.556952 C34.2701727,12.1679775 34.2499896,13.0809814 33.708323,13.6673785 L33.593048,13.7801169 L24.2041815,22.0784801 C23.7313061,22.4964318 23.0593783,22.5887092 22.4962425,22.3261883 L22.3579032,22.2531496 L16.2372,18.62385 L10.6478465,25.1726381 C10.1183583,25.7928435 9.21150515,25.9005507 8.55511447,25.446221 L8.42736186,25.3478465 C7.80715653,24.8183583 7.69944925,23.9115051 8.15377904,23.2551145 L8.2521535,23.1273619 L14.7030405,15.5712458 C15.1673333,15.0274059 15.9340198,14.8690293 16.5699954,15.1680049 L16.7041173,15.2390975 L22.97715,18.95775 L31.506952,11.4198831 Z" id="路径-4" fill="#999999" fill-rule="nonzero"></path>
                        <path d="M12.6,35.7 L29.4,35.7 C30.559798,35.7 31.5,36.640202 31.5,37.8 C31.5,38.959798 30.559798,39.9 29.4,39.9 L12.6,39.9 C11.440202,39.9 10.5,38.959798 10.5,37.8 C10.5,36.640202 11.440202,35.7 12.6,35.7 Z" id="矩形" fill="#999999"></path>
                    </g>
                </g>
            </g>
        </g>
    </g>
</svg>