<?xml version="1.0" encoding="UTF-8"?>
<svg width="100px" height="100px" viewBox="0 0 100 100" version="1.1" xmlns="http://www.w3.org/2000/svg" xmlns:xlink="http://www.w3.org/1999/xlink">
    <title>编组 5</title>
    <g id="H5-员工" stroke="none" stroke-width="1" fill="none" fill-rule="evenodd">
        <g id="短信验证码登录-" transform="translate(-326.000000, -1298.000000)">
            <g id="编组-5" transform="translate(326.000000, 1298.000000)">
                <circle id="椭圆形" fill="#F8F9F9" cx="50" cy="50" r="50"></circle>
                <g id="微信" transform="translate(28.000000, 32.000000)" fill="#00C800" fill-rule="nonzero">
                    <path d="M43.9981378,23.0188133 C43.9981378,16.7902014 37.7678168,11.7209701 30.774151,11.7209701 C23.3658312,11.7209701 17.5315461,16.7952559 17.5315461,23.0171043 C17.5315461,29.2524798 23.3657948,34.3149475 30.774151,34.3149475 C32.3262295,34.3149475 33.8918461,33.9222752 35.44731,33.5346756 L39.7159603,35.8704078 L38.543016,31.9825935 C41.6691765,29.6367049 43.9981378,26.5274717 43.9981378,23.0171115 L43.9981378,23.0188133 Z M26.6781551,21.2890153 L26.6781552,21.2890153 C25.7041198,21.2894825 24.9141279,20.5002486 24.9136622,19.5262132 C24.913195,18.5521778 25.7024289,17.7621859 26.6764643,17.7617204 L26.6764643,17.7617204 C27.6504997,17.7618603 28.4399971,18.5515851 28.4398589,19.5256205 C28.4397191,20.4994595 27.6503034,21.2888769 26.6764643,21.2890153 L26.6781551,21.2890153 Z M35.2442193,21.2754746 L35.2442193,21.2754746 C34.2706493,21.3056457 33.4569592,20.5408717 33.4267883,19.5673018 C33.3966172,18.5937318 34.1613912,17.7800417 35.1349612,17.7498709 C35.171371,17.7487425 35.2078073,17.7487425 35.2442171,17.7498708 L35.244217,17.7498708 C36.217787,17.7800419 36.9825607,18.5937317 36.9523899,19.5673017 C36.9235323,20.4984862 36.1753979,21.2466164 35.2442134,21.2754745 L35.2442193,21.2754746 Z" id="形状"></path>
                    <path d="M15.5783117,0.0389268824 C7.01904753,0.0389268824 0.0084363552,5.87317776 0.0084363552,13.281534 C0.0084363552,17.5586206 2.34078311,21.067308 6.2387574,23.7923235 L4.68160259,28.4756279 L10.1248699,25.7472197 C12.0730061,26.1297393 13.6335464,26.5257971 15.5782826,26.5257971 C16.0691257,26.5257971 16.553198,26.5054864 17.0338848,26.4648648 L17.0338846,26.4648641 C16.7190216,25.4061452 16.5571541,24.3078444 16.5531978,23.2033037 C16.5531978,16.3992014 22.3959192,10.8780797 29.7890027,10.8780797 C30.2967695,10.8780797 30.7960744,10.9119309 31.290303,10.9711705 C29.9396389,4.70023131 23.2337293,0.0389268824 15.5782824,0.0389268824 L15.5783117,0.0389268824 Z M10.3483169,10.7240493 L10.348317,10.7240493 C9.17891454,10.7235783 8.23130457,9.77521022 8.23176986,8.60580776 C8.23223736,7.43640529 9.18060544,6.48879533 10.3500079,6.48926061 C10.3500079,6.48926061 10.3500079,6.48926061 10.350008,6.48926061 L10.3500079,6.48926061 C11.5194103,6.48926061 12.4674021,7.43724893 12.4674021,8.60665503 C12.4674021,9.7760575 11.519414,10.7240493 10.3500079,10.7240493 L10.3483169,10.7240493 Z M21.2230333,10.7240456 L21.2230332,10.7240456 C20.0536308,10.7240456 19.105639,9.7760575 19.105639,8.60665139 C19.105639,7.43724893 20.0536271,6.48925715 21.2230332,6.48925715 L21.2230331,6.48925715 C22.3924356,6.48925715 23.3404274,7.43724529 23.3404274,8.60665139 C23.3404274,9.77605386 22.3924392,10.7240456 21.2230331,10.7240456 L21.2230333,10.7240456 Z" id="形状"></path>
                </g>
            </g>
        </g>
    </g>
</svg>