<?xml version="1.0" encoding="UTF-8"?>
<svg width="750px" height="191px" viewBox="0 0 750 191" version="1.1" xmlns="http://www.w3.org/2000/svg" xmlns:xlink="http://www.w3.org/1999/xlink">
    <title>路径 2备份</title>
    <defs>
        <polygon id="path-1" points="0 0 750 0 750 191 0 191"></polygon>
    </defs>
    <g id="我的" stroke="none" stroke-width="1" fill="none" fill-rule="evenodd">
        <g transform="translate(0.000000, -176.000000)" id="路径-2备份">
            <g transform="translate(0.000000, 176.000000)">
                <g id="路径-2备份-2">
                    <mask id="mask-2" fill="white">
                        <use xlink:href="#path-1"></use>
                    </mask>
                    <use id="蒙版" fill="#FFFFFF" xlink:href="#path-1"></use>
                    <path d="M494.608851,18.9509716 L588.79183,31.0091087 C593.174336,31.5701959 596.272208,35.5777702 595.711121,39.9602766 C595.685332,40.1617094 595.651882,40.3620872 595.610844,40.5609745 L562.605274,200.520957 C561.71243,204.848082 557.48081,207.632118 553.153685,206.739274 C552.940898,206.695369 552.729989,206.642813 552.521482,206.581738 L459.523561,179.341144 C455.487676,178.158968 453.056132,174.053827 453.958899,169.946405 L485.779411,25.1688794 C486.6687,21.1227757 490.499712,18.4248834 494.608851,18.9509716 Z" id="路径-2" fill="#058DFD" opacity="0.05" mask="url(#mask-2)"></path>
                    <path d="M667.156783,80.2925503 L763.916304,117.063683 C767.617586,118.470266 769.733094,122.372823 768.891671,126.241928 L749.758484,214.221859 C748.821062,218.532394 744.571281,221.270656 740.258659,220.342882 L639.26425,198.61596 C634.944796,197.686716 632.196487,193.431805 633.125731,189.112351 C633.131983,189.08329 633.138397,189.054265 633.144972,189.025276 L656.513048,86.0011342 C657.490383,81.6923063 661.775664,78.991597 666.084492,79.9689312 C666.449044,80.0516195 666.807353,80.1597575 667.156783,80.2925503 Z" fill="#058DFD" opacity="0.05" mask="url(#mask-2)"></path>
                </g>
                <path d="M570.812109,-36.2604146 L740.984794,-19.1108736 C745.380806,-18.6678555 748.58534,-14.7450471 748.142322,-10.3490358 C748.098853,-9.91769887 748.020394,-9.49060897 747.907722,-9.07198504 L709.732938,132.762622 C708.634798,136.842653 704.553125,139.365246 700.412736,138.522778 L541.277005,106.142535 C536.947445,105.261575 534.151802,101.037614 535.032762,96.7080543 C535.038303,96.6808211 535.043987,96.6536171 535.049811,96.6264431 L562.187641,-29.9774622 C563.041978,-33.9631317 566.756446,-36.6691333 570.812109,-36.2604146 Z" fill="#058DFD" opacity="0.05"></path>
            </g>
        </g>
    </g>
</svg>