<?xml version="1.0" encoding="UTF-8"?>
<svg width="374px" height="202px" viewBox="0 0 374 202" version="1.1" xmlns="http://www.w3.org/2000/svg" xmlns:xlink="http://www.w3.org/1999/xlink">
    <title>形状结合</title>
    <g id="首页" stroke="none" stroke-width="1" fill="none" fill-rule="evenodd">
        <g transform="translate(-376.000000, -88.000000)" fill="#F3F9FF" id="形状结合">
            <g transform="translate(0.000000, 88.000000)">
                <path d="M460.274167,-76.4475173 C551.77065,-126.537633 679.993101,-111.424912 746.669783,-42.689196 C805.10678,17.5481481 796.8563,98.9719541 732.338488,151.897563 L732.338488,151.897563 L724.724875,188.348117 C723.980065,191.897214 719.547187,194.327251 714.822861,193.767721 L714.822861,193.767721 L666.302271,188.050782 C579.476141,217.978889 473.774297,198.941348 415.3373,138.7013 C348.660618,69.9682878 368.781281,-26.3574018 460.274167,-76.4475173 Z M591.937259,32 L564.511583,32 L569.141892,35.3639576 L560,100 L582.795367,100 L586.950772,69.9646643 L613.545367,69.9646643 L609.033784,100 L631.829151,100 L640.971042,32 L614.732625,32 L618.175676,36.565371 L614.970077,58.4310954 L588.494208,58.4310954 L591.937259,32 Z M680.744208,49.3003534 L654.505792,49.3003534 L657.948842,52.664311 L651.062741,100 L673.858108,100 L680.744208,49.3003534 Z M683,32 L660.204633,32 L659.017375,45.8162544 L680.744208,45.8162544 L683,32 Z"></path>
            </g>
        </g>
    </g>
</svg>