<?xml version="1.0" encoding="UTF-8"?>
<svg width="140px" height="140px" viewBox="0 0 140 140" version="1.1" xmlns="http://www.w3.org/2000/svg" xmlns:xlink="http://www.w3.org/1999/xlink">
    <title>编组 17</title>
    <g id="员工端-录入人脸" stroke="none" stroke-width="1" fill="none" fill-rule="evenodd">
        <g id="门禁管理详情页-首次录入" transform="translate(-100.000000, -705.000000)">
            <rect id="BGffffff" fill="#FFFFFF" x="0" y="0" width="750" height="1334"></rect>
            <g id="编组-8" transform="translate(100.000000, 705.000000)">
                <rect id="矩形备份-17" x="0" y="0" width="140" height="140"></rect>
            </g>
            <g id="编组-12" transform="translate(126.500000, 731.500000)">
                <rect id="矩形备份-8" stroke="#EBC38D" stroke-width="8" fill="#FFFAF2" opacity="0.220793225" x="2.5" y="3.25" width="80.5" height="80.5" rx="39"></rect>
                <rect id="矩形" stroke="#EBC38D" stroke-width="4" x="0" y="0" width="87" height="87" rx="43.5"></rect>
                <circle id="椭圆形" fill="#EBC38D" cx="23.3837814" cy="36.4490295" r="6"></circle>
                <circle id="椭圆形备份" fill="#EBC38D" cx="66.6293913" cy="36.4490295" r="6"></circle>
                <path d="M46.4226058,54.8936238 C49.353186,54.8608953 51.952541,54.6911629 53.6254878,55.6616224 C54.594014,56.2234546 54.9603549,57.3341432 54.9603549,59.0195457 C54.9603549,61.9190406 53.7851024,64.5440406 51.8849761,66.4441669 C49.9848498,68.3442931 47.3598498,69.5195457 44.4603549,69.5195457 C41.56086,69.5195457 38.93586,68.3442931 37.0357337,66.4441669 C35.1356074,64.5440406 33.9603549,61.9190406 33.9603549,59.0195457 C33.9603549,57.3341432 34.3266958,56.2234546 35.295222,55.6616224 C36.9681688,54.6911629 39.5675238,54.8608953 42.498104,54.8936238 C43.137584,54.9007655 43.7929305,54.9080445 44.4603549,54.9080445 C45.1277793,54.9080445 45.7831258,54.9007655 46.4226058,54.8936238 Z" id="椭圆形" stroke="#EBC38D" stroke-width="4"></path>
            </g>
        </g>
    </g>
</svg>