<?xml version="1.0" encoding="UTF-8"?>
<svg width="644px" height="540px" viewBox="0 0 644 540" version="1.1" xmlns="http://www.w3.org/2000/svg" xmlns:xlink="http://www.w3.org/1999/xlink">
    <title>ç¼–ç»„ 4</title>
    <defs>
        <rect id="path-1" x="-5.68434189e-14" y="0" width="642.058047" height="540" rx="8"></rect>
        <mask id="mask-2" maskContentUnits="userSpaceOnUse" maskUnits="objectBoundingBox" x="0" y="0" width="642.058047" height="540" fill="white">
            <use xlink:href="#path-1"></use>
        </mask>
        <mask id="mask-4" maskContentUnits="userSpaceOnUse" maskUnits="objectBoundingBox" x="0" y="0" width="642.058047" height="540" fill="white">
            <use xlink:href="#path-1"></use>
        </mask>
        <linearGradient x1="50%" y1="0%" x2="50%" y2="100%" id="linearGradient-5">
            <stop stop-color="#A7B6D9" offset="0%"></stop>
            <stop stop-color="#778CD0" offset="100%"></stop>
        </linearGradient>
        <linearGradient x1="50%" y1="100%" x2="50%" y2="0%" id="linearGradient-6">
            <stop stop-color="#F2F4F8" offset="0%"></stop>
            <stop stop-color="#FFFFFF" offset="100%"></stop>
        </linearGradient>
        <path d="M139.428224,123.228972 C145.405535,122.996878 148.208062,121.129753 156.838164,121.928875 C155.091245,126.875568 157.106726,136.538316 162.884608,150.917118 C171.363589,172.017859 192.692147,182.109514 216.136085,182.109514 C239.737229,182.109514 263.049961,155.815652 285.709092,103.809031 C288.511357,97.3773489 309.075115,102.706201 306.6925,108.908862 C281.739879,173.868008 251.191256,206.34758 215.045633,206.34758 C181.365418,206.34758 157.632709,188.256011 143.822479,160.687922 C139.201468,151.463423 137.736716,138.977106 139.428224,123.228972 Z" id="path-7"></path>
        <filter x="-6.5%" y="-6.6%" width="113.1%" height="120.9%" filterUnits="objectBoundingBox" id="filter-8">
            <feOffset dx="0" dy="4" in="SourceAlpha" result="shadowOffsetOuter1"></feOffset>
            <feGaussianBlur stdDeviation="3" in="shadowOffsetOuter1" result="shadowBlurOuter1"></feGaussianBlur>
            <feColorMatrix values="0 0 0 0 0.364705882   0 0 0 0 0.431372549   0 0 0 0 0.643137255  0 0 0 0.14 0" type="matrix" in="shadowBlurOuter1"></feColorMatrix>
        </filter>
        <linearGradient x1="50%" y1="-97.9242205%" x2="50%" y2="111.945532%" id="linearGradient-9">
            <stop stop-color="#F7D4C0" offset="0%"></stop>
            <stop stop-color="#FFE2D0" offset="100%"></stop>
        </linearGradient>
        <path d="M130.803045,-2.53890605e-12 C140.948864,6.99334391 169.728203,17.0175303 169.728203,58.2582114 C176.520789,99.8669795 175.769917,131.58665 167.47559,153.417222 C155.034099,186.16308 127.188969,205.857679 117.828434,210.349384 C106.279396,215.891254 100.443607,221.249551 86.3168323,220.53006 C72.1900578,219.81057 63.068283,213.127244 52.6426871,199.366778 C37.4020978,179.251131 26.0695822,156.505798 19.7667004,134.620687 C15.5647792,120.030614 9.86147311,97.402224 2.65678205,66.7355178 C-5.80555882,25.6158137 23.1646041,36.4172789 57.3125313,36.4172789 C79.5405706,36.4054855 119.068681,21.0272045 130.803045,-2.53890605e-12 Z" id="path-10"></path>
        <radialGradient cx="50%" cy="50%" fx="50%" fy="50%" r="39.4527851%" gradientTransform="translate(0.500000,0.500000),scale(0.743590,1.000000),rotate(90.000000),scale(1.000000,1.575521),translate(-0.500000,-0.500000)" id="radialGradient-12">
            <stop stop-color="#FF3400" offset="0%"></stop>
            <stop stop-color="#FEDFCB" offset="100%"></stop>
        </radialGradient>
        <radialGradient cx="50%" cy="50%" fx="50%" fy="50%" r="43.1776534%" gradientTransform="translate(0.500000,0.500000),scale(1.000000,0.937931),rotate(84.832016),scale(1.000000,1.048289),translate(-0.500000,-0.500000)" id="radialGradient-13">
            <stop stop-color="#FF3400" offset="0%"></stop>
            <stop stop-color="#FEDFCB" offset="100%"></stop>
        </radialGradient>
        <linearGradient x1="38.0807729%" y1="102.928728%" x2="72.1180471%" y2="-3.88232298%" id="linearGradient-14">
            <stop stop-color="#5B4341" offset="0%"></stop>
            <stop stop-color="#3F1B09" offset="100%"></stop>
        </linearGradient>
        <linearGradient x1="95.6019481%" y1="50%" x2="0%" y2="50%" id="linearGradient-15">
            <stop stop-color="#EA785A" stop-opacity="0.5" offset="0%"></stop>
            <stop stop-color="#EF7D4B" offset="52.183748%"></stop>
            <stop stop-color="#ED7353" stop-opacity="0.5" offset="100%"></stop>
        </linearGradient>
        <linearGradient x1="95.6019481%" y1="50%" x2="0%" y2="50%" id="linearGradient-16">
            <stop stop-color="#EA785A" stop-opacity="0.5" offset="0%"></stop>
            <stop stop-color="#EF7D4B" offset="52.183748%"></stop>
            <stop stop-color="#ED7353" stop-opacity="0.5" offset="100%"></stop>
        </linearGradient>
        <linearGradient x1="47.8009741%" y1="97.8009741%" x2="47.8009741%" y2="2.19902593%" id="linearGradient-17">
            <stop stop-color="#EA785A" stop-opacity="0.5" offset="0%"></stop>
            <stop stop-color="#FFBA9C" offset="39.5974435%"></stop>
            <stop stop-color="#ED7353" stop-opacity="0.5" offset="100%"></stop>
        </linearGradient>
        <linearGradient x1="50%" y1="0%" x2="50%" y2="91.0305966%" id="linearGradient-18">
            <stop stop-color="#503938" offset="0%"></stop>
            <stop stop-color="#EEC4AE" offset="100%"></stop>
        </linearGradient>
        <linearGradient x1="50%" y1="0%" x2="48.1381615%" y2="50%" id="linearGradient-19">
            <stop stop-color="#5C4444" stop-opacity="0.22952804" offset="0%"></stop>
            <stop stop-color="#5C4444" stop-opacity="0" offset="100%"></stop>
        </linearGradient>
        <linearGradient x1="58.4446872%" y1="43.1182499%" x2="53.0165377%" y2="58.320548%" id="linearGradient-20">
            <stop stop-color="#7CD5F6" stop-opacity="0" offset="0%"></stop>
            <stop stop-color="#ADE5FB" offset="100%"></stop>
            <stop stop-color="#ADE5FB" offset="100%"></stop>
            <stop stop-color="#FFFFFF" offset="100%"></stop>
        </linearGradient>
        <linearGradient x1="50%" y1="0%" x2="50%" y2="98.8199301%" id="linearGradient-21">
            <stop stop-color="#E1F9FF" stop-opacity="0.0968913899" offset="0%"></stop>
            <stop stop-color="#74D1F4" offset="100%"></stop>
        </linearGradient>
        <linearGradient x1="50%" y1="0%" x2="50%" y2="100%" id="linearGradient-22">
            <stop stop-color="#A7B6D9" offset="0%"></stop>
            <stop stop-color="#778CD0" offset="100%"></stop>
        </linearGradient>
        <linearGradient x1="50%" y1="0%" x2="50%" y2="100%" id="linearGradient-23">
            <stop stop-color="#F7AD8C" offset="0%"></stop>
            <stop stop-color="#FFD3BA" offset="100%"></stop>
        </linearGradient>
        <linearGradient x1="50%" y1="0%" x2="50%" y2="100%" id="linearGradient-24">
            <stop stop-color="#F7AD8C" offset="0%"></stop>
            <stop stop-color="#FFD3BA" offset="100%"></stop>
        </linearGradient>
        <linearGradient x1="50%" y1="0%" x2="50%" y2="100%" id="linearGradient-25">
            <stop stop-color="#F7AD8C" offset="0%"></stop>
            <stop stop-color="#FFD3BA" offset="100%"></stop>
        </linearGradient>
        <linearGradient x1="26.9772532%" y1="-3.00503188%" x2="72.6886479%" y2="92.8897519%" id="linearGradient-26">
            <stop stop-color="#F7CBB2" offset="0%"></stop>
            <stop stop-color="#FECDB3" offset="42.5725181%"></stop>
            <stop stop-color="#FDC1A4" offset="100%"></stop>
        </linearGradient>
        <linearGradient x1="100%" y1="50%" x2="0%" y2="47.7409854%" id="linearGradient-27">
            <stop stop-color="#FFFFFF" stop-opacity="0" offset="0%"></stop>
            <stop stop-color="#30C9FF" offset="53.9881993%"></stop>
            <stop stop-color="#FFFFFF" stop-opacity="0" offset="100%"></stop>
        </linearGradient>
    </defs>
    <g id="å‘˜å·¥ç«¯-å½•å…¥äººè„¸" stroke="none" stroke-width="1" fill="none" fill-rule="evenodd">
        <g id="æˆ‘çš„é—¨ç¦-æœ¬äººæœªå½•å…¥" transform="translate(-53.000000, -304.000000)">
            <g id="ç¼–ç»„-4" transform="translate(53.970976, 304.000000)">
                <mask id="mask-3" fill="white">
                    <use xlink:href="#path-1"></use>
                </mask>
                <g id="çŸ©å½¢" stroke="#EAC9A5" mask="url(#mask-2)" stroke-width="6" fill-opacity="0.106283121" fill="#EAC9A5" stroke-dasharray="8">
                    <use mask="url(#mask-4)" xlink:href="#path-1"></use>
                </g>
                <g id="ç¼–ç»„-3" mask="url(#mask-3)">
                    <g transform="translate(37.405245, 69.843143)" id="èƒ³è†Š">
                        <g id="ç¼–ç»„-31" transform="translate(160.699518, 0.000000)">
                            <g id="ç¼–ç»„-30" transform="translate(0.000000, 176.682411)">
                                <path d="M227.339127,0.006970012 C246.815442,69.0076743 272.241159,104.856169 303.61628,107.552453 C303.991327,132.077993 268.981448,209.122544 211.469241,203.909725 C173.12777,200.434512 153.898428,173.61775 153.781214,123.459439 C165.810177,120.404745 172.271371,116.463466 173.164795,111.635599 C174.058218,106.807733 170.726548,97.1318596 163.169784,82.6079796 L197.484885,-8.52651283e-14 L227.339127,0.006970012 Z" id="è·¯å¾„-2" stroke="#FFD7BC" fill="#FFD6BB"></path>
                                <path d="M77.7550626,143.437065 C112.329677,123.075763 149.844269,121.564165 154.419742,121.939974 C159.652651,162.959697 177.110248,184.296921 206.792531,185.951646 C236.474814,187.606371 266.962694,160.095268 298.256169,103.418337 C353.396799,110.965531 383.358694,130.822704 388.141855,162.989858 L438.363133,357.938866 L0.00941049859,347.506202 C28.790102,225.034312 54.7053194,157.011266 77.7550626,143.437065 Z" id="çŸ©å½¢" fill="url(#linearGradient-5)"></path>
                                <g id="çŸ©å½¢" fill-rule="nonzero">
                                    <use fill="black" fill-opacity="1" filter="url(#filter-8)" xlink:href="#path-7"></use>
                                    <use fill="url(#linearGradient-6)" xlink:href="#path-7"></use>
                                </g>
                            </g>
                            <g id="ðŸ˜Š" transform="translate(161.657336, 157.001169) rotate(13.000000) translate(-161.657336, -157.001169) translate(74.421188, 46.036789)">
                                <mask id="mask-11" fill="white">
                                    <use xlink:href="#path-10"></use>
                                </mask>
                                <use id="è’™ç‰ˆ" fill="url(#linearGradient-9)" xlink:href="#path-10"></use>
                                <g id="è…®çº¢" mask="url(#mask-11)">
                                    <g transform="translate(-35.843779, 102.125127)">
                                        <ellipse id="æ¤­åœ†å½¢" fill="url(#radialGradient-12)" opacity="0.200000003" cx="43.0622971" cy="63.2820954" rx="42.527622" ry="31.6231036"></ellipse>
                                        <ellipse id="æ¤­åœ†å½¢å¤‡ä»½-2" fill="url(#radialGradient-13)" opacity="0.182806832" transform="translate(135.739925, 34.215224) rotate(74.000000) translate(-135.739925, -34.215224) " cx="135.739925" cy="34.2152236" rx="26.5101629" ry="28.2645119"></ellipse>
                                    </g>
                                </g>
                            </g>
                            <path d="M238.845623,101.914047 C244.196611,102.993717 253.544418,106.086369 260.906091,111.010735 C268.267765,115.935101 229.484084,8.25087252 234.792494,1.41665348 C239.903972,-5.16403012 253.516763,9.34937945 288.974031,84.0000742 C299.36662,105.880326 293.903536,138.522089 292.033681,141.498617 C284.336576,170.619415 265.477256,208.483313 209.33177,214.165288 C146.834082,220.490112 124.934498,184.170322 108.526641,181.716118 C89.1458022,178.81723 85.3433766,192.986229 72.0532624,190.058897 C58.7631483,187.131566 66.2012514,138.892743 88.2624842,117.123227 C105.036315,100.571197 134.079671,95.636237 170.722807,94.0526979 C202.115186,92.6960711 220.550664,98.222666 238.845623,101.914047 Z" id="è·¯å¾„" fill="url(#linearGradient-14)" transform="translate(180.294960, 107.451822) scale(1, -1) translate(-180.294960, -107.451822) "></path>
                            <ellipse id="æ¤­åœ†å½¢" fill="#562812" cx="154.329274" cy="163.949733" rx="6.97889182" ry="11.8641161"></ellipse>
                            <ellipse id="æ¤­åœ†å½¢å¤‡ä»½-6" fill="#562812" cx="98.6103003" cy="155.226119" rx="6.3931634" ry="9.42150396"></ellipse>
                            <g id="ç¼–ç»„-6" transform="translate(134.901920, 236.043454) rotate(5.000000) translate(-134.901920, -236.043454) translate(118.152579, 226.273006)" stroke-linecap="round">
                                <path d="M0,2.26625605 C12.2822347,8.02509766 23.02919,7.63316293 32.240866,1.09045185" id="è·¯å¾„-6" stroke="url(#linearGradient-15)" stroke-width="2.4" opacity="0.5"></path>
                                <path d="M12.0903248,17.4228785 C15.8158866,18.2037677 18.5026254,18.0558667 20.1505413,16.9791756" id="è·¯å¾„-6å¤‡ä»½" stroke="url(#linearGradient-16)" stroke-width="2" opacity="0.300000012"></path>
                            </g>
                            <path d="M123.070672,146.460044 C113.212537,169.817833 109.647991,183.894499 112.377035,188.690042 C115.106078,193.485585 120.010458,193.485585 127.090174,188.690042" id="è·¯å¾„-13" stroke="url(#linearGradient-17)" stroke-width="3" stroke-linecap="round"></path>
                            <path d="M195.766404,120.207163 C206.60896,100.335521 224.378367,91.2044055 249.074622,92.8138171 C262.339747,94.4060031 270.209038,102.094459 272.682494,115.879185 L272.682496,115.879185 C272.867538,116.910433 272.936232,117.959194 272.88729,119.005768 C272.243326,132.776135 270.186187,144.232008 266.715873,153.373386 C263.123149,162.837213 258.732667,171.443856 253.544429,179.193314 L215.743591,184.69717 L213.580514,163.036726 L196.8722,163.036726 L195.766404,120.207163 Z" id="è·¯å¾„-14" stroke="url(#linearGradient-19)" fill="url(#linearGradient-18)"></path>
                            <path d="M249.361435,144.552248 C245.649025,140.860195 242.304936,139.716664 239.32917,141.121656 C236.353403,142.526648 233.44414,146.742726 230.601381,153.76989 L223.607545,182.462556 L217.208883,211.027538 L236.532732,202.248649 L249.361435,144.552248 Z" id="è·¯å¾„-18" fill="#FEE0CD"></path>
                            <g id="ç¼–ç»„-27" transform="translate(227.845442, 139.144952)">
                                <path d="M5.17655895e-14,27.2837997 C2.36534386,9.9842319 8.19081038,0.925675117 17.4763996,0.108129339 C31.4047834,-1.11818933 34.6556453,8.34243019 34.2354772,15.5073135 C34.3836664,26.6998259 25.7012461,47.5938124 15.0086234,51.5594523 C10.2027857,53.3418234 5.60470802,52.4383974 4.33479823,51.5628689 C3.15165249,50.7471592 1.70671975,42.6541361 5.17655895e-14,27.2837997 Z" id="è·¯å¾„-16" fill="#FEE0CD"></path>
                                <path d="M18.8828271,20.4629424 C18.4573322,15.6522027 9.72156623,15.9763762 11.2408132,12.1049206 C12.7600602,8.23346495 19.4014667,5.4433602 24.0148512,7.38514547 C28.6282357,9.32693074 31.008878,12.2469397 28.1064322,22.9328558 C26.1714684,30.0567999 21.7611006,36.0905368 14.8753288,41.0340665 C11.3440295,42.9628199 9.39392267,42.9628199 9.02500841,41.0340665 C8.65609415,39.1053131 10.3515164,35.8866743 14.1112751,31.37815 C17.5759731,27.3085048 19.1664905,23.6701022 18.8828271,20.4629424 Z" id="è·¯å¾„-17" fill="#FFD6BB"></path>
                            </g>
                        </g>
                        <polygon id="è·¯å¾„-19" fill="url(#linearGradient-20)" points="33.4945726 214.209856 213.167495 105.981846 382.852895 144.46255 75.621545 235.59096"></polygon>
                        <path d="M170.83131,118.255699 L253.406854,178.765036 M177.965739,165.00832 L249.497157,219.956199 M189.513377,220.083223 L242.959743,259.053203 M202.745454,274.956235 L242.333568,303.808213 M153.452204,27.2239429 L206.941093,326.477648 M162.647487,12.6449564 L210.28483,325.207909 M173.141597,24.6090397 L213.628566,323.938169 M186.466158,44.7443749 L216.796317,322.735258 M198.99399,61.6942479 L219.964068,321.532347 M209.479029,74.4453785 L223.131819,320.329436 M223.131819,91.3079873 L226.29957,319.126525 M232.635071,102.004878 L229.46732,317.923614 M241.515891,114.678257 L232.635071,316.720702 M249.497157,123.921013 L235.802822,315.517791 M255.746847,132.05295 L238.970573,314.31488" id="å½¢çŠ¶ç»“åˆ" stroke="url(#linearGradient-21)" stroke-linecap="square" transform="translate(204.649512, 170.096973) scale(-1, 1) rotate(-64.000000) translate(-204.649512, -170.096973) "></path>
                        <g id="ç¼–ç»„-5" transform="translate(121.557628, 350.716817) rotate(-6.000000) translate(-121.557628, -350.716817) translate(18.057628, 176.216817)">
                            <g id="è¢–å­" transform="translate(103.604042, 248.414355) rotate(31.000000) translate(-103.604042, -248.414355) translate(26.138343, 177.927548)">
                                <path d="M34.2024357,71.1663216 C40.1239197,60.0315392 43.0846617,47.5964229 43.0846617,33.8609726 C43.0846617,20.1255224 40.1239197,7.69040607 34.2024357,-3.44437637 C28.2809517,7.69040607 25.3202098,20.1255224 25.3202098,33.8609726 C25.3202098,47.5964229 28.2809517,60.0315392 34.2024357,71.1663216 Z" id="æ¤­åœ†å½¢" fill="#070A2D" transform="translate(34.202436, 33.860973) rotate(47.000000) translate(-34.202436, -33.860973) "></path>
                                <path d="M8.02901547,48.2833531 C13.1073994,33.6296327 18.8142166,22.9361947 25.1494671,16.2030391 C31.4847176,9.46988341 39.0228429,4.33930948 47.7638429,0.811317298 L51.6828332,11.9119699 L18.7304312,51.1888114 L8.02901547,48.2833531 Z" id="è·¯å¾„-9" fill="#C1C9DE"></path>
                                <path d="M47.9348542,0.812911823 C43.6802999,9.61628506 38.0012177,18.2092365 30.8976075,26.591766 C23.7939974,34.9742956 16.1383459,42.1168361 7.93065306,48.0193876 C10.0500165,50.8486693 11.9265838,52.9429337 13.5603548,54.3021806 C15.1941259,55.6614276 17.0645804,56.6845693 19.1717183,57.3716059 C28.9497653,50.1903924 37.1361006,43.0516738 43.7307242,35.9554501 C50.3253477,28.8592263 56.1293573,20.9434665 61.142753,12.2081707 L47.9348542,0.812911823 Z" id="è·¯å¾„-8" fill="#E7EEFE"></path>
                                <path d="M6.91903062,59.3031595 C23.3344646,83.7517166 34.5307735,99.2244773 40.5079573,105.721442 C42.1935822,107.55365 69.9226692,136.34476 74.9166767,140.435542 C81.1146928,139.980098 88.3688642,138.541434 96.679191,136.119552 C110.597617,132.277686 122.497998,125.560393 132.380333,115.967675 C142.262668,106.374956 149.437318,96.9583232 153.904282,87.717775 L61.4858408,8.41878579 C57.18653,19.3046969 50.2066096,29.2519473 40.5460798,38.2605371 C30.88555,47.2691269 19.6765336,54.2833344 6.91903062,59.3031595 Z" id="è·¯å¾„-10" fill="url(#linearGradient-22)"></path>
                            </g>
                            <g id="ç¼–ç»„-29" transform="translate(6.514596, 0.000000)">
                                <g id="ç¼–ç»„-28" transform="translate(18.678632, 0.687062)">
                                    <path d="M10.2871876,2.32854782 L58.6669363,17.7583037 C61.1548331,18.5517688 62.8438308,20.8632581 62.8438308,23.4746213 L62.8438308,151.447281 C62.8438308,154.760989 60.1575393,157.447281 56.8438308,157.447281 C56.2110007,157.447281 55.5821547,157.347166 54.9806108,157.150649 L7.68904782,141.701079 C5.28020283,140.914139 3.62549049,138.698658 3.55461503,136.165521 L0.10781557,12.9745487 L0.10781557,12.9745487 L1.3263662,7.48157392 C2.16363599,3.70733451 5.90200282,1.32645022 9.67624223,2.16372 C9.88227119,2.20942506 10.0861279,2.26442385 10.2871876,2.32854782 Z" id="çŸ©å½¢å¤‡ä»½-26" fill="#3F465B"></path>
                                    <path d="M6,5.33174362 C6.59064149,5.33174362 7.17756439,5.42518395 7.73900539,5.60859979 L7.73900539,5.60859979 L54.9100507,21.0187981 C56.061546,21.3949774 57.0267947,22.1200711 57.7041695,23.0539661 C58.3815443,23.9878611 58.7710453,25.1305574 58.7710453,26.3419419 L58.7710453,26.3419419 L58.7710453,154.346848 C58.7710453,155.893246 58.1442439,157.293246 57.1308433,158.306646 C56.1174426,159.320047 54.7174426,159.946848 53.1710453,159.946848 C52.5804038,159.946848 51.9934809,159.853408 51.4320399,159.669992 L51.4320399,159.669992 L4.26099461,144.259794 C3.10949926,143.883614 2.14425061,143.158521 1.46687579,142.224626 C0.789500977,141.290731 0.4,140.148034 0.4,138.93665 L0.4,138.93665 L0.4,10.9317436 C0.4,9.38534633 1.02680135,7.98534633 2.04020203,6.97194565 C3.0536027,5.95854498 4.4536027,5.33174362 6,5.33174362 Z" id="çŸ©å½¢å¤‡ä»½-25" stroke="#989BA5" stroke-width="0.8" fill="#5F6578"></path>
                                    <path d="M12.2070951,21.945905 C15.2123181,22.455343 17.6485327,25.6810488 17.6485327,29.1507204 L17.6485327,45.5816031 C17.6485327,49.0512748 15.2123181,51.4510183 12.2070951,50.9415803 C9.20187214,50.4321423 6.76565756,47.2064366 6.76565756,43.7367649 L6.76565756,27.3058823 C6.76565756,23.8362106 9.20187214,21.4364671 12.2070951,21.945905 Z" id="çŸ©å½¢å¤‡ä»½-23" fill="#3F465B"></path>
                                    <path d="M11.2405726,21.945905 C14.2457956,22.455343 16.6820101,25.6810488 16.6820101,29.1507204 L16.6820101,45.5816031 C16.6820101,49.0512748 14.2457956,51.4510183 11.2405726,50.9415803 C8.23534963,50.4321423 5.79913506,47.2064366 5.79913506,43.7367649 L5.79913506,27.3058823 C5.79913506,23.8362106 8.23534963,21.4364671 11.2405726,21.945905 Z" id="çŸ©å½¢å¤‡ä»½-24" fill="#8D94AA"></path>
                                    <path d="M11.2603642,34.0483012 C13.1021673,34.3993196 14.5952438,32.9603233 14.5952438,30.834213 C14.5952438,28.7081027 13.1021673,26.4967462 11.2603642,25.8950099 C9.41856103,25.2932736 7.92548458,26.7322699 7.92548458,29.1090981 C7.92548458,31.4859263 9.41856103,33.6972828 11.2603642,34.0483012 Z" id="æ¤­åœ†å½¢å¤‡ä»½-8" fill="#3F465B"></path>
                                    <path d="M11.2603642,47.3807969 C13.1021673,47.7318153 14.5952438,46.292819 14.5952438,44.1667087 C14.5952438,42.0405984 13.1021673,39.8292419 11.2603642,39.2275056 C9.41856103,38.6257693 7.92548458,40.0647656 7.92548458,42.4415938 C7.92548458,44.818422 9.41856103,47.0297785 11.2603642,47.3807969 Z" id="æ¤­åœ†å½¢å¤‡ä»½-9" fill="#3F465B"></path>
                                </g>
                                <g id="ðŸ‘‹" transform="translate(0.000000, 61.876817)">
                                    <path d="M28.5389905,41.2810707 L28.5389905,41.2810707 L28.5389905,41.2810707 L31.4371983,84.071898 L26.9701108,97.6138053 L21.2436476,84.4682865 L21.7555546,72.8133281 L20.2723764,60.2867488 C19.4006777,52.9245835 22.5590955,45.6631013 28.5389905,41.2810707 Z" id="çŸ©å½¢å¤‡ä»½-14" fill="url(#linearGradient-23)" transform="translate(25.149451, 69.447438) rotate(-28.000000) translate(-25.149451, -69.447438) "></path>
                                    <path d="M26.0445785,26.9660544 L26.0445785,26.9660544 L26.0445785,26.9660544 L27.8501765,53.6249549 L33.4171352,72.2283433 L25.2447686,87.1213675 L18.9328097,55.7252886 L17.7779644,45.9717324 C16.9062657,38.6095671 20.0646834,31.3480849 26.0445785,26.9660544 Z" id="çŸ©å½¢å¤‡ä»½-21" fill="url(#linearGradient-24)" transform="translate(24.892213, 57.043711) rotate(-28.000000) translate(-24.892213, -57.043711) "></path>
                                    <path d="M23.767134,9.68810794 L23.767134,9.68810794 L23.767134,9.68810794 L24.6106502,28.1013671 L40.1972345,60.2395216 L22.5063388,73.8887001 L15.0552292,39.7994212 L14.4340032,21.4715132 C14.2413838,15.7886994 18.1912098,10.8019053 23.767134,9.68810794 Z" id="çŸ©å½¢" fill="url(#linearGradient-25)" transform="translate(27.148645, 41.788404) rotate(-28.000000) translate(-27.148645, -41.788404) "></path>
                                    <path d="M94.8139413,118.382962 L91.7760516,106.918503 C93.7098445,97.7539295 94.1416039,86.0273839 93.0713299,71.7388664 C91.4659188,50.3060902 85.5622826,49.3654862 86.2088199,36.3062033 C86.8553572,23.2469204 97.6330861,4.2518548 91.7760516,0.892967868 C85.9190172,-2.46591907 78.8965836,4.52308283 77.3283675,7.45565961 C76.2828901,9.41071079 72.6533867,18.3084383 66.4398575,34.1488423 C62.3453314,34.8228248 59.1802742,35.5419452 56.944686,36.3062033 C54.7090977,37.0704614 52.1303204,37.6327583 49.208354,37.993094 L28.3023757,24.4129039 C19.8716669,11.4145603 13.6260836,4.33789526 9.5656258,3.18290874 C8.60905844,2.91081568 7.79932839,2.78515301 7.03727429,2.79400109 C6.08853438,2.80501676 5.21369066,3.02451979 4.22139395,3.42950914 C3.85962524,3.57715901 3.48224508,3.74946307 3.07998103,3.94530674 C2.72794639,4.11669603 2.6999304,4.2013612 2.32288236,4.8063831 C2.39014254,5.38102598 2.18276456,5.67467302 2.40082131,6.28451572 C2.86084605,7.57107402 3.60144956,8.95832445 4.39060131,10.5406156 C5.01441472,11.7913946 6.12925215,13.7971752 7.60236458,16.5490004 C7.7999788,16.9181506 8.15744967,17.4499821 8.67477719,18.144495 L18.2466892,34.6404439 L29.5383023,45.2823945 C30.7109034,52.756257 30.928643,59.2491681 30.1915212,64.7611277 C29.4543993,70.2730874 30.1370905,76.2556894 32.2395948,82.7089337 C34.5899227,86.8687498 38.9322209,92.2541688 45.2664894,98.8651907 C51.6007579,105.476213 55.2959371,111.965739 56.352027,118.333771 L59.5271581,130.146146 C64.087882,130.214798 70.3820514,128.703614 78.4096663,125.612597 C86.4372812,122.521579 91.9053728,120.1117 94.8139413,118.382962 Z" id="è·¯å¾„-19å¤‡ä»½" fill="url(#linearGradient-26)"></path>
                                    <path d="M6.90075355,15.1586077 C9.52755458,13.0022955 11.0518133,11.6846861 11.4735297,11.2057794 C12.1061043,10.4874193 12.5456037,9.67691636 9.64121478,5.81079483 C8.16480397,3.84549893 6.14783921,3.09938545 3.59032049,3.57245439 C2.50417027,3.77335396 1.78653992,4.81671884 1.98744687,5.9028677 C2.02565745,6.10944285 2.09617598,6.30870796 2.19640872,6.49333391 L6.90075355,15.1586077 L6.90075355,15.1586077 Z" id="è·¯å¾„-21" fill="#FEDFC8"></path>
                                    <path d="M91.5046416,14.5600553 C89.7555509,14.4185593 88.1835911,14.1398839 86.788762,13.7240289 C85.393933,13.308174 83.839827,12.5036218 82.1264441,11.3103724 C84.1997787,3.08519621 87.077766,-0.523034931 90.760406,0.485678995 C94.4430459,1.49439292 94.6911244,6.18585171 91.5046416,14.5600553 Z" id="è·¯å¾„-22" fill="#FEDFC8"></path>
                                </g>
                            </g>
                        </g>
                    </g>
                </g>
            </g>
            <line x1="263.948795" y1="472.148419" x2="496.045928" y2="521.482188" id="ç›´çº¿-2" stroke="url(#linearGradient-27)" stroke-width="3" stroke-linecap="square"></line>
        </g>
    </g>
</svg>