<?xml version="1.0" encoding="UTF-8"?>
<svg width="110px" height="110px" viewBox="0 0 110 110" version="1.1" xmlns="http://www.w3.org/2000/svg" xmlns:xlink="http://www.w3.org/1999/xlink">
    <title>矩形备份 14</title>
    <defs>
        <linearGradient x1="50%" y1="100%" x2="50%" y2="0%" id="linearGradient-1">
            <stop stop-color="#BAB9B9" offset="0%"></stop>
            <stop stop-color="#E3E3E3" offset="100%"></stop>
        </linearGradient>
    </defs>
    <g id="员工端-录入人脸" stroke="none" stroke-width="1" fill="none" fill-rule="evenodd">
        <g id="工作台" transform="translate(-73.000000, -1197.000000)">
            <rect id="矩形备份-5" fill="#FFFFFF" x="0" y="759" width="750" height="636"></rect>
            <g id="编组-26" transform="translate(103.500000, 1227.000000)" fill-rule="nonzero">
                <path d="M34,0 L45,0 C47.7614237,0 50,2.23857625 50,5 L50,16 M50,34 L50,45 C50,47.7614237 47.7614237,50 45,50 L34,50 M16,50 L5,50 C2.23857625,50 0,47.7614237 0,45 L0,34 M0,16 L0,5 C0,2.23857625 2.23857625,0 5,0 C8.5353039,0 12.4646961,0 16,0" id="形状" stroke="#333333" stroke-width="2" stroke-linecap="round"></path>
                <path d="M23.4760777,29.4237794 C22.3687227,29.4237794 21.3265063,28.9026712 20.645057,28.3164244 C19.9836505,27.7502203 19.9084906,26.7530998 20.4746947,26.0916932 C21.0408989,25.4302866 22.0430301,25.3551268 22.699426,25.9213309 C23.0351399,26.2119489 23.4460137,26.3021407 23.5462268,26.2520342 C23.6364187,26.2119489 23.9871646,25.7209046 23.9871646,24.2227185 L23.9871646,15.418996 C23.9871646,14.5471419 24.6936671,13.8406394 25.5655212,13.8406394 C26.4373753,13.8406394 27.1438778,14.5471419 27.1438778,15.418996 L27.1438778,24.2227185 C27.1438778,27.404485 25.9012351,28.6421171 24.8640294,29.12314 C24.4080597,29.3385982 23.937058,29.4237794 23.4760777,29.4237794 Z M16.5463405,20.3544921 C15.6744863,20.3544921 14.9679838,19.6479896 14.9679838,18.7761355 L14.9679838,15.4240066 C14.9679838,14.5521525 15.6744863,13.84565 16.5463405,13.84565 C17.4181946,13.84565 18.1246971,14.5521525 18.1246971,15.4240066 L18.1246971,18.7761355 C18.1246971,19.6479896 17.4181946,20.3544921 16.5463405,20.3544921 Z M34.4494142,20.3544921 C33.5775601,20.3544921 32.8710576,19.6479896 32.8710576,18.7761355 L32.8710576,15.4240066 C32.8710576,14.5521525 33.5775601,13.84565 34.4494142,13.84565 C35.3212683,13.84565 36.0277708,14.5521525 36.0277708,15.4240066 L36.0277708,18.7761355 C36.0277708,19.6479896 35.3212683,20.3544921 34.4494142,20.3544921 Z M25.4703187,36.5990387 C21.2413251,36.5990387 17.6837594,33.9383804 17.5334397,33.828146 C16.8419692,33.3020271 16.7016708,32.3099172 17.2277897,31.6184467 C17.7539086,30.9269762 18.7410078,30.7866778 19.437489,31.3127967 C19.4675529,31.3328393 22.3236268,33.4473361 25.4703187,33.4473361 C29.3285238,33.4473361 31.4931272,31.4581057 31.5131698,31.4380631 C32.1395018,30.8317737 33.141633,30.8518163 33.7429117,31.4781483 C34.3492011,32.1044803 34.3341691,33.1066115 33.7028265,33.7078902 C33.5825707,33.8231353 30.6463263,36.5990387 25.4703187,36.5990387 Z" id="形状" fill="#F4CA1C"></path>
            </g>
            <g id="矩形备份-14" transform="translate(73.000000, 1197.000000)" fill="url(#linearGradient-1)" opacity="0.140000001">
                <rect id="矩形备份-11" x="0" y="0" width="110" height="110" rx="16"></rect>
            </g>
        </g>
    </g>
</svg>