<?xml version="1.0" encoding="UTF-8"?>
<svg width="500px" height="281px" viewBox="0 0 500 281" version="1.1" xmlns="http://www.w3.org/2000/svg" xmlns:xlink="http://www.w3.org/1999/xlink">
    <title>编组 3</title>
    <defs>
        <linearGradient x1="50%" y1="0%" x2="50%" y2="100%" id="linearGradient-1">
            <stop stop-color="#FFFFFF" offset="0%"></stop>
            <stop stop-color="#F8F0E8" offset="100%"></stop>
        </linearGradient>
        <radialGradient cx="50%" cy="50%" fx="50%" fy="50%" r="375.528787%" gradientTransform="translate(0.500000,0.500000),scale(0.186795,1.000000),rotate(180.000000),scale(1.000000,0.216270),translate(-0.500000,-0.500000)" id="radialGradient-2">
            <stop stop-color="#EAC9A5" offset="0%"></stop>
            <stop stop-color="#FAF7F4" offset="100%"></stop>
        </radialGradient>
        <linearGradient x1="100%" y1="50%" x2="0%" y2="50%" id="linearGradient-3">
            <stop stop-color="#EAC9A5" stop-opacity="0.4" offset="0%"></stop>
            <stop stop-color="#EAC9A5" offset="100%"></stop>
        </linearGradient>
        <linearGradient x1="50%" y1="0.601773649%" x2="50%" y2="100%" id="linearGradient-4">
            <stop stop-color="#FDFAF5" offset="0%"></stop>
            <stop stop-color="#F0DAC1" offset="100%"></stop>
        </linearGradient>
        <linearGradient x1="100%" y1="50%" x2="0%" y2="50%" id="linearGradient-5">
            <stop stop-color="#EAC9A5" stop-opacity="0.4" offset="0%"></stop>
            <stop stop-color="#EAC9A5" offset="100%"></stop>
        </linearGradient>
        <linearGradient x1="50%" y1="0.601773649%" x2="50%" y2="100%" id="linearGradient-6">
            <stop stop-color="#F7E8D7" offset="0%"></stop>
            <stop stop-color="#F2D6B6" offset="100%"></stop>
        </linearGradient>
        <linearGradient x1="50%" y1="0.601773649%" x2="50%" y2="100%" id="linearGradient-7">
            <stop stop-color="#F8E3CC" offset="0%"></stop>
            <stop stop-color="#EAC9A5" offset="100%"></stop>
        </linearGradient>
        <linearGradient x1="93.3581741%" y1="54.2558781%" x2="41.7447575%" y2="45.7441219%" id="linearGradient-8">
            <stop stop-color="#F8E3CC" offset="0%"></stop>
            <stop stop-color="#EAC9A5" offset="100%"></stop>
        </linearGradient>
        <linearGradient x1="99.7998751%" y1="89.5895205%" x2="-32.2369263%" y2="-56.4095085%" id="linearGradient-9">
            <stop stop-color="#F8E3CC" offset="0%"></stop>
            <stop stop-color="#EAC9A5" offset="100%"></stop>
        </linearGradient>
        <linearGradient x1="50%" y1="0%" x2="50%" y2="100%" id="linearGradient-10">
            <stop stop-color="#FAF7F4" offset="0%"></stop>
            <stop stop-color="#FCF1E4" offset="100%"></stop>
        </linearGradient>
        <linearGradient x1="50%" y1="0%" x2="50%" y2="100%" id="linearGradient-11">
            <stop stop-color="#FAF7F4" offset="0%"></stop>
            <stop stop-color="#FCF1E4" offset="100%"></stop>
        </linearGradient>
        <linearGradient x1="50%" y1="0%" x2="50%" y2="100%" id="linearGradient-12">
            <stop stop-color="#F9E9D9" offset="0%"></stop>
            <stop stop-color="#F8F3EE" offset="100%"></stop>
        </linearGradient>
        <linearGradient x1="50%" y1="0%" x2="50%" y2="100%" id="linearGradient-13">
            <stop stop-color="#F9E9D9" offset="0%"></stop>
            <stop stop-color="#F8F3EE" offset="100%"></stop>
        </linearGradient>
        <linearGradient x1="50%" y1="0%" x2="50%" y2="100%" id="linearGradient-14">
            <stop stop-color="#F9E9D9" offset="0%"></stop>
            <stop stop-color="#F8F3EE" offset="100%"></stop>
        </linearGradient>
        <linearGradient x1="94.6998052%" y1="39.9035686%" x2="-77.9548391%" y2="58.284515%" id="linearGradient-15">
            <stop stop-color="#F8E3CC" offset="0%"></stop>
            <stop stop-color="#EAC9A5" offset="100%"></stop>
        </linearGradient>
    </defs>
    <g id="员工端-录入人脸" stroke="none" stroke-width="1" fill="none" fill-rule="evenodd">
        <g id="选择员工备份-3" transform="translate(-125.000000, -484.000000)">
            <rect id="矩形" fill="#FFFFFF" x="0" y="313" width="752" height="1106"></rect>
            <g id="编组-3" transform="translate(125.000000, 484.000000)">
                <ellipse id="椭圆形" fill="url(#linearGradient-1)" cx="250" cy="213.188841" rx="250" ry="66.9527897"></ellipse>
                <ellipse id="椭圆形" fill="url(#radialGradient-2)" opacity="0.600000024" cx="250.5" cy="174.025751" rx="96.5" ry="18.0257511"></ellipse>
                <ellipse id="椭圆形" fill="url(#linearGradient-3)" opacity="0.402297247" cx="101.5" cy="175.592275" rx="16.5" ry="1.54506438"></ellipse>
                <rect id="矩形" fill="#D2B18B" x="87" y="164.776824" width="3" height="11.3304721" rx="1.00468937"></rect>
                <path d="M88,140.055794 C93.5228475,140.055794 98,144.898036 98,150.871245 C98,153.818068 96.9103304,156.489632 95.143011,158.440319 L95.1428571,166.896996 C95.1428571,168.001565 94.2474266,168.896996 93.1428571,168.896996 L82.8571429,168.896996 C81.7525734,168.896996 80.8571429,168.001565 80.8571429,166.896996 L80.856989,158.440319 C79.0896696,156.489632 78,153.818068 78,150.871245 C78,144.898036 82.4771525,140.055794 88,140.055794 Z" id="形状结合" fill="url(#linearGradient-4)"></path>
                <ellipse id="椭圆形" fill="url(#linearGradient-3)" opacity="0.402297247" cx="407.5" cy="171.472103" rx="16.5" ry="1.54506438"></ellipse>
                <rect id="矩形" fill="#D2B18B" x="392" y="160.656652" width="3" height="11.3304721" rx="1.00468937"></rect>
                <path d="M394,135.935622 C399.522847,135.935622 404,140.777865 404,146.751073 C404,149.697897 402.91033,152.369461 401.143011,154.320147 L401.142857,162.776824 C401.142857,163.881394 400.247427,164.776824 399.142857,164.776824 L388.857143,164.776824 C387.752573,164.776824 386.857143,163.881394 386.857143,162.776824 L386.856989,154.320147 C385.08967,152.369461 384,149.697897 384,146.751073 C384,140.777865 388.477153,135.935622 394,135.935622 Z" id="形状结合" fill="url(#linearGradient-4)"></path>
                <ellipse id="椭圆形" fill="url(#linearGradient-5)" opacity="0.402297247" cx="168.5" cy="248.725322" rx="31.5" ry="3.60515021"></ellipse>
                <rect id="矩形" fill="#D2B18B" x="137" y="228.639485" width="6" height="20.6008584" rx="1.9483815"></rect>
                <path d="M139.5,182.287554 C150.269553,182.287554 159,191.280289 159,202.373391 C159,207.846021 156.875177,212.807462 153.428951,216.430158 L153.428571,233.849785 C153.428571,234.954355 152.533141,235.849785 151.428571,235.849785 L127.571429,235.849785 C126.466859,235.849785 125.571429,234.954355 125.571429,233.849785 L125.571049,216.430158 C122.124823,212.807462 120,207.846021 120,202.373391 C120,191.280289 128.730447,182.287554 139.5,182.287554 Z" id="形状结合" fill="url(#linearGradient-6)"></path>
                <g id="编组-5" transform="translate(95.000000, 0.000000)">
                    <polygon id="路径-4" fill="url(#linearGradient-7)" points="158.981558 113.651307 159.907963 191.731545 215.596567 168.57935 216.048051 93.2626094"></polygon>
                    <polygon id="路径-2" fill="url(#linearGradient-8)" points="86.999215 95.2767044 140.840929 75.8857384 216.048051 92.7748147 159.326953 113.535625"></polygon>
                    <polygon id="路径-5" fill="url(#linearGradient-9)" points="86.3797492 96.1587545 84.0992412 170.542168 159.498561 190.283472 159.392865 113.549405"></polygon>
                    <path d="M87.6629401,94.7106819 C84.4780604,95.8345202 80.8795586,99.3794972 76.8674347,105.345613 C72.8553108,111.311729 69.4659653,117.691098 66.6993982,124.483721 L137.688469,146.841295 L159.405291,113.533683 L87.6629401,94.7106819 Z" id="路径-8" fill="url(#linearGradient-10)"></path>
                    <polygon id="路径-9" fill="url(#linearGradient-11)" points="159.321155 113.532737 215.663784 91.8145368 234.897881 121.128963 180.318078 146.841295"></polygon>
                    <path d="M177.29898,54.1646497 L178.348391,54.9070659 L177.476101,56.1836481 C174.169561,60.9715546 171.290351,64.5441566 168.807408,66.8935398 L168.439711,67.2326314 L168.433634,67.3370177 C168.367796,68.1663781 168.183763,69.0488287 167.863334,69.9707266 L167.751447,70.2794682 C166.647816,73.2054801 163.986375,75.4894543 159.814016,77.1516772 L159.344206,77.333811 L158.902632,76.1094023 C163.03195,74.551641 165.567291,72.4442209 166.560952,69.8097674 C166.706555,69.423738 166.825293,69.0471197 166.918904,68.6810134 L166.971029,68.4606778 L166.935003,68.4895066 C164.942037,69.9836116 163.246347,70.5392245 161.827111,70.1510403 L161.651145,70.0976012 C156.635625,68.4206174 157.11999,62.1651811 161.478359,60.8347441 C164.761871,59.8324185 167.703555,61.7890278 168.336203,65.2299062 L168.381014,65.504753 L168.505536,65.3829191 C170.873982,63.0072075 173.695396,59.4481505 176.937067,54.6974138 L177.29898,54.1646497 Z M167.188927,66.3819826 C167.076842,63.0930609 164.625076,61.2361091 161.843298,62.0852757 C158.629852,63.066213 158.279022,67.5970887 162.047645,68.8571614 C163.250195,69.2592447 164.908728,68.5731743 166.994036,66.791508 L167.191778,66.6192607 L167.188927,66.3819826 Z" id="路径-10" fill="#EAC9A5" fill-rule="nonzero"></path>
                    <path d="M127.291653,62.4259271 C126.450789,61.6246512 125.763887,61.6410383 125.230947,62.4750885 C124.431538,63.7261637 124.195508,65.6723774 124.324897,68.4135591 C124.411156,70.2410136 124.784556,72.3544741 125.445097,74.7539405 C126.787767,73.6263926 127.774034,72.438261 128.403898,71.1895457 C129.348694,69.3164727 129.719288,67.9160455 129.534033,65.5206515 C129.41053,63.9237221 128.66307,62.8921473 127.291653,62.4259271 Z" id="路径-11" fill="#FFEFDE" transform="translate(126.935909, 68.295477) rotate(31.000000) translate(-126.935909, -68.295477) "></path>
                    <path d="M130.423299,65.3937451 C130.911952,62.2944105 131.881207,60.4514497 133.331064,59.8648626" id="路径-12" stroke="#FFEFDE" stroke-linecap="round" transform="translate(131.877182, 62.629304) rotate(31.000000) translate(-131.877182, -62.629304) "></path>
                    <path d="M180.941169,89.9393061 C180.100305,89.1380302 179.413403,89.1544174 178.880463,89.9884675 C178.081054,91.2395427 177.845024,93.1857564 177.974413,95.9269381 C178.060672,97.7543927 178.434072,99.8678531 179.094613,102.26732 C180.437283,101.139772 181.42355,99.95164 182.053414,98.7029247 C182.99821,96.8298518 183.368804,95.4294245 183.183549,93.0340305 C183.060046,91.4371011 182.312586,90.4055263 180.941169,89.9393061 Z" id="路径-11" fill="#FFEFDE" transform="translate(180.585425, 95.808856) rotate(31.000000) translate(-180.585425, -95.808856) "></path>
                    <path d="M184.072815,92.9071241 C184.561468,89.8077895 185.530723,87.9648287 186.98058,87.3782416" id="路径-12" stroke="#FFEFDE" stroke-linecap="round" transform="translate(185.526698, 90.142683) rotate(31.000000) translate(-185.526698, -90.142683) "></path>
                    <path d="M31.2486976,26.0653064 C39.1024454,26.0653064 45.7961234,31.0227075 48.3599611,37.9733883 C57.1032034,39.3125402 63.7994243,46.8532694 63.7994243,55.9550097 C63.7994243,66.0031306 55.6382886,74.1487421 45.5710174,74.1487421 C40.7153612,74.1487421 36.3031361,72.2537997 33.0361782,69.1644162 C29.7283034,73.7573903 24.32825,76.7478467 18.228407,76.7478467 C8.16113578,76.7478467 0,68.6022353 0,58.5541143 C0,50.2083189 5.63010333,43.1750032 13.3062441,41.0314153 C14.8323324,32.5230522 22.284934,26.0653064 31.2486976,26.0653064 Z" id="形状结合" fill="url(#linearGradient-12)"></path>
                    <path d="M292.542258,89.7804999 C296.82618,89.7804999 300.477318,92.4846112 301.875733,96.2759737 C306.645098,97.0066942 310.2972,101.119649 310.2972,106.083974 C310.2972,111.564768 305.845672,116.007828 300.354433,116.007828 C297.705846,116.007828 295.299139,114.974187 293.517152,113.289015 C291.713382,115.794126 288.767711,117.425522 285.440282,117.425522 C279.949043,117.425522 275.497514,112.982461 275.497514,107.501668 C275.497514,102.948742 278.569388,99.1119269 282.757324,97.9433134 C283.588575,93.3023021 287.653352,89.7804999 292.542258,89.7804999 Z" id="形状结合备份-2" fill="url(#linearGradient-13)"></path>
                    <path d="M249.664074,0 C255.197238,0 259.913126,3.49251435 261.719582,8.38936426 C267.879936,9.3334902 272.59754,14.6461927 272.59754,21.0586546 C272.59754,28.1380125 266.847649,33.876966 259.754799,33.876966 C256.334123,33.876966 253.2258,32.5421697 250.924151,30.3659586 C248.593224,33.6010543 244.788494,35.7081534 240.490687,35.7081534 C233.397837,35.7081534 227.647946,29.9691999 227.647946,22.8898419 C227.647946,17.009773 231.614713,12.0544297 237.023011,10.5442449 C238.097384,4.55030807 243.348325,0 249.664074,0 Z" id="形状结合备份" fill="url(#linearGradient-14)"></path>
                    <polygon id="路径-7" fill="url(#linearGradient-15)" points="140.648731 75.8857384 140.615321 108.445195 86.999215 95.3951924"></polygon>
                </g>
            </g>
        </g>
    </g>
</svg>